<svg xmlns="http://www.w3.org/2000/svg" width="1525.169" height="291.221" viewBox="0 0 1525.169 291.221">
  <g id="Grupo_877555" data-name="Grupo 877555" transform="translate(-36.416 -4204.961)">
    <path id="Rectángulo_293333" data-name="Rectángulo 293333" d="M384.515,106.505H524.728a5.461,5.461,0,0,1,5.492,5.43v36.574a5.461,5.461,0,0,1-5.492,5.43H384.515a5.461,5.461,0,0,1-5.492-5.43V111.935A5.461,5.461,0,0,1,384.515,106.505Z" transform="translate(360.233 4196.44)" fill="#b1dce0"/>
    <path id="Rectángulo_293333-2" data-name="Rectángulo 293333" d="M384.515,142.544H524.728a5.462,5.462,0,0,1,5.492,5.431v36.572a5.462,5.462,0,0,1-5.492,5.431H384.515a5.462,5.462,0,0,1-5.492-5.431V147.975A5.462,5.462,0,0,1,384.515,142.544Z" transform="translate(360.233 4219.323)" fill="#b1dce0"/>
    <path id="Rectángulo_293333-3" data-name="Rectángulo 293333" d="M496.013,106.505H636.226a5.46,5.46,0,0,1,5.49,5.43v36.574a5.46,5.46,0,0,1-5.49,5.43H496.013a5.461,5.461,0,0,1-5.492-5.43V111.935A5.461,5.461,0,0,1,496.013,106.505Z" transform="translate(431.029 4196.44)" fill="#b1dce0"/>
    <path id="Rectángulo_293333-4" data-name="Rectángulo 293333" d="M496.013,142.544H636.226a5.46,5.46,0,0,1,5.49,5.431v36.572a5.46,5.46,0,0,1-5.49,5.431H496.013a5.462,5.462,0,0,1-5.492-5.431V147.975A5.462,5.462,0,0,1,496.013,142.544Z" transform="translate(431.029 4219.323)" fill="#b1dce0"/>
    <path id="Rectángulo_293333-5" data-name="Rectángulo 293333" d="M496.013,176.9H636.226a5.46,5.46,0,0,1,5.49,5.43V218.9a5.46,5.46,0,0,1-5.49,5.431H496.013a5.462,5.462,0,0,1-5.492-5.431V182.325A5.461,5.461,0,0,1,496.013,176.9Z" transform="translate(431.029 4241.134)" fill="#b1dce0"/>
    <path id="Rectángulo_293332" data-name="Rectángulo 293332" d="M332.119,302.953V70.047c0-3.108,2.8-5.629,6.262-5.629h33.448c3.458,0,6.262,2.521,6.262,5.629V302.953c0,3.108-2.8,5.629-6.262,5.629H338.381C334.923,308.583,332.119,306.062,332.119,302.953Z" transform="translate(330.452 4169.717)" fill="#b1dce0"/>
    <path id="Rectángulo_293306" data-name="Rectángulo 293306" d="M679.17,99.466H840.914a5.848,5.848,0,0,1,5.541,6.113v41.17a5.848,5.848,0,0,1-5.541,6.113H679.17a5.848,5.848,0,0,1-5.541-6.113v-41.17A5.848,5.848,0,0,1,679.17,99.466Z" transform="translate(547.293 4191.971)" fill="#eae696"/>
    <path id="Rectángulo_293306-2" data-name="Rectángulo 293306" d="M679.17,140.01H840.914a5.848,5.848,0,0,1,5.541,6.113v41.171a5.848,5.848,0,0,1-5.541,6.113H679.17a5.848,5.848,0,0,1-5.541-6.113V146.123A5.848,5.848,0,0,1,679.17,140.01Z" transform="translate(547.293 4217.714)" fill="#eae696"/>
    <path id="Rectángulo_293297" data-name="Rectángulo 293297" d="M620.351,322.864V56.778c0-3.044,2.828-5.511,6.316-5.511h40.4c3.489,0,6.316,2.467,6.316,5.511V322.864c0,3.044-2.827,5.511-6.316,5.511h-40.4C623.179,328.376,620.351,325.909,620.351,322.864Z" transform="translate(513.464 4161.367)" fill="#eae696"/>
    <path id="Rectángulo_293297-2" data-name="Rectángulo 293297" d="M110.36,101.756H255.832a5.76,5.76,0,0,1,5.824,5.693v36.418a5.76,5.76,0,0,1-5.824,5.693H110.36a5.76,5.76,0,0,1-5.824-5.693V107.449A5.76,5.76,0,0,1,110.36,101.756Z" transform="translate(185.949 4193.425)" fill="#c6dbef"/>
    <path id="Rectángulo_293297-3" data-name="Rectángulo 293297" d="M110.36,138.922H255.832a5.76,5.76,0,0,1,5.824,5.693v36.418a5.76,5.76,0,0,1-5.824,5.693H110.36a5.76,5.76,0,0,1-5.824-5.693V144.615A5.76,5.76,0,0,1,110.36,138.922Z" transform="translate(185.949 4217.023)" fill="#c6dbef"/>
    <path id="Rectángulo_293297-4" data-name="Rectángulo 293297" d="M225.8,83.173H371.272a5.76,5.76,0,0,1,5.824,5.693v36.418a5.76,5.76,0,0,1-5.824,5.693H225.8a5.759,5.759,0,0,1-5.824-5.693V88.866A5.759,5.759,0,0,1,225.8,83.173Z" transform="translate(259.247 4181.625)" fill="#c6dbef"/>
    <path id="Rectángulo_293297-5" data-name="Rectángulo 293297" d="M225.8,120.339H371.272a5.76,5.76,0,0,1,5.824,5.693V162.45a5.76,5.76,0,0,1-5.824,5.693H225.8a5.759,5.759,0,0,1-5.824-5.693V126.032A5.759,5.759,0,0,1,225.8,120.339Z" transform="translate(259.247 4205.224)" fill="#c6dbef"/>
    <path id="Rectángulo_293297-6" data-name="Rectángulo 293297" d="M55.734,307.318V62.969a5.86,5.86,0,0,1,5.735-5.979H98.164a5.861,5.861,0,0,1,5.737,5.979V307.318a5.863,5.863,0,0,1-5.737,5.981H61.469A5.862,5.862,0,0,1,55.734,307.318Z" transform="translate(154.962 4165)" fill="#c6dbef"/>
    <text id="_" data-name="    " transform="translate(640.355 4491.182)" font-size="17" font-family="Roboto-Regular, Roboto"><tspan x="0" y="0" letter-spacing="0.004em"> </tspan><tspan y="0" letter-spacing="-0.005em"> </tspan><tspan y="0" letter-spacing="0.004em"> </tspan><tspan y="0"> </tspan></text>
    <path id="Trazado_616615" data-name="Trazado 616615" d="M85.2,134.664h15.729v29.989h15.729" transform="translate(173.668 4214.319)" fill="none" stroke="#3d6696" stroke-linejoin="round" stroke-width="2.217"/>
    <path id="Trazado_616616" data-name="Trazado 616616" d="M200.627,116.332h15.747v29.989H232.1" transform="translate(246.962 4202.68)" fill="none" stroke="#4774ab" stroke-linejoin="round" stroke-width="2.217"/>
    <path id="Trazado_616617" data-name="Trazado 616617" d="M200.627,127.99h15.747V98H232.1" transform="translate(246.962 4191.04)" fill="none" stroke="#4774ab" stroke-linejoin="round" stroke-width="2.217"/>
    <path id="Trazado_616618" data-name="Trazado 616618" d="M85.2,146.321h15.729V116.332h15.729" transform="translate(173.668 4202.68)" fill="none" stroke="#3d6696" stroke-linejoin="round" stroke-width="2.217"/>
    <rect id="Rectángulo_293482" data-name="Rectángulo 293482" width="1525.168" height="288.116" transform="translate(36.416 4204.961)" fill="none"/>
    <rect id="Rectángulo_293483" data-name="Rectángulo 293483" width="1525.168" height="288.116" transform="translate(36.416 4204.961)" fill="none"/>
    <path id="Trazado_616933" data-name="Trazado 616933" d="M7.594-5.023H2.82V0H1.32V-11.375H8.367v1.227H2.82v3.9H7.594ZM11.805,0h-1.5V-11.375h1.5Zm-.047-14.516h1.75l-2.094,2.3-1.164,0ZM17.9-5.07a7.053,7.053,0,0,1-2.809-1.363,2.6,2.6,0,0,1-.879-2,2.751,2.751,0,0,1,1.074-2.223,4.269,4.269,0,0,1,2.793-.879,4.66,4.66,0,0,1,2.09.453,3.436,3.436,0,0,1,1.422,1.25,3.2,3.2,0,0,1,.5,1.742H20.587a2.08,2.08,0,0,0-.656-1.627,2.669,2.669,0,0,0-1.852-.592,2.732,2.732,0,0,0-1.73.489,1.632,1.632,0,0,0-.621,1.358,1.468,1.468,0,0,0,.59,1.178,5.785,5.785,0,0,0,2.008.88,9.316,9.316,0,0,1,2.219.88A3.367,3.367,0,0,1,21.731-4.4a2.861,2.861,0,0,1,.387,1.508A2.658,2.658,0,0,1,21.04-.676a4.6,4.6,0,0,1-2.883.832,5.347,5.347,0,0,1-2.187-.449A3.681,3.681,0,0,1,14.4-1.523,3,3,0,0,1,13.852-3.3H15.36a1.959,1.959,0,0,0,.762,1.629,3.207,3.207,0,0,0,2.035.6,2.948,2.948,0,0,0,1.82-.484,1.573,1.573,0,0,0,.633-1.32,1.545,1.545,0,0,0-.586-1.293A6.755,6.755,0,0,0,17.9-5.07ZM25.585,0h-1.5V-11.375h1.5ZM36.695-3.609A4.185,4.185,0,0,1,35.363-.824a4.365,4.365,0,0,1-2.98.98,4.008,4.008,0,0,1-3.23-1.445,5.815,5.815,0,0,1-1.215-3.867V-6.25A6.481,6.481,0,0,1,28.5-9.039a4.231,4.231,0,0,1,1.605-1.848,4.47,4.47,0,0,1,2.406-.645,4.11,4.11,0,0,1,2.906,1.012,4.235,4.235,0,0,1,1.273,2.8H35.187a3.268,3.268,0,0,0-.848-1.975,2.565,2.565,0,0,0-1.824-.611,2.684,2.684,0,0,0-2.254,1.063,4.882,4.882,0,0,0-.816,3.026v1.1a5.018,5.018,0,0,0,.773,2.948A2.5,2.5,0,0,0,32.382-1.07,2.887,2.887,0,0,0,34.3-1.637a3.143,3.143,0,0,0,.887-1.973Zm8.328.633H40.257L39.187,0H37.64l4.344-11.375H43.3L47.648,0H46.109ZM40.71-4.2h3.867L42.64-9.523Z" transform="translate(239.211 4378.266) rotate(-90)"/>
    <rect id="Rectángulo_293484" data-name="Rectángulo 293484" width="1525.168" height="288.116" transform="translate(36.416 4204.961)" fill="none"/>
    <path id="Trazado_616931" data-name="Trazado 616931" d="M5.813-3.943h-3.7V-.92H6.41V0H.99V-8.531H6.352v.92H2.115v2.748h3.7Zm4.941-1.424a3.248,3.248,0,0,0-.533-.041A1.428,1.428,0,0,0,8.773-4.5V0H7.689V-6.34H8.743l.018.732a1.688,1.688,0,0,1,1.512-.85,1.107,1.107,0,0,1,.48.082Zm.532,2.139A3.745,3.745,0,0,1,11.651-4.9a2.732,2.732,0,0,1,1.02-1.148,2.775,2.775,0,0,1,1.491-.4,2.674,2.674,0,0,1,2.095.9,3.449,3.449,0,0,1,.8,2.385V-3.1A3.777,3.777,0,0,1,16.7-1.438,2.692,2.692,0,0,1,15.688-.293a2.807,2.807,0,0,1-1.515.41,2.667,2.667,0,0,1-2.089-.9,3.432,3.432,0,0,1-.8-2.373Zm1.09.129a2.712,2.712,0,0,0,.489,1.693,1.566,1.566,0,0,0,1.31.639,1.556,1.556,0,0,0,1.313-.647,2.966,2.966,0,0,0,.486-1.813,2.708,2.708,0,0,0-.5-1.69,1.574,1.574,0,0,0-1.315-.647,1.557,1.557,0,0,0-1.295.639A2.944,2.944,0,0,0,12.375-3.1Zm9.684,1.418a.8.8,0,0,0-.331-.683,3.187,3.187,0,0,0-1.154-.419,5.457,5.457,0,0,1-1.307-.422,1.859,1.859,0,0,1-.715-.586,1.4,1.4,0,0,1-.231-.809,1.645,1.645,0,0,1,.659-1.318,2.574,2.574,0,0,1,1.685-.539,2.649,2.649,0,0,1,1.749.557,1.768,1.768,0,0,1,.671,1.424h-1.09a.979.979,0,0,0-.378-.768,1.416,1.416,0,0,0-.952-.322,1.482,1.482,0,0,0-.926.258.812.812,0,0,0-.334.674.658.658,0,0,0,.311.592,3.821,3.821,0,0,0,1.122.381,5.847,5.847,0,0,1,1.315.434,1.919,1.919,0,0,1,.747.606,1.491,1.491,0,0,1,.243.864A1.623,1.623,0,0,1,22.463-.4,2.851,2.851,0,0,1,20.7.117a3.193,3.193,0,0,1-1.348-.27,2.192,2.192,0,0,1-.917-.753A1.815,1.815,0,0,1,18.1-1.951h1.084a1.122,1.122,0,0,0,.437.864A1.693,1.693,0,0,0,20.7-.768a1.748,1.748,0,0,0,.987-.249A.765.765,0,0,0,22.059-1.682ZM25.793,0H24.709V-6.34h1.084ZM24.621-8.021a.647.647,0,0,1,.161-.445.6.6,0,0,1,.478-.182.614.614,0,0,1,.48.182.64.64,0,0,1,.164.445.619.619,0,0,1-.164.439.626.626,0,0,1-.48.176.616.616,0,0,1-.478-.176A.626.626,0,0,1,24.621-8.021ZM27.24-3.229A3.745,3.745,0,0,1,27.606-4.9a2.732,2.732,0,0,1,1.02-1.148,2.775,2.775,0,0,1,1.491-.4,2.674,2.674,0,0,1,2.095.9,3.449,3.449,0,0,1,.8,2.385V-3.1a3.777,3.777,0,0,1-.354,1.661A2.692,2.692,0,0,1,31.644-.293a2.807,2.807,0,0,1-1.515.41,2.667,2.667,0,0,1-2.089-.9,3.432,3.432,0,0,1-.8-2.373Zm1.09.129a2.712,2.712,0,0,0,.489,1.693,1.566,1.566,0,0,0,1.31.639,1.556,1.556,0,0,0,1.313-.647,2.966,2.966,0,0,0,.486-1.813,2.708,2.708,0,0,0-.5-1.69,1.574,1.574,0,0,0-1.315-.647,1.557,1.557,0,0,0-1.295.639A2.944,2.944,0,0,0,28.33-3.1ZM30.609-9h1.313l-1.57,1.723-.873,0ZM35.4-6.34l.035.8a2.31,2.31,0,0,1,1.9-.914q2.01,0,2.027,2.268V0H38.273V-4.2a1.459,1.459,0,0,0-.313-1.014A1.256,1.256,0,0,0,37-5.537a1.564,1.564,0,0,0-.926.281,1.91,1.91,0,0,0-.621.738V0H34.371V-6.34ZM45.869-1.588,47.346-6.34h1.16L45.957.979q-.592,1.582-1.881,1.582l-.205-.018-.4-.076V1.588l.293.023a1.442,1.442,0,0,0,.858-.223,1.611,1.611,0,0,0,.507-.814l.24-.645L43.1-6.34h1.184Z" transform="translate(338.701 4313.959)"/>
    <rect id="Rectángulo_293485" data-name="Rectángulo 293485" width="1525.168" height="288.116" transform="translate(36.416 4204.961)" fill="none"/>
    <path id="Trazado_616930" data-name="Trazado 616930" d="M.557-3.223a3.714,3.714,0,0,1,.691-2.347,2.186,2.186,0,0,1,1.811-.888A2.2,2.2,0,0,1,4.822-5.7V-9H5.906V0h-1L4.857-.68a2.208,2.208,0,0,1-1.811.8,2.165,2.165,0,0,1-1.8-.9A3.756,3.756,0,0,1,.557-3.141ZM1.641-3.1a2.812,2.812,0,0,0,.445,1.688A1.44,1.44,0,0,0,3.316-.8a1.581,1.581,0,0,0,1.506-.926V-4.641a1.593,1.593,0,0,0-1.494-.9,1.446,1.446,0,0,0-1.242.615A3.1,3.1,0,0,0,1.641-3.1ZM10.159.117a2.77,2.77,0,0,1-2.1-.847,3.142,3.142,0,0,1-.809-2.265v-.2a3.8,3.8,0,0,1,.36-1.685,2.811,2.811,0,0,1,1.008-1.16,2.534,2.534,0,0,1,1.4-.419,2.374,2.374,0,0,1,1.922.814,3.526,3.526,0,0,1,.686,2.332v.451H8.336a2.254,2.254,0,0,0,.548,1.515,1.722,1.722,0,0,0,1.333.577A1.888,1.888,0,0,0,11.19-1a2.444,2.444,0,0,0,.7-.621l.662.516A2.662,2.662,0,0,1,10.159.117Zm-.135-5.684a1.446,1.446,0,0,0-1.1.478A2.321,2.321,0,0,0,8.372-3.75h3.176v-.082a2.065,2.065,0,0,0-.445-1.28A1.361,1.361,0,0,0,10.024-5.566Zm7.493,3.885a.8.8,0,0,0-.331-.683,3.187,3.187,0,0,0-1.154-.419,5.457,5.457,0,0,1-1.307-.422,1.859,1.859,0,0,1-.715-.586,1.4,1.4,0,0,1-.231-.809,1.645,1.645,0,0,1,.659-1.318,2.574,2.574,0,0,1,1.685-.539,2.649,2.649,0,0,1,1.749.557,1.768,1.768,0,0,1,.671,1.424h-1.09a.979.979,0,0,0-.378-.768,1.416,1.416,0,0,0-.952-.322,1.482,1.482,0,0,0-.926.258.812.812,0,0,0-.334.674.658.658,0,0,0,.311.592,3.821,3.821,0,0,0,1.122.381,5.847,5.847,0,0,1,1.315.434,1.919,1.919,0,0,1,.747.606,1.491,1.491,0,0,1,.243.864A1.623,1.623,0,0,1,17.921-.4a2.851,2.851,0,0,1-1.764.513,3.193,3.193,0,0,1-1.348-.27,2.192,2.192,0,0,1-.917-.753,1.815,1.815,0,0,1-.331-1.046h1.084a1.122,1.122,0,0,0,.437.864,1.693,1.693,0,0,0,1.075.319,1.748,1.748,0,0,0,.987-.249A.765.765,0,0,0,17.517-1.682ZM22.7.117a2.77,2.77,0,0,1-2.1-.847A3.142,3.142,0,0,1,19.8-2.994v-.2a3.8,3.8,0,0,1,.36-1.685,2.811,2.811,0,0,1,1.008-1.16,2.534,2.534,0,0,1,1.4-.419,2.374,2.374,0,0,1,1.922.814,3.526,3.526,0,0,1,.686,2.332v.451H20.881a2.254,2.254,0,0,0,.548,1.515,1.722,1.722,0,0,0,1.333.577A1.888,1.888,0,0,0,23.735-1a2.444,2.444,0,0,0,.7-.621l.662.516A2.662,2.662,0,0,1,22.7.117Zm-.135-5.684a1.446,1.446,0,0,0-1.1.478,2.321,2.321,0,0,0-.551,1.339h3.176v-.082a2.065,2.065,0,0,0-.445-1.28A1.361,1.361,0,0,0,22.569-5.566Zm6.866.2a3.248,3.248,0,0,0-.533-.041,1.428,1.428,0,0,0-1.447.908V0H26.37V-6.34h1.055l.018.732a1.688,1.688,0,0,1,1.512-.85,1.107,1.107,0,0,1,.48.082Zm2.688-2.508V-6.34h1.184V-5.5H32.122v3.937a.88.88,0,0,0,.158.572A.666.666,0,0,0,32.82-.8a2.624,2.624,0,0,0,.516-.07V0A3.161,3.161,0,0,1,32.5.117a1.35,1.35,0,0,1-1.1-.439,1.888,1.888,0,0,1-.369-1.248V-5.5H29.884V-6.34h1.154V-7.875ZM35.8,0H34.713V-6.34H35.8ZM34.626-8.021a.647.647,0,0,1,.161-.445.6.6,0,0,1,.478-.182.614.614,0,0,1,.48.182.64.64,0,0,1,.164.445.619.619,0,0,1-.164.439.626.626,0,0,1-.48.176.616.616,0,0,1-.478-.176A.626.626,0,0,1,34.626-8.021ZM37.9,0V-5.5h-1V-6.34h1v-.539A2.2,2.2,0,0,1,38.5-8.531a2.352,2.352,0,0,1,1.714-.592,5.161,5.161,0,0,1,1.658.357l-.182.914A3.756,3.756,0,0,0,40.3-8.145a1.364,1.364,0,0,0-1,.313,1.292,1.292,0,0,0-.308.94v.551H40.28V-5.5H38.985V0Zm4.518,0h-1.09V-6.34h1.09Zm4.367-.768a1.561,1.561,0,0,0,1.014-.352A1.237,1.237,0,0,0,48.273-2H49.3a1.966,1.966,0,0,1-.375,1.037A2.47,2.47,0,0,1,48-.176a2.663,2.663,0,0,1-1.222.293,2.612,2.612,0,0,1-2.06-.864,3.442,3.442,0,0,1-.765-2.364v-.182a3.817,3.817,0,0,1,.34-1.646,2.588,2.588,0,0,1,.976-1.119,2.771,2.771,0,0,1,1.5-.4,2.543,2.543,0,0,1,1.772.639A2.283,2.283,0,0,1,49.3-4.16H48.273a1.494,1.494,0,0,0-.466-1.011,1.449,1.449,0,0,0-1.034-.4,1.517,1.517,0,0,0-1.28.595,2.793,2.793,0,0,0-.454,1.72v.205a2.737,2.737,0,0,0,.451,1.688A1.524,1.524,0,0,0,46.779-.768ZM54.492,0a2.277,2.277,0,0,1-.152-.668,2.419,2.419,0,0,1-1.8.785A2.238,2.238,0,0,1,51-.413a1.716,1.716,0,0,1-.6-1.345A1.792,1.792,0,0,1,51.149-3.3a3.55,3.55,0,0,1,2.118-.548h1.055v-.5a1.217,1.217,0,0,0-.34-.905,1.366,1.366,0,0,0-1-.337,1.581,1.581,0,0,0-.973.293.863.863,0,0,0-.393.709h-1.09a1.5,1.5,0,0,1,.337-.917,2.3,2.3,0,0,1,.914-.7,3.075,3.075,0,0,1,1.269-.258,2.506,2.506,0,0,1,1.717.548A1.976,1.976,0,0,1,55.406-4.4v2.918a3.567,3.567,0,0,0,.223,1.389V0Zm-1.8-.826a1.905,1.905,0,0,0,.967-.264,1.6,1.6,0,0,0,.662-.686v-1.3h-.85q-1.992,0-1.992,1.166a.987.987,0,0,0,.34.8A1.306,1.306,0,0,0,52.693-.826Zm6.9.059A1.561,1.561,0,0,0,60.6-1.119,1.237,1.237,0,0,0,61.082-2h1.025a1.966,1.966,0,0,1-.375,1.037,2.47,2.47,0,0,1-.923.785,2.663,2.663,0,0,1-1.222.293,2.612,2.612,0,0,1-2.06-.864,3.442,3.442,0,0,1-.765-2.364v-.182a3.817,3.817,0,0,1,.34-1.646,2.588,2.588,0,0,1,.976-1.119,2.771,2.771,0,0,1,1.5-.4,2.543,2.543,0,0,1,1.772.639,2.283,2.283,0,0,1,.753,1.658H61.082a1.494,1.494,0,0,0-.466-1.011,1.449,1.449,0,0,0-1.034-.4,1.517,1.517,0,0,0-1.28.595,2.793,2.793,0,0,0-.454,1.72v.205A2.737,2.737,0,0,0,58.3-1.359,1.524,1.524,0,0,0,59.588-.768ZM64.564,0H63.48V-6.34h1.084ZM63.392-8.021a.647.647,0,0,1,.161-.445.6.6,0,0,1,.478-.182.614.614,0,0,1,.48.182.64.64,0,0,1,.164.445.619.619,0,0,1-.164.439.626.626,0,0,1-.48.176.616.616,0,0,1-.478-.176A.626.626,0,0,1,63.392-8.021Zm2.619,4.793A3.745,3.745,0,0,1,66.377-4.9,2.732,2.732,0,0,1,67.4-6.053a2.775,2.775,0,0,1,1.491-.4,2.674,2.674,0,0,1,2.095.9,3.449,3.449,0,0,1,.8,2.385V-3.1a3.777,3.777,0,0,1-.354,1.661A2.692,2.692,0,0,1,70.414-.293,2.807,2.807,0,0,1,68.9.117a2.667,2.667,0,0,1-2.089-.9,3.432,3.432,0,0,1-.8-2.373ZM67.1-3.1a2.712,2.712,0,0,0,.489,1.693,1.566,1.566,0,0,0,1.31.639,1.556,1.556,0,0,0,1.313-.647A2.966,2.966,0,0,0,70.7-3.229a2.708,2.708,0,0,0-.5-1.69,1.574,1.574,0,0,0-1.315-.647,1.557,1.557,0,0,0-1.295.639A2.944,2.944,0,0,0,67.1-3.1ZM69.38-9h1.313l-1.57,1.723-.873,0Zm4.739,2.66.035.8a2.31,2.31,0,0,1,1.9-.914q2.01,0,2.027,2.268V0H77V-4.2a1.459,1.459,0,0,0-.313-1.014,1.256,1.256,0,0,0-.958-.328,1.564,1.564,0,0,0-.926.281,1.91,1.91,0,0,0-.621.738V0H73.094V-6.34Z" transform="translate(322.393 4328.963)"/>
    <rect id="Rectángulo_293486" data-name="Rectángulo 293486" width="1525.168" height="288.116" transform="translate(36.416 4204.961)" fill="none"/>
    <path id="Trazado_616929" data-name="Trazado 616929" d="M7.547,0H6.416V-3.943h-4.3V0H.99V-8.531H2.115v3.668h4.3V-8.531H7.547Zm2.934,0H9.391V-6.34h1.09Zm.012-8.994H11.8l-1.57,1.723-.873,0Zm1.416,5.771A3.714,3.714,0,0,1,12.6-5.569a2.186,2.186,0,0,1,1.811-.888,2.2,2.2,0,0,1,1.764.762V-9h1.084V0h-1l-.053-.68a2.208,2.208,0,0,1-1.811.8,2.165,2.165,0,0,1-1.8-.9,3.756,3.756,0,0,1-.694-2.355Zm1.084.123a2.812,2.812,0,0,0,.445,1.688,1.44,1.44,0,0,0,1.23.609,1.581,1.581,0,0,0,1.506-.926V-4.641a1.593,1.593,0,0,0-1.494-.9,1.446,1.446,0,0,0-1.242.615A3.1,3.1,0,0,0,12.992-3.1Zm8.964-2.268a3.248,3.248,0,0,0-.533-.041,1.428,1.428,0,0,0-1.447.908V0H18.891V-6.34h1.055l.018.732a1.688,1.688,0,0,1,1.512-.85,1.107,1.107,0,0,1,.48.082ZM24.07,0H22.986V-6.34H24.07ZM22.9-8.021a.647.647,0,0,1,.161-.445.6.6,0,0,1,.478-.182.614.614,0,0,1,.48.182.64.64,0,0,1,.164.445.619.619,0,0,1-.164.439.626.626,0,0,1-.48.176.616.616,0,0,1-.478-.176A.626.626,0,0,1,22.9-8.021ZM28.347-.768a1.561,1.561,0,0,0,1.014-.352A1.237,1.237,0,0,0,29.841-2h1.025a1.966,1.966,0,0,1-.375,1.037,2.47,2.47,0,0,1-.923.785,2.663,2.663,0,0,1-1.222.293,2.612,2.612,0,0,1-2.06-.864,3.442,3.442,0,0,1-.765-2.364v-.182a3.817,3.817,0,0,1,.34-1.646,2.588,2.588,0,0,1,.976-1.119,2.771,2.771,0,0,1,1.5-.4,2.543,2.543,0,0,1,1.772.639,2.283,2.283,0,0,1,.753,1.658H29.841a1.494,1.494,0,0,0-.466-1.011,1.449,1.449,0,0,0-1.034-.4,1.517,1.517,0,0,0-1.28.595,2.793,2.793,0,0,0-.454,1.72v.205a2.737,2.737,0,0,0,.451,1.688A1.524,1.524,0,0,0,28.347-.768ZM36.1,0a2.277,2.277,0,0,1-.152-.668,2.419,2.419,0,0,1-1.8.785A2.238,2.238,0,0,1,32.6-.413,1.716,1.716,0,0,1,32-1.758,1.792,1.792,0,0,1,32.753-3.3a3.55,3.55,0,0,1,2.118-.548h1.055v-.5a1.217,1.217,0,0,0-.34-.905,1.366,1.366,0,0,0-1-.337,1.581,1.581,0,0,0-.973.293.863.863,0,0,0-.393.709h-1.09a1.5,1.5,0,0,1,.337-.917,2.3,2.3,0,0,1,.914-.7,3.075,3.075,0,0,1,1.269-.258,2.506,2.506,0,0,1,1.717.548A1.976,1.976,0,0,1,37.009-4.4v2.918a3.567,3.567,0,0,0,.223,1.389V0ZM34.3-.826a1.905,1.905,0,0,0,.967-.264,1.6,1.6,0,0,0,.662-.686v-1.3h-.85q-1.992,0-1.992,1.166a.987.987,0,0,0,.34.8A1.306,1.306,0,0,0,34.3-.826Z" transform="translate(534.892 4291.507)"/>
    <rect id="Rectángulo_293487" data-name="Rectángulo 293487" width="1525.168" height="288.116" transform="translate(36.416 4204.961)" fill="none"/>
    <path id="Trazado_616928" data-name="Trazado 616928" d="M5.813-3.943h-3.7V-.92H6.41V0H.99V-8.531H6.352v.92H2.115v2.748h3.7ZM7.4-3.229A3.745,3.745,0,0,1,7.768-4.9a2.732,2.732,0,0,1,1.02-1.148,2.775,2.775,0,0,1,1.491-.4,2.674,2.674,0,0,1,2.095.9,3.449,3.449,0,0,1,.8,2.385V-3.1a3.777,3.777,0,0,1-.354,1.661A2.692,2.692,0,0,1,11.8-.293a2.807,2.807,0,0,1-1.515.41A2.667,2.667,0,0,1,8.2-.779a3.432,3.432,0,0,1-.8-2.373Zm1.09.129a2.712,2.712,0,0,0,.489,1.693,1.566,1.566,0,0,0,1.31.639A1.556,1.556,0,0,0,11.6-1.415a2.966,2.966,0,0,0,.486-1.813,2.708,2.708,0,0,0-.5-1.69,1.574,1.574,0,0,0-1.315-.647,1.557,1.557,0,0,0-1.295.639A2.944,2.944,0,0,0,8.491-3.1ZM10.771-9h1.313l-1.57,1.723-.873,0Zm4.891,9H14.578V-9h1.084Zm2.912,0H17.49V-6.34h1.084ZM17.4-8.021a.647.647,0,0,1,.161-.445.6.6,0,0,1,.478-.182.614.614,0,0,1,.48.182.64.64,0,0,1,.164.445.619.619,0,0,1-.164.439.626.626,0,0,1-.48.176.616.616,0,0,1-.478-.176A.626.626,0,0,1,17.4-8.021ZM22.876-.768a1.561,1.561,0,0,0,1.014-.352A1.237,1.237,0,0,0,24.37-2H25.4A1.966,1.966,0,0,1,25.02-.961a2.47,2.47,0,0,1-.923.785,2.663,2.663,0,0,1-1.222.293,2.612,2.612,0,0,1-2.06-.864,3.442,3.442,0,0,1-.765-2.364v-.182a3.817,3.817,0,0,1,.34-1.646,2.588,2.588,0,0,1,.976-1.119,2.771,2.771,0,0,1,1.5-.4,2.543,2.543,0,0,1,1.772.639A2.283,2.283,0,0,1,25.4-4.16H24.37A1.494,1.494,0,0,0,23.9-5.171a1.449,1.449,0,0,0-1.034-.4,1.517,1.517,0,0,0-1.28.595,2.793,2.793,0,0,0-.454,1.72v.205a2.737,2.737,0,0,0,.451,1.688A1.524,1.524,0,0,0,22.876-.768ZM30.588,0a2.277,2.277,0,0,1-.152-.668,2.419,2.419,0,0,1-1.8.785,2.238,2.238,0,0,1-1.538-.53,1.716,1.716,0,0,1-.6-1.345A1.792,1.792,0,0,1,27.245-3.3a3.55,3.55,0,0,1,2.118-.548h1.055v-.5a1.217,1.217,0,0,0-.34-.905,1.366,1.366,0,0,0-1-.337,1.581,1.581,0,0,0-.973.293.863.863,0,0,0-.393.709h-1.09a1.5,1.5,0,0,1,.337-.917,2.3,2.3,0,0,1,.914-.7,3.075,3.075,0,0,1,1.269-.258,2.506,2.506,0,0,1,1.717.548A1.976,1.976,0,0,1,31.5-4.4v2.918a3.567,3.567,0,0,0,.223,1.389V0Zm-1.8-.826a1.905,1.905,0,0,0,.967-.264,1.6,1.6,0,0,0,.662-.686v-1.3h-.85q-1.992,0-1.992,1.166a.987.987,0,0,0,.34.8A1.306,1.306,0,0,0,28.789-.826Z" transform="translate(537.936 4353.068)"/>
    <rect id="Rectángulo_293488" data-name="Rectángulo 293488" width="1525.168" height="288.116" transform="translate(36.416 4204.961)" fill="none"/>
    <path id="Trazado_616932" data-name="Trazado 616932" d="M5.813-3.943h-3.7V-.92H6.41V0H.99V-8.531H6.352v.92H2.115v2.748h3.7Zm2.9-2.4.035.8a2.31,2.31,0,0,1,1.9-.914q2.01,0,2.027,2.268V0H11.591V-4.2a1.459,1.459,0,0,0-.313-1.014,1.256,1.256,0,0,0-.958-.328,1.564,1.564,0,0,0-.926.281,1.91,1.91,0,0,0-.621.738V0H7.689V-6.34ZM14-3.223a3.714,3.714,0,0,1,.691-2.347A2.186,2.186,0,0,1,16.5-6.457a2.2,2.2,0,0,1,1.764.762V-9h1.084V0h-1L18.3-.68a2.208,2.208,0,0,1-1.811.8,2.165,2.165,0,0,1-1.8-.9A3.756,3.756,0,0,1,14-3.141Zm1.084.123a2.812,2.812,0,0,0,.445,1.688,1.44,1.44,0,0,0,1.23.609,1.581,1.581,0,0,0,1.506-.926V-4.641a1.593,1.593,0,0,0-1.494-.9,1.446,1.446,0,0,0-1.242.615A3.1,3.1,0,0,0,15.082-3.1ZM24.9-.627a2.3,2.3,0,0,1-1.857.744,1.971,1.971,0,0,1-1.544-.589,2.549,2.549,0,0,1-.536-1.743V-6.34h1.084v4.1Q22.042-.8,23.214-.8a1.623,1.623,0,0,0,1.652-.926V-6.34H25.95V0H24.919Zm5.718-4.74a3.248,3.248,0,0,0-.533-.041,1.428,1.428,0,0,0-1.447.908V0H27.549V-6.34H28.6l.018.732a1.688,1.688,0,0,1,1.512-.85,1.107,1.107,0,0,1,.48.082ZM34.18.117a2.77,2.77,0,0,1-2.1-.847,3.142,3.142,0,0,1-.809-2.265v-.2a3.8,3.8,0,0,1,.36-1.685,2.811,2.811,0,0,1,1.008-1.16,2.534,2.534,0,0,1,1.4-.419,2.374,2.374,0,0,1,1.922.814,3.526,3.526,0,0,1,.686,2.332v.451H32.358a2.254,2.254,0,0,0,.548,1.515,1.722,1.722,0,0,0,1.333.577A1.888,1.888,0,0,0,35.211-1a2.444,2.444,0,0,0,.7-.621l.662.516A2.662,2.662,0,0,1,34.18.117Zm-.135-5.684a1.446,1.446,0,0,0-1.1.478,2.321,2.321,0,0,0-.551,1.339h3.176v-.082a2.065,2.065,0,0,0-.445-1.28A1.361,1.361,0,0,0,34.045-5.566ZM40.4-.768a1.561,1.561,0,0,0,1.014-.352A1.237,1.237,0,0,0,41.9-2h1.025a1.966,1.966,0,0,1-.375,1.037,2.47,2.47,0,0,1-.923.785A2.663,2.663,0,0,1,40.4.117a2.612,2.612,0,0,1-2.06-.864,3.442,3.442,0,0,1-.765-2.364v-.182a3.817,3.817,0,0,1,.34-1.646,2.588,2.588,0,0,1,.976-1.119,2.771,2.771,0,0,1,1.5-.4,2.543,2.543,0,0,1,1.772.639,2.283,2.283,0,0,1,.753,1.658H41.9a1.494,1.494,0,0,0-.466-1.011,1.449,1.449,0,0,0-1.034-.4,1.517,1.517,0,0,0-1.28.595,2.793,2.793,0,0,0-.454,1.72v.205a2.737,2.737,0,0,0,.451,1.688A1.524,1.524,0,0,0,40.4-.768ZM45.377,0H44.294V-6.34h1.084ZM44.206-8.021a.647.647,0,0,1,.161-.445.6.6,0,0,1,.478-.182.614.614,0,0,1,.48.182.64.64,0,0,1,.164.445.619.619,0,0,1-.164.439.626.626,0,0,1-.48.176.616.616,0,0,1-.478-.176A.626.626,0,0,1,44.206-8.021ZM48.131-6.34l.029.7a2.341,2.341,0,0,1,1.881-.82,1.813,1.813,0,0,1,1.811,1.02,2.4,2.4,0,0,1,.823-.738,2.431,2.431,0,0,1,1.2-.281q2.086,0,2.121,2.209V0H54.911V-4.184A1.456,1.456,0,0,0,54.6-5.2a1.368,1.368,0,0,0-1.043-.337,1.437,1.437,0,0,0-1,.36,1.462,1.462,0,0,0-.463.97V0H51V-4.154a1.209,1.209,0,0,0-1.354-1.383,1.45,1.45,0,0,0-1.459.908V0H47.106V-6.34ZM59.023,0H57.939V-6.34h1.084ZM57.851-8.021a.647.647,0,0,1,.161-.445.6.6,0,0,1,.478-.182.614.614,0,0,1,.48.182.64.64,0,0,1,.164.445.619.619,0,0,1-.164.439.626.626,0,0,1-.48.176.616.616,0,0,1-.478-.176A.626.626,0,0,1,57.851-8.021ZM63.388.117a2.77,2.77,0,0,1-2.1-.847,3.142,3.142,0,0,1-.809-2.265v-.2a3.8,3.8,0,0,1,.36-1.685,2.811,2.811,0,0,1,1.008-1.16,2.534,2.534,0,0,1,1.4-.419,2.374,2.374,0,0,1,1.922.814,3.526,3.526,0,0,1,.686,2.332v.451H61.566a2.254,2.254,0,0,0,.548,1.515,1.722,1.722,0,0,0,1.333.577A1.888,1.888,0,0,0,64.42-1a2.444,2.444,0,0,0,.7-.621l.662.516A2.662,2.662,0,0,1,63.388.117Zm-.135-5.684a1.446,1.446,0,0,0-1.1.478A2.321,2.321,0,0,0,61.6-3.75h3.176v-.082a2.065,2.065,0,0,0-.445-1.28A1.361,1.361,0,0,0,63.254-5.566ZM68.14-6.34l.035.8a2.31,2.31,0,0,1,1.9-.914q2.01,0,2.027,2.268V0H71.017V-4.2A1.459,1.459,0,0,0,70.7-5.209a1.256,1.256,0,0,0-.958-.328,1.564,1.564,0,0,0-.926.281,1.91,1.91,0,0,0-.621.738V0H67.115V-6.34Zm6.994-1.535V-6.34h1.184V-5.5H75.135v3.937a.88.88,0,0,0,.158.572.666.666,0,0,0,.539.191,2.624,2.624,0,0,0,.516-.07V0a3.161,3.161,0,0,1-.832.116,1.35,1.35,0,0,1-1.1-.439,1.888,1.888,0,0,1-.369-1.248V-5.5H72.9V-6.34h1.154V-7.875Zm2.1,4.646A3.745,3.745,0,0,1,77.606-4.9a2.732,2.732,0,0,1,1.02-1.148,2.775,2.775,0,0,1,1.491-.4,2.674,2.674,0,0,1,2.095.9,3.449,3.449,0,0,1,.8,2.385V-3.1a3.777,3.777,0,0,1-.354,1.661A2.692,2.692,0,0,1,81.643-.293a2.807,2.807,0,0,1-1.515.41,2.667,2.667,0,0,1-2.089-.9,3.432,3.432,0,0,1-.8-2.373Zm1.09.129a2.712,2.712,0,0,0,.489,1.693,1.566,1.566,0,0,0,1.31.639,1.556,1.556,0,0,0,1.313-.647,2.966,2.966,0,0,0,.486-1.813,2.708,2.708,0,0,0-.5-1.69,1.574,1.574,0,0,0-1.315-.647,1.557,1.557,0,0,0-1.295.639A2.944,2.944,0,0,0,78.33-3.1Z" transform="translate(318.261 4381.404)"/>
    <rect id="Rectángulo_293489" data-name="Rectángulo 293489" width="1525.168" height="288.116" transform="translate(36.416 4204.961)" fill="none"/>
    <path id="Trazado_616619" data-name="Trazado 616619" d="M471.491,156.7H486.64v57.732h15.149" transform="translate(418.946 4228.309)" fill="none" stroke="#148d80" stroke-miterlimit="10" stroke-width="2" opacity="0.8" style="isolation: isolate"/>
    <line id="Línea_356" data-name="Línea 356" x2="30.298" transform="translate(890.437 4385.006)" fill="none" stroke="#148d80" stroke-miterlimit="10" stroke-width="2" opacity="0.8" style="isolation: isolate"/>
    <path id="Trazado_616620" data-name="Trazado 616620" d="M471.491,179.118H486.64V121.386h15.149" transform="translate(418.946 4205.889)" fill="none" stroke="#148d80" stroke-miterlimit="10" stroke-width="2" opacity="0.8" style="isolation: isolate"/>
    <path id="Trazado_616621" data-name="Trazado 616621" d="M360.237,139.041h15.221v28.866H390.68" transform="translate(348.306 4217.099)" fill="none" stroke="#148d80" stroke-miterlimit="10" stroke-width="2" opacity="0.8" style="isolation: isolate"/>
    <path id="Trazado_616622" data-name="Trazado 616622" d="M360.237,150.252h15.221V121.386H390.68" transform="translate(348.306 4205.889)" fill="none" stroke="#148d80" stroke-miterlimit="10" stroke-width="2" opacity="0.8" style="isolation: isolate"/>
    <rect id="Rectángulo_293490" data-name="Rectángulo 293490" width="1525.168" height="288.116" transform="translate(36.416 4204.961)" fill="none"/>
    <rect id="Rectángulo_293491" data-name="Rectángulo 293491" width="1525.168" height="288.116" transform="translate(36.416 4204.961)" fill="none"/>
    <path id="Trazado_616927" data-name="Trazado 616927" d="M10.008-5.32a7.026,7.026,0,0,1-.523,2.84A4.388,4.388,0,0,1,8.016-.617L10.047.977l-1.023.945L6.625.016A4.88,4.88,0,0,1,5.438.156,4.347,4.347,0,0,1,3.055-.5,4.363,4.363,0,0,1,1.441-2.387a6.752,6.752,0,0,1-.59-2.832v-.82a6.953,6.953,0,0,1,.57-2.9,4.347,4.347,0,0,1,1.613-1.926,4.329,4.329,0,0,1,2.387-.668,4.4,4.4,0,0,1,2.418.664,4.284,4.284,0,0,1,1.605,1.91,7.016,7.016,0,0,1,.563,2.91Zm-1.5-.734a5.162,5.162,0,0,0-.8-3.1,2.666,2.666,0,0,0-2.285-1.09A2.643,2.643,0,0,0,3.191-9.16a5,5,0,0,0-.84,3v.836a5.147,5.147,0,0,0,.816,3.078,2.646,2.646,0,0,0,2.27,1.125,2.652,2.652,0,0,0,2.25-1.059,5.079,5.079,0,0,0,.82-3.035Zm11.884-5.32v7.734A3.628,3.628,0,0,1,19.38-1.008,4.077,4.077,0,0,1,16.658.141l-.4.016A4.258,4.258,0,0,1,13.283-.852a3.6,3.6,0,0,1-1.125-2.773v-7.75h1.484v7.7a2.6,2.6,0,0,0,.68,1.918,2.612,2.612,0,0,0,1.937.684,2.63,2.63,0,0,0,1.949-.68,2.6,2.6,0,0,0,.676-1.914v-7.711ZM24.369,0h-1.5V-11.375h1.5Zm-.047-14.516h1.75l-2.094,2.3-1.164,0Zm4.727,3.141,3.719,9.281,3.719-9.281h1.945V0h-1.5V-4.43l.141-4.781L33.337,0H32.189L28.462-9.187l.148,4.758V0h-1.5V-11.375ZM43.009,0h-1.5V-11.375h1.5ZM54.118-3.609A4.185,4.185,0,0,1,52.786-.824a4.365,4.365,0,0,1-2.98.98,4.008,4.008,0,0,1-3.23-1.445,5.815,5.815,0,0,1-1.215-3.867V-6.25a6.481,6.481,0,0,1,.566-2.789,4.231,4.231,0,0,1,1.605-1.848,4.47,4.47,0,0,1,2.406-.645,4.11,4.11,0,0,1,2.906,1.012,4.235,4.235,0,0,1,1.273,2.8H52.611a3.268,3.268,0,0,0-.848-1.975,2.565,2.565,0,0,0-1.824-.611,2.684,2.684,0,0,0-2.254,1.063,4.882,4.882,0,0,0-.816,3.026v1.1a5.018,5.018,0,0,0,.773,2.948A2.5,2.5,0,0,0,49.806-1.07a2.887,2.887,0,0,0,1.918-.566,3.143,3.143,0,0,0,.887-1.973Zm8.328.633H57.681L56.611,0H55.064l4.344-11.375H60.72L65.072,0H63.532ZM58.134-4.2H62l-1.937-5.32Z" transform="translate(689.833 4395.319) rotate(-90)"/>
    <rect id="Rectángulo_293492" data-name="Rectángulo 293492" width="1525.168" height="288.116" transform="translate(36.416 4204.961)" fill="none"/>
    <path id="Trazado_616926" data-name="Trazado 616926" d="M.99,0V-8.531H3.4a3.877,3.877,0,0,1,1.969.492,3.329,3.329,0,0,1,1.321,1.4A4.558,4.558,0,0,1,7.16-4.553v.545a4.574,4.574,0,0,1-.466,2.115A3.277,3.277,0,0,1,5.364-.5,4.124,4.124,0,0,1,3.352,0ZM2.115-7.611V-.92H3.3a2.575,2.575,0,0,0,2.024-.809,3.344,3.344,0,0,0,.724-2.3v-.5a3.4,3.4,0,0,0-.683-2.261,2.429,2.429,0,0,0-1.937-.818ZM9.771,0H8.687V-6.34H9.771ZM8.6-8.021a.647.647,0,0,1,.161-.445.6.6,0,0,1,.478-.182.614.614,0,0,1,.48.182.64.64,0,0,1,.164.445.619.619,0,0,1-.164.439.626.626,0,0,1-.48.176.616.616,0,0,1-.478-.176A.626.626,0,0,1,8.6-8.021Zm6.6,6.34a.8.8,0,0,0-.331-.683,3.187,3.187,0,0,0-1.154-.419A5.457,5.457,0,0,1,12.4-3.205a1.859,1.859,0,0,1-.715-.586,1.4,1.4,0,0,1-.231-.809,1.645,1.645,0,0,1,.659-1.318A2.574,2.574,0,0,1,13.8-6.457a2.649,2.649,0,0,1,1.749.557,1.768,1.768,0,0,1,.671,1.424h-1.09a.979.979,0,0,0-.378-.768,1.416,1.416,0,0,0-.952-.322,1.482,1.482,0,0,0-.926.258.812.812,0,0,0-.334.674.658.658,0,0,0,.311.592,3.821,3.821,0,0,0,1.122.381,5.847,5.847,0,0,1,1.315.434,1.919,1.919,0,0,1,.747.606,1.491,1.491,0,0,1,.243.864A1.623,1.623,0,0,1,15.6-.4a2.851,2.851,0,0,1-1.764.513,3.193,3.193,0,0,1-1.348-.27,2.192,2.192,0,0,1-.917-.753,1.815,1.815,0,0,1-.331-1.046h1.084a1.122,1.122,0,0,0,.437.864,1.693,1.693,0,0,0,1.075.319,1.748,1.748,0,0,0,.987-.249A.765.765,0,0,0,15.2-1.682ZM18.773-6.34l.029.7a2.341,2.341,0,0,1,1.881-.82,1.813,1.813,0,0,1,1.811,1.02,2.4,2.4,0,0,1,.823-.738,2.431,2.431,0,0,1,1.2-.281q2.086,0,2.121,2.209V0H25.552V-4.184A1.456,1.456,0,0,0,25.241-5.2,1.368,1.368,0,0,0,24.2-5.537a1.437,1.437,0,0,0-1,.36,1.462,1.462,0,0,0-.463.97V0h-1.09V-4.154A1.209,1.209,0,0,0,20.29-5.537a1.45,1.45,0,0,0-1.459.908V0H17.747V-6.34ZM29.6,0H28.52V-6.34H29.6ZM28.432-8.021a.647.647,0,0,1,.161-.445.6.6,0,0,1,.478-.182.614.614,0,0,1,.48.182.64.64,0,0,1,.164.445.619.619,0,0,1-.164.439.626.626,0,0,1-.48.176.616.616,0,0,1-.478-.176A.626.626,0,0,1,28.432-8.021ZM32.364-6.34l.035.8a2.31,2.31,0,0,1,1.9-.914q2.01,0,2.027,2.268V0H35.241V-4.2a1.459,1.459,0,0,0-.313-1.014,1.256,1.256,0,0,0-.958-.328,1.564,1.564,0,0,0-.926.281,1.91,1.91,0,0,0-.621.738V0H31.339V-6.34ZM41.826-.627a2.3,2.3,0,0,1-1.857.744,1.971,1.971,0,0,1-1.544-.589,2.549,2.549,0,0,1-.536-1.743V-6.34h1.084v4.1Q38.972-.8,40.144-.8A1.623,1.623,0,0,0,41.8-1.729V-6.34h1.084V0H41.849ZM47.01-.768a1.561,1.561,0,0,0,1.014-.352A1.237,1.237,0,0,0,48.5-2H49.53a1.966,1.966,0,0,1-.375,1.037,2.47,2.47,0,0,1-.923.785A2.663,2.663,0,0,1,47.01.117a2.612,2.612,0,0,1-2.06-.864,3.442,3.442,0,0,1-.765-2.364v-.182a3.817,3.817,0,0,1,.34-1.646A2.588,2.588,0,0,1,45.5-6.059a2.771,2.771,0,0,1,1.5-.4,2.543,2.543,0,0,1,1.772.639A2.283,2.283,0,0,1,49.53-4.16H48.5a1.494,1.494,0,0,0-.466-1.011A1.449,1.449,0,0,0,47-5.566a1.517,1.517,0,0,0-1.28.595,2.793,2.793,0,0,0-.454,1.72v.205a2.737,2.737,0,0,0,.451,1.688A1.524,1.524,0,0,0,47.01-.768ZM51.986,0H50.9V-6.34h1.084ZM50.814-8.021a.647.647,0,0,1,.161-.445.6.6,0,0,1,.478-.182.614.614,0,0,1,.48.182.64.64,0,0,1,.164.445.619.619,0,0,1-.164.439.626.626,0,0,1-.48.176.616.616,0,0,1-.478-.176A.626.626,0,0,1,50.814-8.021Zm2.619,4.793A3.745,3.745,0,0,1,53.8-4.9a2.732,2.732,0,0,1,1.02-1.148,2.775,2.775,0,0,1,1.491-.4,2.674,2.674,0,0,1,2.095.9,3.449,3.449,0,0,1,.8,2.385V-3.1a3.777,3.777,0,0,1-.354,1.661A2.692,2.692,0,0,1,57.837-.293a2.807,2.807,0,0,1-1.515.41,2.667,2.667,0,0,1-2.089-.9,3.432,3.432,0,0,1-.8-2.373Zm1.09.129a2.712,2.712,0,0,0,.489,1.693,1.566,1.566,0,0,0,1.31.639,1.556,1.556,0,0,0,1.313-.647,2.966,2.966,0,0,0,.486-1.813,2.708,2.708,0,0,0-.5-1.69,1.574,1.574,0,0,0-1.315-.647,1.557,1.557,0,0,0-1.295.639A2.944,2.944,0,0,0,54.523-3.1ZM56.8-9h1.313l-1.57,1.723-.873,0Zm4.739,2.66.035.8a2.31,2.31,0,0,1,1.9-.914q2.01,0,2.027,2.268V0H64.419V-4.2a1.459,1.459,0,0,0-.313-1.014,1.256,1.256,0,0,0-.958-.328,1.564,1.564,0,0,0-.926.281,1.91,1.91,0,0,0-.621.738V0H60.516V-6.34Zm7.775,3.117a3.714,3.714,0,0,1,.691-2.347,2.186,2.186,0,0,1,1.811-.888,2.2,2.2,0,0,1,1.764.762V-9h1.084V0h-1l-.053-.68a2.208,2.208,0,0,1-1.811.8,2.165,2.165,0,0,1-1.8-.9,3.756,3.756,0,0,1-.694-2.355ZM70.4-3.1a2.812,2.812,0,0,0,.445,1.688,1.44,1.44,0,0,0,1.23.609,1.581,1.581,0,0,0,1.506-.926V-4.641a1.593,1.593,0,0,0-1.494-.9,1.446,1.446,0,0,0-1.242.615A3.1,3.1,0,0,0,70.4-3.1ZM78.918.117a2.77,2.77,0,0,1-2.1-.847,3.142,3.142,0,0,1-.809-2.265v-.2a3.8,3.8,0,0,1,.36-1.685,2.811,2.811,0,0,1,1.008-1.16,2.534,2.534,0,0,1,1.4-.419,2.374,2.374,0,0,1,1.922.814,3.526,3.526,0,0,1,.686,2.332v.451H77.1a2.254,2.254,0,0,0,.548,1.515,1.722,1.722,0,0,0,1.333.577A1.888,1.888,0,0,0,79.95-1a2.444,2.444,0,0,0,.7-.621l.662.516A2.662,2.662,0,0,1,78.918.117Zm-.135-5.684a1.446,1.446,0,0,0-1.1.478,2.321,2.321,0,0,0-.551,1.339h3.176v-.082a2.065,2.065,0,0,0-.445-1.28A1.361,1.361,0,0,0,78.784-5.566Z" transform="translate(765.259 4322.224)"/>
    <rect id="Rectángulo_293493" data-name="Rectángulo 293493" width="1525.168" height="288.116" transform="translate(36.416 4204.961)" fill="none"/>
    <text id="fertilidad" transform="translate(787.22 4337.262)" font-size="12" font-family="Roboto-Regular, Roboto"><tspan x="0" y="0" letter-spacing="0.005em">f</tspan><tspan y="0" letter-spacing="-0.004em">e</tspan><tspan y="0" letter-spacing="-0.005em">r</tspan><tspan y="0" letter-spacing="0.005em">t</tspan><tspan y="0">i</tspan><tspan y="0" letter-spacing="0.002em">l</tspan><tspan y="0">id</tspan><tspan y="0" letter-spacing="-0.006em">a</tspan><tspan y="0">d</tspan></text>
    <rect id="Rectángulo_293494" data-name="Rectángulo 293494" width="1525.168" height="288.116" transform="translate(36.416 4204.961)" fill="none"/>
    <text id="Desequilibrio_" data-name="Desequilibrio " transform="translate(772.87 4379.972)" font-size="12" font-family="Roboto-Regular, Roboto"><tspan x="0" y="0" letter-spacing="-0.006em">D</tspan><tspan y="0" letter-spacing="-0.004em">e</tspan><tspan y="0" letter-spacing="0.005em">s</tspan><tspan y="0" letter-spacing="-0.004em">equ</tspan><tspan y="0">i</tspan><tspan y="0" letter-spacing="0.002em">l</tspan><tspan y="0">ib</tspan><tspan y="0" letter-spacing="-0.007em">r</tspan><tspan y="0">io </tspan></text>
    <rect id="Rectángulo_293495" data-name="Rectángulo 293495" width="1525.168" height="288.116" transform="translate(36.416 4204.961)" fill="none"/>
    <path id="Trazado_616925" data-name="Trazado 616925" d="M3.451.117a2.77,2.77,0,0,1-2.1-.847A3.142,3.142,0,0,1,.545-2.994v-.2a3.8,3.8,0,0,1,.36-1.685,2.811,2.811,0,0,1,1.008-1.16,2.534,2.534,0,0,1,1.4-.419,2.374,2.374,0,0,1,1.922.814,3.526,3.526,0,0,1,.686,2.332v.451H1.629a2.254,2.254,0,0,0,.548,1.515A1.722,1.722,0,0,0,3.51-.768,1.888,1.888,0,0,0,4.482-1a2.444,2.444,0,0,0,.7-.621l.662.516A2.662,2.662,0,0,1,3.451.117ZM3.316-5.566a1.446,1.446,0,0,0-1.1.478A2.321,2.321,0,0,0,1.664-3.75H4.84v-.082a2.065,2.065,0,0,0-.445-1.28A1.361,1.361,0,0,0,3.316-5.566ZM8.307,0H7.223V-9H8.307Zm4.365.117a2.77,2.77,0,0,1-2.1-.847,3.142,3.142,0,0,1-.809-2.265v-.2a3.8,3.8,0,0,1,.36-1.685,2.811,2.811,0,0,1,1.008-1.16,2.534,2.534,0,0,1,1.4-.419,2.374,2.374,0,0,1,1.922.814,3.526,3.526,0,0,1,.686,2.332v.451H10.85A2.254,2.254,0,0,0,11.4-1.345a1.722,1.722,0,0,0,1.333.577A1.888,1.888,0,0,0,13.7-1a2.444,2.444,0,0,0,.7-.621l.662.516A2.662,2.662,0,0,1,12.673.117Zm-.135-5.684a1.446,1.446,0,0,0-1.1.478,2.321,2.321,0,0,0-.551,1.339h3.176v-.082a2.065,2.065,0,0,0-.445-1.28A1.361,1.361,0,0,0,12.538-5.566Zm4.881-.773.029.7a2.341,2.341,0,0,1,1.881-.82,1.813,1.813,0,0,1,1.811,1.02,2.4,2.4,0,0,1,.823-.738,2.431,2.431,0,0,1,1.2-.281q2.086,0,2.121,2.209V0H24.2V-4.184A1.456,1.456,0,0,0,23.888-5.2a1.368,1.368,0,0,0-1.043-.337,1.437,1.437,0,0,0-1,.36,1.462,1.462,0,0,0-.463.97V0H20.29V-4.154a1.209,1.209,0,0,0-1.354-1.383,1.45,1.45,0,0,0-1.459.908V0H16.393V-6.34ZM29.716.117a2.77,2.77,0,0,1-2.1-.847,3.142,3.142,0,0,1-.809-2.265v-.2a3.8,3.8,0,0,1,.36-1.685,2.811,2.811,0,0,1,1.008-1.16,2.534,2.534,0,0,1,1.4-.419,2.374,2.374,0,0,1,1.922.814,3.526,3.526,0,0,1,.686,2.332v.451H27.893a2.254,2.254,0,0,0,.548,1.515,1.722,1.722,0,0,0,1.333.577A1.888,1.888,0,0,0,30.747-1a2.444,2.444,0,0,0,.7-.621l.662.516A2.662,2.662,0,0,1,29.716.117Zm-.135-5.684a1.446,1.446,0,0,0-1.1.478,2.321,2.321,0,0,0-.551,1.339H31.1v-.082a2.065,2.065,0,0,0-.445-1.28A1.361,1.361,0,0,0,29.581-5.566ZM34.42-6.34l.035.8a2.31,2.31,0,0,1,1.9-.914q2.01,0,2.027,2.268V0H37.3V-4.2a1.459,1.459,0,0,0-.313-1.014,1.256,1.256,0,0,0-.958-.328,1.564,1.564,0,0,0-.926.281,1.91,1.91,0,0,0-.621.738V0H33.394V-6.34Zm7.018-1.535V-6.34h1.184V-5.5H41.438v3.937a.88.88,0,0,0,.158.572.666.666,0,0,0,.539.191,2.624,2.624,0,0,0,.516-.07V0a3.161,3.161,0,0,1-.832.116,1.35,1.35,0,0,1-1.1-.439,1.888,1.888,0,0,1-.369-1.248V-5.5H39.2V-6.34h1.154V-7.875ZM47.861,0a2.277,2.277,0,0,1-.152-.668,2.419,2.419,0,0,1-1.8.785,2.238,2.238,0,0,1-1.538-.53,1.716,1.716,0,0,1-.6-1.345A1.792,1.792,0,0,1,44.519-3.3a3.55,3.55,0,0,1,2.118-.548h1.055v-.5a1.217,1.217,0,0,0-.34-.905,1.366,1.366,0,0,0-1-.337,1.581,1.581,0,0,0-.973.293.863.863,0,0,0-.393.709h-1.09a1.5,1.5,0,0,1,.337-.917,2.3,2.3,0,0,1,.914-.7,3.075,3.075,0,0,1,1.269-.258,2.506,2.506,0,0,1,1.717.548A1.976,1.976,0,0,1,48.775-4.4v2.918A3.567,3.567,0,0,0,49-.094V0Zm-1.8-.826a1.905,1.905,0,0,0,.967-.264,1.6,1.6,0,0,0,.662-.686v-1.3h-.85q-1.992,0-1.992,1.166a.987.987,0,0,0,.34.8A1.306,1.306,0,0,0,46.063-.826ZM51.6,0H50.52V-9H51.6Z" transform="translate(783.09 4394.976)"/>
    <rect id="Rectángulo_293496" data-name="Rectángulo 293496" width="1525.168" height="288.116" transform="translate(36.416 4204.961)" fill="none"/>
    <path id="Trazado_616922" data-name="Trazado 616922" d="M5.7-2.232H2.127L1.324,0H.164L3.422-8.531h.984L7.67,0H6.516Zm-3.234-.92h2.9L3.914-7.143ZM11.239-.768a1.561,1.561,0,0,0,1.014-.352A1.237,1.237,0,0,0,12.734-2h1.025a1.966,1.966,0,0,1-.375,1.037,2.47,2.47,0,0,1-.923.785,2.663,2.663,0,0,1-1.222.293A2.612,2.612,0,0,1,9.18-.747a3.442,3.442,0,0,1-.765-2.364v-.182a3.817,3.817,0,0,1,.34-1.646,2.588,2.588,0,0,1,.976-1.119,2.771,2.771,0,0,1,1.5-.4,2.543,2.543,0,0,1,1.772.639,2.283,2.283,0,0,1,.753,1.658H12.734a1.494,1.494,0,0,0-.466-1.011,1.449,1.449,0,0,0-1.034-.4,1.517,1.517,0,0,0-1.28.595A2.793,2.793,0,0,0,9.5-3.252v.205A2.737,2.737,0,0,0,9.95-1.359,1.524,1.524,0,0,0,11.239-.768ZM16.215,0H15.131V-6.34h1.084ZM15.044-8.021a.647.647,0,0,1,.161-.445.6.6,0,0,1,.478-.182.614.614,0,0,1,.48.182.64.64,0,0,1,.164.445.619.619,0,0,1-.164.439.626.626,0,0,1-.48.176.616.616,0,0,1-.478-.176A.626.626,0,0,1,15.044-8.021Zm2.643,4.8a3.714,3.714,0,0,1,.691-2.347,2.186,2.186,0,0,1,1.811-.888,2.2,2.2,0,0,1,1.764.762V-9h1.084V0h-1l-.053-.68a2.208,2.208,0,0,1-1.811.8,2.165,2.165,0,0,1-1.8-.9,3.756,3.756,0,0,1-.694-2.355ZM18.77-3.1a2.812,2.812,0,0,0,.445,1.688,1.44,1.44,0,0,0,1.23.609,1.581,1.581,0,0,0,1.506-.926V-4.641a1.593,1.593,0,0,0-1.494-.9,1.446,1.446,0,0,0-1.242.615A3.1,3.1,0,0,0,18.77-3.1ZM25.9,0H24.811V-6.34H25.9ZM24.723-8.021a.647.647,0,0,1,.161-.445.6.6,0,0,1,.478-.182.614.614,0,0,1,.48.182.64.64,0,0,1,.164.445.619.619,0,0,1-.164.439.626.626,0,0,1-.48.176.616.616,0,0,1-.478-.176A.626.626,0,0,1,24.723-8.021ZM27.993,0V-5.5h-1V-6.34h1v-.539A2.2,2.2,0,0,1,28.6-8.531a2.352,2.352,0,0,1,1.714-.592,5.161,5.161,0,0,1,1.658.357l-.182.914A3.756,3.756,0,0,0,30.4-8.145a1.364,1.364,0,0,0-1,.313,1.292,1.292,0,0,0-.308.94v.551h1.295V-5.5H29.083V0ZM32.51,0H31.42V-6.34h1.09Zm4.367-.768a1.561,1.561,0,0,0,1.014-.352A1.237,1.237,0,0,0,38.371-2H39.4a1.966,1.966,0,0,1-.375,1.037,2.47,2.47,0,0,1-.923.785,2.663,2.663,0,0,1-1.222.293,2.612,2.612,0,0,1-2.06-.864,3.442,3.442,0,0,1-.765-2.364v-.182a3.817,3.817,0,0,1,.34-1.646,2.588,2.588,0,0,1,.976-1.119,2.771,2.771,0,0,1,1.5-.4,2.543,2.543,0,0,1,1.772.639A2.283,2.283,0,0,1,39.4-4.16H38.371a1.494,1.494,0,0,0-.466-1.011,1.449,1.449,0,0,0-1.034-.4,1.517,1.517,0,0,0-1.28.595,2.793,2.793,0,0,0-.454,1.72v.205a2.737,2.737,0,0,0,.451,1.688A1.524,1.524,0,0,0,36.877-.768ZM44.625,0a2.277,2.277,0,0,1-.152-.668,2.419,2.419,0,0,1-1.8.785,2.238,2.238,0,0,1-1.538-.53,1.716,1.716,0,0,1-.6-1.345A1.792,1.792,0,0,1,41.283-3.3,3.55,3.55,0,0,1,43.4-3.844h1.055v-.5a1.217,1.217,0,0,0-.34-.905,1.366,1.366,0,0,0-1-.337,1.581,1.581,0,0,0-.973.293.863.863,0,0,0-.393.709h-1.09A1.5,1.5,0,0,1,41-5.5a2.3,2.3,0,0,1,.914-.7,3.075,3.075,0,0,1,1.269-.258,2.506,2.506,0,0,1,1.717.548A1.976,1.976,0,0,1,45.539-4.4v2.918a3.567,3.567,0,0,0,.223,1.389V0Zm-1.8-.826a1.905,1.905,0,0,0,.967-.264,1.6,1.6,0,0,0,.662-.686v-1.3h-.85q-1.992,0-1.992,1.166a.987.987,0,0,0,.34.8A1.306,1.306,0,0,0,42.826-.826Zm6.907.059a1.561,1.561,0,0,0,1.014-.352A1.237,1.237,0,0,0,51.228-2h1.025a1.966,1.966,0,0,1-.375,1.037,2.47,2.47,0,0,1-.923.785,2.663,2.663,0,0,1-1.222.293,2.612,2.612,0,0,1-2.06-.864,3.442,3.442,0,0,1-.765-2.364v-.182a3.817,3.817,0,0,1,.34-1.646,2.588,2.588,0,0,1,.976-1.119,2.771,2.771,0,0,1,1.5-.4,2.543,2.543,0,0,1,1.772.639,2.283,2.283,0,0,1,.753,1.658H51.228a1.494,1.494,0,0,0-.466-1.011,1.449,1.449,0,0,0-1.034-.4,1.517,1.517,0,0,0-1.28.595,2.793,2.793,0,0,0-.454,1.72v.205a2.737,2.737,0,0,0,.451,1.688A1.524,1.524,0,0,0,49.734-.768ZM54.71,0H53.626V-6.34H54.71ZM53.538-8.021a.647.647,0,0,1,.161-.445.6.6,0,0,1,.478-.182.614.614,0,0,1,.48.182.64.64,0,0,1,.164.445.619.619,0,0,1-.164.439.626.626,0,0,1-.48.176.616.616,0,0,1-.478-.176A.626.626,0,0,1,53.538-8.021ZM56-3.229A3.745,3.745,0,0,1,56.367-4.9a2.732,2.732,0,0,1,1.02-1.148,2.775,2.775,0,0,1,1.491-.4,2.674,2.674,0,0,1,2.095.9,3.449,3.449,0,0,1,.8,2.385V-3.1a3.777,3.777,0,0,1-.354,1.661A2.692,2.692,0,0,1,60.4-.293a2.807,2.807,0,0,1-1.515.41,2.667,2.667,0,0,1-2.089-.9A3.432,3.432,0,0,1,56-3.152Zm1.09.129a2.712,2.712,0,0,0,.489,1.693,1.566,1.566,0,0,0,1.31.639A1.556,1.556,0,0,0,60.2-1.415a2.966,2.966,0,0,0,.486-1.813,2.708,2.708,0,0,0-.5-1.69,1.574,1.574,0,0,0-1.315-.647,1.557,1.557,0,0,0-1.295.639A2.944,2.944,0,0,0,57.091-3.1ZM59.37-9h1.313l-1.57,1.723-.873,0Zm4.739,2.66.035.8a2.31,2.31,0,0,1,1.9-.914q2.01,0,2.027,2.268V0H66.986V-4.2a1.459,1.459,0,0,0-.313-1.014,1.256,1.256,0,0,0-.958-.328,1.564,1.564,0,0,0-.926.281,1.91,1.91,0,0,0-.621.738V0H63.084V-6.34Z" transform="translate(955.959 4329.742)"/>
    <rect id="Rectángulo_293497" data-name="Rectángulo 293497" width="1525.168" height="288.116" transform="translate(36.416 4204.961)" fill="none"/>
    <path id="Trazado_616923" data-name="Trazado 616923" d="M3.5-3.8A5.29,5.29,0,0,1,1.4-4.825a1.954,1.954,0,0,1-.659-1.5,2.064,2.064,0,0,1,.806-1.667,3.2,3.2,0,0,1,2.095-.659,3.5,3.5,0,0,1,1.567.34,2.577,2.577,0,0,1,1.066.938A2.4,2.4,0,0,1,6.65-6.064H5.52a1.56,1.56,0,0,0-.492-1.22,2,2,0,0,0-1.389-.444,2.049,2.049,0,0,0-1.3.367,1.224,1.224,0,0,0-.466,1.018,1.1,1.1,0,0,0,.442.883,4.339,4.339,0,0,0,1.506.66,6.987,6.987,0,0,1,1.664.66,2.525,2.525,0,0,1,.891.841,2.146,2.146,0,0,1,.29,1.131A1.993,1.993,0,0,1,5.859-.507,3.448,3.448,0,0,1,3.7.117,4.01,4.01,0,0,1,2.057-.22,2.761,2.761,0,0,1,.882-1.143a2.252,2.252,0,0,1-.413-1.33H1.6a1.469,1.469,0,0,0,.571,1.222A2.4,2.4,0,0,0,3.7-.8a2.211,2.211,0,0,0,1.365-.363,1.18,1.18,0,0,0,.475-.99,1.158,1.158,0,0,0-.439-.97A5.066,5.066,0,0,0,3.5-3.8ZM11.9,0a2.277,2.277,0,0,1-.152-.668,2.419,2.419,0,0,1-1.8.785,2.238,2.238,0,0,1-1.538-.53,1.716,1.716,0,0,1-.6-1.345A1.792,1.792,0,0,1,8.559-3.3a3.55,3.55,0,0,1,2.118-.548h1.055v-.5a1.217,1.217,0,0,0-.34-.905,1.366,1.366,0,0,0-1-.337,1.581,1.581,0,0,0-.973.293.863.863,0,0,0-.393.709H7.935A1.5,1.5,0,0,1,8.272-5.5a2.3,2.3,0,0,1,.914-.7,3.075,3.075,0,0,1,1.269-.258,2.506,2.506,0,0,1,1.717.548A1.976,1.976,0,0,1,12.816-4.4v2.918a3.567,3.567,0,0,0,.223,1.389V0ZM10.1-.826a1.905,1.905,0,0,0,.967-.264,1.6,1.6,0,0,0,.662-.686v-1.3h-.85Q8.89-3.076,8.89-1.91a.987.987,0,0,0,.34.8A1.306,1.306,0,0,0,10.1-.826ZM15.645,0H14.561V-9h1.084ZM21.07-1.682a.8.8,0,0,0-.331-.683,3.187,3.187,0,0,0-1.154-.419,5.457,5.457,0,0,1-1.307-.422,1.859,1.859,0,0,1-.715-.586,1.4,1.4,0,0,1-.231-.809,1.645,1.645,0,0,1,.659-1.318,2.574,2.574,0,0,1,1.685-.539,2.649,2.649,0,0,1,1.749.557A1.768,1.768,0,0,1,22.1-4.477h-1.09a.979.979,0,0,0-.378-.768,1.416,1.416,0,0,0-.952-.322,1.482,1.482,0,0,0-.926.258.812.812,0,0,0-.334.674.658.658,0,0,0,.311.592,3.821,3.821,0,0,0,1.122.381,5.847,5.847,0,0,1,1.315.434,1.919,1.919,0,0,1,.747.606,1.491,1.491,0,0,1,.243.864A1.623,1.623,0,0,1,21.475-.4a2.851,2.851,0,0,1-1.764.513,3.193,3.193,0,0,1-1.348-.27,2.192,2.192,0,0,1-.917-.753,1.815,1.815,0,0,1-.331-1.046H18.2a1.122,1.122,0,0,0,.437.864,1.693,1.693,0,0,0,1.075.319,1.748,1.748,0,0,0,.987-.249A.765.765,0,0,0,21.07-1.682Zm2.293-1.547A3.745,3.745,0,0,1,23.73-4.9a2.732,2.732,0,0,1,1.02-1.148,2.775,2.775,0,0,1,1.491-.4,2.674,2.674,0,0,1,2.095.9,3.449,3.449,0,0,1,.8,2.385V-3.1a3.777,3.777,0,0,1-.354,1.661A2.692,2.692,0,0,1,27.767-.293a2.807,2.807,0,0,1-1.515.41,2.667,2.667,0,0,1-2.089-.9,3.432,3.432,0,0,1-.8-2.373Zm1.09.129a2.712,2.712,0,0,0,.489,1.693,1.566,1.566,0,0,0,1.31.639,1.556,1.556,0,0,0,1.313-.647,2.966,2.966,0,0,0,.486-1.813,2.708,2.708,0,0,0-.5-1.69,1.574,1.574,0,0,0-1.315-.647,1.557,1.557,0,0,0-1.295.639A2.944,2.944,0,0,0,24.453-3.1ZM31.624,0H30.54V-9h1.084Zm2.912,0H33.452V-6.34h1.084ZM33.364-8.021a.647.647,0,0,1,.161-.445A.6.6,0,0,1,34-8.648a.614.614,0,0,1,.48.182.64.64,0,0,1,.164.445.619.619,0,0,1-.164.439.626.626,0,0,1-.48.176.616.616,0,0,1-.478-.176A.626.626,0,0,1,33.364-8.021Zm2.667,4.8a3.714,3.714,0,0,1,.691-2.347,2.186,2.186,0,0,1,1.811-.888A2.2,2.2,0,0,1,40.3-5.7V-9H41.38V0h-1l-.053-.68a2.208,2.208,0,0,1-1.811.8,2.165,2.165,0,0,1-1.8-.9,3.756,3.756,0,0,1-.694-2.355Zm1.084.123a2.812,2.812,0,0,0,.445,1.688A1.44,1.44,0,0,0,38.79-.8,1.581,1.581,0,0,0,40.3-1.729V-4.641a1.593,1.593,0,0,0-1.494-.9,1.446,1.446,0,0,0-1.242.615A3.1,3.1,0,0,0,37.115-3.1ZM44.192,0H43.108V-6.34h1.084ZM43.02-8.021a.647.647,0,0,1,.161-.445.6.6,0,0,1,.478-.182.614.614,0,0,1,.48.182.64.64,0,0,1,.164.445.619.619,0,0,1-.164.439.626.626,0,0,1-.48.176.616.616,0,0,1-.478-.176A.626.626,0,0,1,43.02-8.021ZM46.289,0V-5.5h-1V-6.34h1v-.539A2.2,2.2,0,0,1,46.9-8.531a2.352,2.352,0,0,1,1.714-.592,5.161,5.161,0,0,1,1.658.357l-.182.914a3.756,3.756,0,0,0-1.395-.293,1.364,1.364,0,0,0-1,.313,1.292,1.292,0,0,0-.308.94v.551h1.295V-5.5H47.379V0Zm4.518,0h-1.09V-6.34h1.09Zm4.379-.768A1.561,1.561,0,0,0,56.2-1.119,1.237,1.237,0,0,0,56.68-2h1.025A1.966,1.966,0,0,1,57.33-.961a2.47,2.47,0,0,1-.923.785,2.663,2.663,0,0,1-1.222.293,2.612,2.612,0,0,1-2.06-.864,3.442,3.442,0,0,1-.765-2.364v-.182a3.817,3.817,0,0,1,.34-1.646,2.588,2.588,0,0,1,.976-1.119,2.771,2.771,0,0,1,1.5-.4,2.543,2.543,0,0,1,1.772.639,2.283,2.283,0,0,1,.753,1.658H56.68a1.494,1.494,0,0,0-.466-1.011,1.449,1.449,0,0,0-1.034-.4,1.517,1.517,0,0,0-1.28.595,2.793,2.793,0,0,0-.454,1.72v.205A2.737,2.737,0,0,0,53.9-1.359,1.524,1.524,0,0,0,55.186-.768ZM62.922,0a2.277,2.277,0,0,1-.152-.668,2.419,2.419,0,0,1-1.8.785,2.238,2.238,0,0,1-1.538-.53,1.716,1.716,0,0,1-.6-1.345A1.792,1.792,0,0,1,59.579-3.3,3.55,3.55,0,0,1,61.7-3.844h1.055v-.5a1.217,1.217,0,0,0-.34-.905,1.366,1.366,0,0,0-1-.337,1.581,1.581,0,0,0-.973.293.863.863,0,0,0-.393.709h-1.09a1.5,1.5,0,0,1,.337-.917,2.3,2.3,0,0,1,.914-.7,3.075,3.075,0,0,1,1.269-.258,2.506,2.506,0,0,1,1.717.548A1.976,1.976,0,0,1,63.836-4.4v2.918a3.567,3.567,0,0,0,.223,1.389V0Zm-1.8-.826a1.905,1.905,0,0,0,.967-.264,1.6,1.6,0,0,0,.662-.686v-1.3H61.9q-1.992,0-1.992,1.166a.987.987,0,0,0,.34.8A1.306,1.306,0,0,0,61.123-.826Zm6.907.059a1.561,1.561,0,0,0,1.014-.352A1.237,1.237,0,0,0,69.524-2H70.55a1.966,1.966,0,0,1-.375,1.037,2.47,2.47,0,0,1-.923.785A2.663,2.663,0,0,1,68.03.117a2.612,2.612,0,0,1-2.06-.864,3.442,3.442,0,0,1-.765-2.364v-.182a3.817,3.817,0,0,1,.34-1.646,2.588,2.588,0,0,1,.976-1.119,2.771,2.771,0,0,1,1.5-.4,2.543,2.543,0,0,1,1.772.639A2.283,2.283,0,0,1,70.55-4.16H69.524a1.494,1.494,0,0,0-.466-1.011,1.449,1.449,0,0,0-1.034-.4,1.517,1.517,0,0,0-1.28.595,2.793,2.793,0,0,0-.454,1.72v.205a2.737,2.737,0,0,0,.451,1.688A1.524,1.524,0,0,0,68.03-.768ZM72.862,0H71.778V-6.34h1.084ZM71.69-8.021a.647.647,0,0,1,.161-.445.6.6,0,0,1,.478-.182.614.614,0,0,1,.48.182.64.64,0,0,1,.164.445.619.619,0,0,1-.164.439.626.626,0,0,1-.48.176.616.616,0,0,1-.478-.176A.626.626,0,0,1,71.69-8.021Zm2.619,4.793A3.745,3.745,0,0,1,74.676-4.9,2.732,2.732,0,0,1,75.7-6.053a2.775,2.775,0,0,1,1.491-.4,2.674,2.674,0,0,1,2.095.9,3.449,3.449,0,0,1,.8,2.385V-3.1a3.777,3.777,0,0,1-.354,1.661A2.692,2.692,0,0,1,78.713-.293,2.807,2.807,0,0,1,77.2.117a2.667,2.667,0,0,1-2.089-.9,3.432,3.432,0,0,1-.8-2.373ZM75.4-3.1a2.712,2.712,0,0,0,.489,1.693,1.566,1.566,0,0,0,1.31.639,1.556,1.556,0,0,0,1.313-.647A2.966,2.966,0,0,0,79-3.229a2.708,2.708,0,0,0-.5-1.69,1.574,1.574,0,0,0-1.315-.647,1.557,1.557,0,0,0-1.295.639A2.944,2.944,0,0,0,75.4-3.1ZM77.679-9h1.313l-1.57,1.723-.873,0Zm4.787,2.66.035.8a2.31,2.31,0,0,1,1.9-.914q2.01,0,2.027,2.268V0H85.343V-4.2a1.459,1.459,0,0,0-.313-1.014,1.256,1.256,0,0,0-.958-.328,1.564,1.564,0,0,0-.926.281,1.91,1.91,0,0,0-.621.738V0H81.44V-6.34Z" transform="translate(944.652 4387.457)"/>
    <rect id="Rectángulo_293498" data-name="Rectángulo 293498" width="1525.168" height="288.116" transform="translate(36.416 4204.961)" fill="none"/>
    <path id="Trazado_616924" data-name="Trazado 616924" d="M7.266-2.707a3.139,3.139,0,0,1-1,2.089A3.274,3.274,0,0,1,4.031.117,3.006,3.006,0,0,1,1.608-.967,4.361,4.361,0,0,1,.7-3.867v-.82a4.861,4.861,0,0,1,.425-2.092,3.173,3.173,0,0,1,1.2-1.386,3.353,3.353,0,0,1,1.8-.483,3.083,3.083,0,0,1,2.18.759,3.176,3.176,0,0,1,.955,2.1H6.135A2.451,2.451,0,0,0,5.5-7.27a1.924,1.924,0,0,0-1.368-.458,2.013,2.013,0,0,0-1.69.8,3.661,3.661,0,0,0-.612,2.269v.827a3.764,3.764,0,0,0,.58,2.211A1.874,1.874,0,0,0,4.031-.8,2.165,2.165,0,0,0,5.47-1.228a2.357,2.357,0,0,0,.665-1.479Zm1.006-.521A3.745,3.745,0,0,1,8.638-4.9a2.732,2.732,0,0,1,1.02-1.148,2.775,2.775,0,0,1,1.491-.4,2.674,2.674,0,0,1,2.095.9,3.449,3.449,0,0,1,.8,2.385V-3.1a3.777,3.777,0,0,1-.354,1.661A2.692,2.692,0,0,1,12.675-.293a2.807,2.807,0,0,1-1.515.41,2.667,2.667,0,0,1-2.089-.9,3.432,3.432,0,0,1-.8-2.373Zm1.09.129a2.712,2.712,0,0,0,.489,1.693,1.566,1.566,0,0,0,1.31.639,1.556,1.556,0,0,0,1.313-.647,2.966,2.966,0,0,0,.486-1.813,2.708,2.708,0,0,0-.5-1.69,1.574,1.574,0,0,0-1.315-.647,1.557,1.557,0,0,0-1.295.639A2.944,2.944,0,0,0,9.362-3.1Zm7.013-3.24.029.7a2.341,2.341,0,0,1,1.881-.82,1.813,1.813,0,0,1,1.811,1.02,2.4,2.4,0,0,1,.823-.738,2.431,2.431,0,0,1,1.2-.281q2.086,0,2.121,2.209V0H23.153V-4.184A1.456,1.456,0,0,0,22.843-5.2,1.368,1.368,0,0,0,21.8-5.537a1.437,1.437,0,0,0-1,.36,1.462,1.462,0,0,0-.463.97V0h-1.09V-4.154a1.209,1.209,0,0,0-1.354-1.383,1.45,1.45,0,0,0-1.459.908V0H15.349V-6.34ZM31.42-3.1a3.8,3.8,0,0,1-.662,2.332,2.122,2.122,0,0,1-1.793.885,2.325,2.325,0,0,1-1.816-.732V2.438H26.064V-6.34h.99l.053.7a2.233,2.233,0,0,1,1.84-.82,2.162,2.162,0,0,1,1.808.861,3.838,3.838,0,0,1,.665,2.4Zm-1.084-.123a2.8,2.8,0,0,0-.457-1.693,1.472,1.472,0,0,0-1.254-.621,1.593,1.593,0,0,0-1.477.873v3.029a1.6,1.6,0,0,0,1.488.867,1.465,1.465,0,0,0,1.239-.618A3.058,3.058,0,0,0,30.336-3.223Zm2.126-.006A3.745,3.745,0,0,1,32.828-4.9a2.732,2.732,0,0,1,1.02-1.148,2.775,2.775,0,0,1,1.491-.4,2.674,2.674,0,0,1,2.095.9,3.449,3.449,0,0,1,.8,2.385V-3.1a3.777,3.777,0,0,1-.354,1.661A2.692,2.692,0,0,1,36.865-.293a2.807,2.807,0,0,1-1.515.41,2.667,2.667,0,0,1-2.089-.9,3.432,3.432,0,0,1-.8-2.373Zm1.09.129a2.712,2.712,0,0,0,.489,1.693,1.566,1.566,0,0,0,1.31.639,1.556,1.556,0,0,0,1.313-.647,2.966,2.966,0,0,0,.486-1.813,2.708,2.708,0,0,0-.5-1.69,1.574,1.574,0,0,0-1.315-.647,1.557,1.557,0,0,0-1.295.639A2.944,2.944,0,0,0,33.551-3.1ZM40.57-6.34l.035.8a2.31,2.31,0,0,1,1.9-.914q2.01,0,2.027,2.268V0H43.447V-4.2a1.459,1.459,0,0,0-.313-1.014,1.256,1.256,0,0,0-.958-.328,1.564,1.564,0,0,0-.926.281,1.91,1.91,0,0,0-.621.738V0H39.544V-6.34ZM48.748.117a2.77,2.77,0,0,1-2.1-.847,3.142,3.142,0,0,1-.809-2.265v-.2a3.8,3.8,0,0,1,.36-1.685,2.811,2.811,0,0,1,1.008-1.16,2.534,2.534,0,0,1,1.4-.419,2.374,2.374,0,0,1,1.922.814,3.526,3.526,0,0,1,.686,2.332v.451H46.926a2.254,2.254,0,0,0,.548,1.515,1.722,1.722,0,0,0,1.333.577A1.888,1.888,0,0,0,49.78-1a2.444,2.444,0,0,0,.7-.621l.662.516A2.662,2.662,0,0,1,48.748.117Zm-.135-5.684a1.446,1.446,0,0,0-1.1.478,2.321,2.321,0,0,0-.551,1.339h3.176v-.082a2.065,2.065,0,0,0-.445-1.28A1.361,1.361,0,0,0,48.614-5.566Zm4.839-.773.035.8a2.31,2.31,0,0,1,1.9-.914q2.01,0,2.027,2.268V0H56.329V-4.2a1.459,1.459,0,0,0-.313-1.014,1.256,1.256,0,0,0-.958-.328,1.564,1.564,0,0,0-.926.281,1.91,1.91,0,0,0-.621.738V0H52.427V-6.34Zm7.018-1.535V-6.34h1.184V-5.5H60.471v3.937a.88.88,0,0,0,.158.572.666.666,0,0,0,.539.191,2.624,2.624,0,0,0,.516-.07V0a3.161,3.161,0,0,1-.832.116,1.35,1.35,0,0,1-1.1-.439,1.888,1.888,0,0,1-.369-1.248V-5.5H58.232V-6.34h1.154V-7.875ZM65.611.117a2.77,2.77,0,0,1-2.1-.847A3.142,3.142,0,0,1,62.7-2.994v-.2a3.8,3.8,0,0,1,.36-1.685,2.811,2.811,0,0,1,1.008-1.16,2.534,2.534,0,0,1,1.4-.419,2.374,2.374,0,0,1,1.922.814,3.526,3.526,0,0,1,.686,2.332v.451H63.788a2.254,2.254,0,0,0,.548,1.515,1.722,1.722,0,0,0,1.333.577A1.888,1.888,0,0,0,66.642-1a2.444,2.444,0,0,0,.7-.621L68-1.107A2.662,2.662,0,0,1,65.611.117Zm-.135-5.684a1.446,1.446,0,0,0-1.1.478,2.321,2.321,0,0,0-.551,1.339H67v-.082a2.065,2.065,0,0,0-.445-1.28A1.361,1.361,0,0,0,65.476-5.566Zm7.5,3.885a.8.8,0,0,0-.331-.683A3.187,3.187,0,0,0,71.5-2.783a5.457,5.457,0,0,1-1.307-.422,1.859,1.859,0,0,1-.715-.586,1.4,1.4,0,0,1-.231-.809A1.645,1.645,0,0,1,69.9-5.918a2.574,2.574,0,0,1,1.685-.539,2.649,2.649,0,0,1,1.749.557,1.768,1.768,0,0,1,.671,1.424h-1.09a.979.979,0,0,0-.378-.768,1.416,1.416,0,0,0-.952-.322,1.482,1.482,0,0,0-.926.258.812.812,0,0,0-.334.674.658.658,0,0,0,.311.592,3.821,3.821,0,0,0,1.122.381,5.847,5.847,0,0,1,1.315.434,1.919,1.919,0,0,1,.747.606,1.491,1.491,0,0,1,.243.864A1.623,1.623,0,0,1,73.385-.4a2.851,2.851,0,0,1-1.764.513,3.193,3.193,0,0,1-1.348-.27,2.192,2.192,0,0,1-.917-.753,1.815,1.815,0,0,1-.331-1.046H70.11a1.122,1.122,0,0,0,.437.864,1.693,1.693,0,0,0,1.075.319,1.748,1.748,0,0,0,.987-.249A.765.765,0,0,0,72.981-1.682ZM79.7-7.875V-6.34h1.184V-5.5H79.7v3.937a.88.88,0,0,0,.158.572A.666.666,0,0,0,80.4-.8a2.624,2.624,0,0,0,.516-.07V0a3.161,3.161,0,0,1-.832.116,1.35,1.35,0,0,1-1.1-.439,1.888,1.888,0,0,1-.369-1.248V-5.5H77.464V-6.34h1.154V-7.875Zm2.222,4.646A3.745,3.745,0,0,1,82.291-4.9a2.732,2.732,0,0,1,1.02-1.148,2.775,2.775,0,0,1,1.491-.4,2.674,2.674,0,0,1,2.095.9,3.449,3.449,0,0,1,.8,2.385V-3.1a3.777,3.777,0,0,1-.354,1.661A2.692,2.692,0,0,1,86.328-.293a2.807,2.807,0,0,1-1.515.41,2.667,2.667,0,0,1-2.089-.9,3.432,3.432,0,0,1-.8-2.373Zm1.09.129A2.712,2.712,0,0,0,83.5-1.406a1.566,1.566,0,0,0,1.31.639,1.556,1.556,0,0,0,1.313-.647,2.966,2.966,0,0,0,.486-1.813,2.708,2.708,0,0,0-.5-1.69A1.574,1.574,0,0,0,84.8-5.566a1.557,1.557,0,0,0-1.295.639A2.944,2.944,0,0,0,83.014-3.1ZM85.293-9h1.313l-1.57,1.723-.873,0Zm5.841,4.975L92.54-6.34h1.266L91.732-3.205,93.87,0H92.617L91.152-2.373,89.687,0h-1.26l2.139-3.205L88.492-6.34h1.254ZM95.88,0H94.8V-6.34H95.88ZM94.708-8.021a.647.647,0,0,1,.161-.445.6.6,0,0,1,.478-.182.614.614,0,0,1,.48.182.64.64,0,0,1,.164.445.619.619,0,0,1-.164.439.626.626,0,0,1-.48.176.616.616,0,0,1-.478-.176A.626.626,0,0,1,94.708-8.021Zm5.449,7.254a1.561,1.561,0,0,0,1.014-.352,1.237,1.237,0,0,0,.48-.879h1.025A1.966,1.966,0,0,1,102.3-.961a2.47,2.47,0,0,1-.923.785,2.663,2.663,0,0,1-1.222.293A2.612,2.612,0,0,1,98.1-.747a3.442,3.442,0,0,1-.765-2.364v-.182a3.817,3.817,0,0,1,.34-1.646,2.588,2.588,0,0,1,.976-1.119,2.771,2.771,0,0,1,1.5-.4,2.543,2.543,0,0,1,1.772.639,2.283,2.283,0,0,1,.753,1.658h-1.025a1.494,1.494,0,0,0-.466-1.011,1.449,1.449,0,0,0-1.034-.4,1.517,1.517,0,0,0-1.28.595,2.793,2.793,0,0,0-.454,1.72v.205a2.737,2.737,0,0,0,.451,1.688A1.524,1.524,0,0,0,100.158-.768ZM103.7-3.229a3.745,3.745,0,0,1,.366-1.676,2.732,2.732,0,0,1,1.02-1.148,2.775,2.775,0,0,1,1.491-.4,2.674,2.674,0,0,1,2.095.9,3.449,3.449,0,0,1,.8,2.385V-3.1a3.777,3.777,0,0,1-.354,1.661,2.692,2.692,0,0,1-1.014,1.146,2.807,2.807,0,0,1-1.515.41,2.667,2.667,0,0,1-2.089-.9,3.432,3.432,0,0,1-.8-2.373Zm1.09.129a2.712,2.712,0,0,0,.489,1.693,1.566,1.566,0,0,0,1.31.639,1.556,1.556,0,0,0,1.313-.647,2.966,2.966,0,0,0,.486-1.813,2.708,2.708,0,0,0-.5-1.69,1.574,1.574,0,0,0-1.315-.647,1.557,1.557,0,0,0-1.295.639A2.944,2.944,0,0,0,104.795-3.1Zm9.684,1.418a.8.8,0,0,0-.331-.683,3.187,3.187,0,0,0-1.154-.419,5.457,5.457,0,0,1-1.307-.422,1.859,1.859,0,0,1-.715-.586,1.4,1.4,0,0,1-.231-.809,1.645,1.645,0,0,1,.659-1.318,2.574,2.574,0,0,1,1.685-.539,2.649,2.649,0,0,1,1.749.557,1.768,1.768,0,0,1,.671,1.424h-1.09a.979.979,0,0,0-.378-.768,1.416,1.416,0,0,0-.952-.322,1.482,1.482,0,0,0-.926.258.812.812,0,0,0-.334.674.658.658,0,0,0,.311.592,3.821,3.821,0,0,0,1.122.381,5.847,5.847,0,0,1,1.315.434,1.919,1.919,0,0,1,.747.606,1.491,1.491,0,0,1,.243.864,1.623,1.623,0,0,1-.68,1.362,2.851,2.851,0,0,1-1.764.513,3.193,3.193,0,0,1-1.348-.27,2.192,2.192,0,0,1-.917-.753,1.815,1.815,0,0,1-.331-1.046h1.084a1.122,1.122,0,0,0,.437.864,1.693,1.693,0,0,0,1.075.319,1.748,1.748,0,0,0,.987-.249A.765.765,0,0,0,114.479-1.682Z" transform="translate(926.821 4445.205)"/>
    <rect id="Rectángulo_293499" data-name="Rectángulo 293499" width="1525.168" height="288.116" transform="translate(36.416 4204.961)" fill="none"/>
    <path id="Trazado_616623" data-name="Trazado 616623" d="M652.791,136.149h17.233V169h17.251" transform="translate(534.062 4215.262)" fill="none" stroke="#7b9445" stroke-linejoin="round" stroke-width="2.217"/>
    <path id="Trazado_616624" data-name="Trazado 616624" d="M652.791,148.907h17.233V116.055h17.251" transform="translate(534.062 4202.503)" fill="none" stroke="#7b9445" stroke-linejoin="round" stroke-width="2.217"/>
    <rect id="Rectángulo_293500" data-name="Rectángulo 293500" width="1525.169" height="288.116" transform="translate(36.416 4204.961)" fill="none"/>
    <rect id="Rectángulo_293501" data-name="Rectángulo 293501" width="1525.169" height="288.116" transform="translate(36.416 4204.961)" fill="none"/>
    <path id="Trazado_616919" data-name="Trazado 616919" d="M1.32,0V-11.375H5.039a4.317,4.317,0,0,1,2.785.766,2.759,2.759,0,0,1,.934,2.266A2.31,2.31,0,0,1,8.3-6.934a2.938,2.938,0,0,1-1.234.949A2.638,2.638,0,0,1,8.527-5a2.814,2.814,0,0,1,.535,1.723A3.042,3.042,0,0,1,8.07-.875,4.1,4.1,0,0,1,5.266,0Zm1.5-5.32v4.094H5.3A2.385,2.385,0,0,0,6.949-1.77a1.907,1.907,0,0,0,.605-1.5q0-2.055-2.234-2.055Zm0-1.2H5.086A2.375,2.375,0,0,0,6.66-7.017a1.654,1.654,0,0,0,.59-1.339A1.626,1.626,0,0,0,6.7-9.722a2.686,2.686,0,0,0-1.664-.427H2.82ZM12.843,0h-1.5V-11.375h1.5ZM24.335-5.32A7.037,7.037,0,0,1,23.772-2.4,4.261,4.261,0,0,1,22.179-.5a4.385,4.385,0,0,1-2.406.656A4.347,4.347,0,0,1,17.389-.5a4.363,4.363,0,0,1-1.613-1.883,6.752,6.752,0,0,1-.59-2.832v-.82a6.953,6.953,0,0,1,.57-2.9,4.347,4.347,0,0,1,1.613-1.926,4.329,4.329,0,0,1,2.387-.668,4.41,4.41,0,0,1,2.41.66,4.253,4.253,0,0,1,1.605,1.914,7.071,7.071,0,0,1,.563,2.918Zm-1.492-.734A5.1,5.1,0,0,0,22.03-9.16a2.68,2.68,0,0,0-2.273-1.082A2.651,2.651,0,0,0,17.518-9.16a5,5,0,0,0-.84,3v.836A5.107,5.107,0,0,0,17.5-2.238a2.662,2.662,0,0,0,2.27,1.121,2.652,2.652,0,0,0,2.25-1.059,5.079,5.079,0,0,0,.82-3.035Zm5.3,4.828h5.391V0h-6.9V-11.375h1.508ZM43.992-5.32A7.037,7.037,0,0,1,43.43-2.4,4.261,4.261,0,0,1,41.836-.5,4.385,4.385,0,0,1,39.43.156,4.347,4.347,0,0,1,37.047-.5a4.363,4.363,0,0,1-1.613-1.883,6.752,6.752,0,0,1-.59-2.832v-.82a6.953,6.953,0,0,1,.57-2.9,4.347,4.347,0,0,1,1.613-1.926,4.329,4.329,0,0,1,2.387-.668,4.41,4.41,0,0,1,2.41.66A4.253,4.253,0,0,1,43.43-8.957a7.071,7.071,0,0,1,.563,2.918ZM42.5-6.055a5.1,5.1,0,0,0-.812-3.105,2.68,2.68,0,0,0-2.273-1.082A2.651,2.651,0,0,0,37.176-9.16a5,5,0,0,0-.84,3v.836a5.107,5.107,0,0,0,.824,3.082,2.662,2.662,0,0,0,2.27,1.121,2.652,2.652,0,0,0,2.25-1.059,5.079,5.079,0,0,0,.82-3.035Zm-2.352-8.383H41.9l-2.094,2.3-1.164,0ZM54.673-1.492A3.465,3.465,0,0,1,53.059-.254a6.517,6.517,0,0,1-2.41.41A4.674,4.674,0,0,1,48.18-.5a4.346,4.346,0,0,1-1.668-1.855,6.408,6.408,0,0,1-.605-2.789v-.992a5.982,5.982,0,0,1,1.2-3.984,4.179,4.179,0,0,1,3.371-1.414,4.316,4.316,0,0,1,2.867.91,3.965,3.965,0,0,1,1.328,2.582h-1.5A2.48,2.48,0,0,0,50.485-10.3,2.655,2.655,0,0,0,48.2-9.245a5.173,5.173,0,0,0-.785,3.069v.93A4.848,4.848,0,0,0,48.29-2.2a2.836,2.836,0,0,0,2.367,1.13,5.228,5.228,0,0,0,1.477-.187,2.283,2.283,0,0,0,1.047-.631V-4.437H50.548V-5.664h4.125ZM58.846,0h-1.5V-11.375h1.5ZM69.955-3.609A4.185,4.185,0,0,1,68.623-.824a4.365,4.365,0,0,1-2.98.98,4.008,4.008,0,0,1-3.23-1.445A5.815,5.815,0,0,1,61.2-5.156V-6.25a6.481,6.481,0,0,1,.566-2.789,4.231,4.231,0,0,1,1.605-1.848,4.47,4.47,0,0,1,2.406-.645,4.11,4.11,0,0,1,2.906,1.012,4.235,4.235,0,0,1,1.273,2.8H68.448A3.268,3.268,0,0,0,67.6-9.693a2.565,2.565,0,0,0-1.824-.611,2.684,2.684,0,0,0-2.254,1.063,4.882,4.882,0,0,0-.816,3.026v1.1a5.018,5.018,0,0,0,.773,2.948A2.5,2.5,0,0,0,65.643-1.07a2.886,2.886,0,0,0,1.918-.566,3.143,3.143,0,0,0,.887-1.973Zm8.328.633H73.518L72.448,0H70.9l4.344-11.375h1.313L80.908,0H79.369ZM73.971-4.2h3.867L75.9-9.523Z" transform="translate(1165.044 4401.318) rotate(-90)"/>
    <rect id="Rectángulo_293502" data-name="Rectángulo 293502" width="1525.168" height="288.116" transform="translate(36.416 4204.961)" fill="none"/>
    <path id="Trazado_616921" data-name="Trazado 616921" d="M4.119-3.451h-2V0H.984V-8.531H3.809a3.343,3.343,0,0,1,2.218.656A2.361,2.361,0,0,1,6.8-5.965a2.3,2.3,0,0,1-.431,1.389,2.571,2.571,0,0,1-1.2.885l2,3.621V0H5.971Zm-2-.92H3.844a1.95,1.95,0,0,0,1.333-.434,1.469,1.469,0,0,0,.5-1.162A1.547,1.547,0,0,0,5.2-7.183a2,2,0,0,0-1.362-.429H2.115ZM10.768.117a2.77,2.77,0,0,1-2.1-.847,3.142,3.142,0,0,1-.809-2.265v-.2a3.8,3.8,0,0,1,.36-1.685A2.811,2.811,0,0,1,9.23-6.038a2.534,2.534,0,0,1,1.4-.419,2.374,2.374,0,0,1,1.922.814,3.526,3.526,0,0,1,.686,2.332v.451H8.946a2.254,2.254,0,0,0,.548,1.515,1.722,1.722,0,0,0,1.333.577A1.888,1.888,0,0,0,11.8-1a2.444,2.444,0,0,0,.7-.621l.662.516A2.662,2.662,0,0,1,10.768.117Zm-.135-5.684a1.446,1.446,0,0,0-1.1.478A2.321,2.321,0,0,0,8.981-3.75h3.176v-.082a2.065,2.065,0,0,0-.445-1.28A1.361,1.361,0,0,0,10.633-5.566Zm3.55,2.344a3.714,3.714,0,0,1,.691-2.347,2.186,2.186,0,0,1,1.811-.888,2.2,2.2,0,0,1,1.764.762V-9h1.084V0h-1l-.053-.68a2.208,2.208,0,0,1-1.811.8,2.165,2.165,0,0,1-1.8-.9,3.756,3.756,0,0,1-.694-2.355Zm1.084.123a2.812,2.812,0,0,0,.445,1.688,1.44,1.44,0,0,0,1.23.609,1.581,1.581,0,0,0,1.506-.926V-4.641a1.593,1.593,0,0,0-1.494-.9,1.446,1.446,0,0,0-1.242.615A3.1,3.1,0,0,0,15.267-3.1ZM25.08-.627a2.3,2.3,0,0,1-1.857.744,1.971,1.971,0,0,1-1.544-.589,2.549,2.549,0,0,1-.536-1.743V-6.34h1.084v4.1Q22.227-.8,23.4-.8a1.623,1.623,0,0,0,1.652-.926V-6.34h1.084V0H25.1Zm5.2-.141a1.561,1.561,0,0,0,1.014-.352A1.237,1.237,0,0,0,31.77-2H32.8a1.966,1.966,0,0,1-.375,1.037,2.47,2.47,0,0,1-.923.785,2.663,2.663,0,0,1-1.222.293,2.612,2.612,0,0,1-2.06-.864,3.442,3.442,0,0,1-.765-2.364v-.182a3.817,3.817,0,0,1,.34-1.646,2.588,2.588,0,0,1,.976-1.119,2.771,2.771,0,0,1,1.5-.4,2.543,2.543,0,0,1,1.772.639A2.283,2.283,0,0,1,32.8-4.16H31.77A1.494,1.494,0,0,0,31.3-5.171a1.449,1.449,0,0,0-1.034-.4,1.517,1.517,0,0,0-1.28.595,2.793,2.793,0,0,0-.454,1.72v.205a2.737,2.737,0,0,0,.451,1.688A1.524,1.524,0,0,0,30.276-.768Zm6.341,0a1.561,1.561,0,0,0,1.014-.352A1.237,1.237,0,0,0,38.112-2h1.025a1.966,1.966,0,0,1-.375,1.037,2.47,2.47,0,0,1-.923.785,2.663,2.663,0,0,1-1.222.293,2.612,2.612,0,0,1-2.06-.864,3.442,3.442,0,0,1-.765-2.364v-.182a3.817,3.817,0,0,1,.34-1.646,2.588,2.588,0,0,1,.976-1.119,2.771,2.771,0,0,1,1.5-.4,2.543,2.543,0,0,1,1.772.639,2.283,2.283,0,0,1,.753,1.658H38.112a1.494,1.494,0,0,0-.466-1.011,1.449,1.449,0,0,0-1.034-.4,1.517,1.517,0,0,0-1.28.595,2.793,2.793,0,0,0-.454,1.72v.205a2.737,2.737,0,0,0,.451,1.688A1.524,1.524,0,0,0,36.617-.768ZM41.593,0H40.509V-6.34h1.084ZM40.422-8.021a.647.647,0,0,1,.161-.445.6.6,0,0,1,.478-.182.614.614,0,0,1,.48.182.64.64,0,0,1,.164.445.619.619,0,0,1-.164.439.626.626,0,0,1-.48.176.616.616,0,0,1-.478-.176A.626.626,0,0,1,40.422-8.021Zm2.619,4.793A3.745,3.745,0,0,1,43.407-4.9a2.732,2.732,0,0,1,1.02-1.148,2.775,2.775,0,0,1,1.491-.4,2.674,2.674,0,0,1,2.095.9,3.449,3.449,0,0,1,.8,2.385V-3.1a3.777,3.777,0,0,1-.354,1.661A2.692,2.692,0,0,1,47.444-.293a2.807,2.807,0,0,1-1.515.41,2.667,2.667,0,0,1-2.089-.9,3.432,3.432,0,0,1-.8-2.373Zm1.09.129a2.712,2.712,0,0,0,.489,1.693,1.566,1.566,0,0,0,1.31.639,1.556,1.556,0,0,0,1.313-.647,2.966,2.966,0,0,0,.486-1.813,2.708,2.708,0,0,0-.5-1.69,1.574,1.574,0,0,0-1.315-.647,1.557,1.557,0,0,0-1.295.639A2.944,2.944,0,0,0,44.131-3.1ZM46.41-9h1.313l-1.57,1.723-.873,0ZM51.2-6.34l.035.8a2.31,2.31,0,0,1,1.9-.914q2.01,0,2.027,2.268V0H54.074V-4.2a1.459,1.459,0,0,0-.313-1.014,1.256,1.256,0,0,0-.958-.328,1.564,1.564,0,0,0-.926.281,1.91,1.91,0,0,0-.621.738V0H50.172V-6.34Zm8.135,3.117a3.714,3.714,0,0,1,.691-2.347,2.186,2.186,0,0,1,1.811-.888A2.2,2.2,0,0,1,63.6-5.7V-9h1.084V0h-1l-.053-.68a2.208,2.208,0,0,1-1.811.8,2.165,2.165,0,0,1-1.8-.9,3.756,3.756,0,0,1-.694-2.355Zm1.084.123a2.812,2.812,0,0,0,.445,1.688,1.44,1.44,0,0,0,1.23.609A1.581,1.581,0,0,0,63.6-1.729V-4.641a1.593,1.593,0,0,0-1.494-.9,1.446,1.446,0,0,0-1.242.615A3.1,3.1,0,0,0,60.416-3.1ZM68.946.117a2.77,2.77,0,0,1-2.1-.847,3.142,3.142,0,0,1-.809-2.265v-.2a3.8,3.8,0,0,1,.36-1.685,2.811,2.811,0,0,1,1.008-1.16,2.534,2.534,0,0,1,1.4-.419,2.374,2.374,0,0,1,1.922.814,3.526,3.526,0,0,1,.686,2.332v.451H67.124a2.254,2.254,0,0,0,.548,1.515A1.722,1.722,0,0,0,69-.768,1.888,1.888,0,0,0,69.977-1a2.444,2.444,0,0,0,.7-.621l.662.516A2.662,2.662,0,0,1,68.946.117Zm-.135-5.684a1.446,1.446,0,0,0-1.1.478,2.321,2.321,0,0,0-.551,1.339h3.176v-.082a2.065,2.065,0,0,0-.445-1.28A1.361,1.361,0,0,0,68.811-5.566Zm7.708-.773.029.7a2.341,2.341,0,0,1,1.881-.82,1.813,1.813,0,0,1,1.811,1.02,2.4,2.4,0,0,1,.823-.738,2.431,2.431,0,0,1,1.2-.281q2.086,0,2.121,2.209V0H83.3V-4.184A1.456,1.456,0,0,0,82.987-5.2a1.368,1.368,0,0,0-1.043-.337,1.437,1.437,0,0,0-1,.36,1.462,1.462,0,0,0-.463.97V0H79.39V-4.154a1.209,1.209,0,0,0-1.354-1.383,1.45,1.45,0,0,0-1.459.908V0H75.493V-6.34ZM90.123,0a2.277,2.277,0,0,1-.152-.668,2.419,2.419,0,0,1-1.8.785,2.238,2.238,0,0,1-1.538-.53,1.716,1.716,0,0,1-.6-1.345A1.792,1.792,0,0,1,86.78-3.3,3.55,3.55,0,0,1,88.9-3.844h1.055v-.5a1.217,1.217,0,0,0-.34-.905,1.366,1.366,0,0,0-1-.337,1.581,1.581,0,0,0-.973.293.863.863,0,0,0-.393.709h-1.09a1.5,1.5,0,0,1,.337-.917,2.3,2.3,0,0,1,.914-.7,3.075,3.075,0,0,1,1.269-.258,2.506,2.506,0,0,1,1.717.548A1.976,1.976,0,0,1,91.037-4.4v2.918a3.567,3.567,0,0,0,.223,1.389V0Zm-1.8-.826a1.905,1.905,0,0,0,.967-.264,1.6,1.6,0,0,0,.662-.686v-1.3H89.1q-1.992,0-1.992,1.166a.987.987,0,0,0,.34.8A1.306,1.306,0,0,0,88.324-.826Zm6.907.059a1.561,1.561,0,0,0,1.014-.352A1.237,1.237,0,0,0,96.725-2h1.025a1.966,1.966,0,0,1-.375,1.037,2.47,2.47,0,0,1-.923.785,2.663,2.663,0,0,1-1.222.293,2.612,2.612,0,0,1-2.06-.864,3.442,3.442,0,0,1-.765-2.364v-.182a3.817,3.817,0,0,1,.34-1.646,2.588,2.588,0,0,1,.976-1.119,2.771,2.771,0,0,1,1.5-.4A2.543,2.543,0,0,1,97-5.818a2.283,2.283,0,0,1,.753,1.658H96.725a1.494,1.494,0,0,0-.466-1.011,1.449,1.449,0,0,0-1.034-.4,1.517,1.517,0,0,0-1.28.595,2.793,2.793,0,0,0-.454,1.72v.205a2.737,2.737,0,0,0,.451,1.688A1.524,1.524,0,0,0,95.231-.768Zm6.863-4.6a3.248,3.248,0,0,0-.533-.041,1.428,1.428,0,0,0-1.447.908V0H99.029V-6.34h1.055l.018.732a1.688,1.688,0,0,1,1.512-.85,1.107,1.107,0,0,1,.48.082Zm.532,2.139a3.745,3.745,0,0,1,.366-1.676,2.732,2.732,0,0,1,1.02-1.148,2.775,2.775,0,0,1,1.491-.4,2.674,2.674,0,0,1,2.095.9,3.449,3.449,0,0,1,.8,2.385V-3.1a3.777,3.777,0,0,1-.354,1.661,2.692,2.692,0,0,1-1.014,1.146,2.807,2.807,0,0,1-1.515.41,2.667,2.667,0,0,1-2.089-.9,3.432,3.432,0,0,1-.8-2.373Zm1.09.129a2.712,2.712,0,0,0,.489,1.693,1.566,1.566,0,0,0,1.31.639,1.556,1.556,0,0,0,1.313-.647,2.966,2.966,0,0,0,.486-1.813,2.708,2.708,0,0,0-.5-1.69,1.574,1.574,0,0,0-1.315-.647,1.557,1.557,0,0,0-1.295.639A2.944,2.944,0,0,0,103.715-3.1Zm10.762,1.512,1.477-4.752h1.16L114.565.979q-.592,1.582-1.881,1.582l-.205-.018-.4-.076V1.588l.293.023a1.442,1.442,0,0,0,.858-.223,1.611,1.611,0,0,0,.507-.814l.24-.645-2.262-6.27H112.9Z" transform="translate(1235.507 4313.525)"/>
    <rect id="Rectángulo_293503" data-name="Rectángulo 293503" width="1525.168" height="288.116" transform="translate(36.416 4204.961)" fill="none"/>
    <text id="microfibra" transform="translate(1275.515 4328.527)" font-size="12" font-family="Roboto-Regular, Roboto"><tspan x="0" y="0" letter-spacing="0.016em">m</tspan><tspan y="0">i</tspan><tspan y="0" letter-spacing="0.007em">c</tspan><tspan y="0" letter-spacing="-0.005em">r</tspan><tspan y="0" letter-spacing="-0.004em">o</tspan><tspan y="0" letter-spacing="0.005em">fi</tspan><tspan y="0">b</tspan><tspan y="0" letter-spacing="-0.007em">r</tspan><tspan y="0">a</tspan></text>
    <rect id="Rectángulo_293504" data-name="Rectángulo 293504" width="1525.168" height="288.116" transform="translate(36.416 4204.961)" fill="none"/>
    <path id="Trazado_616920" data-name="Trazado 616920" d="M2.115-3.34V0H.99V-8.531H4.137a3.161,3.161,0,0,1,2.194.715,2.423,2.423,0,0,1,.794,1.893,2.391,2.391,0,0,1-.776,1.913,3.3,3.3,0,0,1-2.224.671Zm0-.92H4.137A2.021,2.021,0,0,0,5.52-4.685,1.556,1.556,0,0,0,6-5.915a1.608,1.608,0,0,0-.48-1.221A1.894,1.894,0,0,0,4.2-7.611H2.115ZM11.021.117a2.77,2.77,0,0,1-2.1-.847,3.142,3.142,0,0,1-.809-2.265v-.2a3.8,3.8,0,0,1,.36-1.685,2.811,2.811,0,0,1,1.008-1.16,2.534,2.534,0,0,1,1.4-.419,2.374,2.374,0,0,1,1.922.814,3.526,3.526,0,0,1,.686,2.332v.451H9.2a2.254,2.254,0,0,0,.548,1.515,1.722,1.722,0,0,0,1.333.577A1.888,1.888,0,0,0,12.053-1a2.444,2.444,0,0,0,.7-.621l.662.516A2.662,2.662,0,0,1,11.021.117Zm-.135-5.684a1.446,1.446,0,0,0-1.1.478A2.321,2.321,0,0,0,9.234-3.75H12.41v-.082a2.065,2.065,0,0,0-.445-1.28A1.361,1.361,0,0,0,10.887-5.566ZM11.414-9h1.313l-1.57,1.723-.873,0Zm6.4,3.633a3.248,3.248,0,0,0-.533-.041,1.428,1.428,0,0,0-1.447.908V0H14.748V-6.34H15.8l.018.732a1.688,1.688,0,0,1,1.512-.85,1.107,1.107,0,0,1,.48.082Zm.636,2.145a3.714,3.714,0,0,1,.691-2.347,2.186,2.186,0,0,1,1.811-.888,2.2,2.2,0,0,1,1.764.762V-9H23.8V0h-1L22.75-.68a2.208,2.208,0,0,1-1.811.8,2.165,2.165,0,0,1-1.8-.9,3.756,3.756,0,0,1-.694-2.355Zm1.084.123a2.812,2.812,0,0,0,.445,1.688,1.44,1.44,0,0,0,1.23.609,1.581,1.581,0,0,0,1.506-.926V-4.641a1.593,1.593,0,0,0-1.494-.9,1.446,1.446,0,0,0-1.242.615A3.1,3.1,0,0,0,19.533-3.1ZM26.6,0H25.514V-6.34H26.6ZM25.426-8.021a.647.647,0,0,1,.161-.445.6.6,0,0,1,.478-.182.614.614,0,0,1,.48.182.64.64,0,0,1,.164.445.619.619,0,0,1-.164.439.626.626,0,0,1-.48.176.616.616,0,0,1-.478-.176A.626.626,0,0,1,25.426-8.021Zm2.643,4.8a3.714,3.714,0,0,1,.691-2.347,2.186,2.186,0,0,1,1.811-.888,2.2,2.2,0,0,1,1.764.762V-9h1.084V0h-1l-.053-.68a2.208,2.208,0,0,1-1.811.8,2.165,2.165,0,0,1-1.8-.9,3.756,3.756,0,0,1-.694-2.355Zm1.084.123A2.812,2.812,0,0,0,29.6-1.412a1.44,1.44,0,0,0,1.23.609,1.581,1.581,0,0,0,1.506-.926V-4.641a1.593,1.593,0,0,0-1.494-.9,1.446,1.446,0,0,0-1.242.615A3.1,3.1,0,0,0,29.153-3.1ZM38.966,0a2.277,2.277,0,0,1-.152-.668,2.419,2.419,0,0,1-1.8.785,2.238,2.238,0,0,1-1.538-.53,1.716,1.716,0,0,1-.6-1.345A1.792,1.792,0,0,1,35.623-3.3a3.55,3.55,0,0,1,2.118-.548H38.8v-.5a1.217,1.217,0,0,0-.34-.905,1.366,1.366,0,0,0-1-.337,1.581,1.581,0,0,0-.973.293.863.863,0,0,0-.393.709H35a1.5,1.5,0,0,1,.337-.917,2.3,2.3,0,0,1,.914-.7,3.075,3.075,0,0,1,1.269-.258,2.506,2.506,0,0,1,1.717.548A1.976,1.976,0,0,1,39.88-4.4v2.918A3.567,3.567,0,0,0,40.1-.094V0Zm-1.8-.826a1.905,1.905,0,0,0,.967-.264,1.6,1.6,0,0,0,.662-.686v-1.3h-.85q-1.992,0-1.992,1.166a.987.987,0,0,0,.34.8A1.306,1.306,0,0,0,37.167-.826Zm6.951-2.4a3.714,3.714,0,0,1,.691-2.347,2.186,2.186,0,0,1,1.811-.888,2.2,2.2,0,0,1,1.764.762V-9h1.084V0h-1l-.053-.68a2.208,2.208,0,0,1-1.811.8,2.165,2.165,0,0,1-1.8-.9,3.756,3.756,0,0,1-.694-2.355ZM45.2-3.1a2.812,2.812,0,0,0,.445,1.688,1.44,1.44,0,0,0,1.23.609,1.581,1.581,0,0,0,1.506-.926V-4.641a1.593,1.593,0,0,0-1.494-.9,1.446,1.446,0,0,0-1.242.615A3.1,3.1,0,0,0,45.2-3.1ZM53.72.117a2.77,2.77,0,0,1-2.1-.847,3.142,3.142,0,0,1-.809-2.265v-.2a3.8,3.8,0,0,1,.36-1.685,2.811,2.811,0,0,1,1.008-1.16,2.534,2.534,0,0,1,1.4-.419,2.374,2.374,0,0,1,1.922.814,3.526,3.526,0,0,1,.686,2.332v.451H51.9a2.254,2.254,0,0,0,.548,1.515,1.722,1.722,0,0,0,1.333.577A1.888,1.888,0,0,0,54.752-1a2.444,2.444,0,0,0,.7-.621l.662.516A2.662,2.662,0,0,1,53.72.117Zm-.135-5.684a1.446,1.446,0,0,0-1.1.478,2.321,2.321,0,0,0-.551,1.339h3.176v-.082a2.065,2.065,0,0,0-.445-1.28A1.361,1.361,0,0,0,53.586-5.566Zm7.84-.773.029.7a2.341,2.341,0,0,1,1.881-.82,1.813,1.813,0,0,1,1.811,1.02,2.4,2.4,0,0,1,.823-.738,2.431,2.431,0,0,1,1.2-.281q2.086,0,2.121,2.209V0H68.2V-4.184A1.456,1.456,0,0,0,67.894-5.2a1.368,1.368,0,0,0-1.043-.337,1.437,1.437,0,0,0-1,.36,1.462,1.462,0,0,0-.463.97V0H64.3V-4.154a1.209,1.209,0,0,0-1.354-1.383,1.45,1.45,0,0,0-1.459.908V0H60.4V-6.34ZM74.993,0a2.277,2.277,0,0,1-.152-.668,2.419,2.419,0,0,1-1.8.785A2.238,2.238,0,0,1,71.5-.413a1.716,1.716,0,0,1-.6-1.345A1.792,1.792,0,0,1,71.65-3.3a3.55,3.55,0,0,1,2.118-.548h1.055v-.5a1.217,1.217,0,0,0-.34-.905,1.366,1.366,0,0,0-1-.337,1.581,1.581,0,0,0-.973.293.863.863,0,0,0-.393.709h-1.09a1.5,1.5,0,0,1,.337-.917,2.3,2.3,0,0,1,.914-.7,3.075,3.075,0,0,1,1.269-.258,2.506,2.506,0,0,1,1.717.548A1.976,1.976,0,0,1,75.907-4.4v2.918A3.567,3.567,0,0,0,76.13-.094V0Zm-1.8-.826a1.905,1.905,0,0,0,.967-.264,1.6,1.6,0,0,0,.662-.686v-1.3h-.85q-1.992,0-1.992,1.166a.987.987,0,0,0,.34.8A1.306,1.306,0,0,0,73.194-.826Zm5.823-7.049V-6.34H80.2V-5.5H79.017v3.937a.88.88,0,0,0,.158.572.666.666,0,0,0,.539.191,2.624,2.624,0,0,0,.516-.07V0A3.161,3.161,0,0,1,79.4.117a1.35,1.35,0,0,1-1.1-.439,1.888,1.888,0,0,1-.369-1.248V-5.5H76.779V-6.34h1.154V-7.875ZM84.145.117a2.77,2.77,0,0,1-2.1-.847,3.142,3.142,0,0,1-.809-2.265v-.2a3.8,3.8,0,0,1,.36-1.685,2.811,2.811,0,0,1,1.008-1.16,2.534,2.534,0,0,1,1.4-.419,2.374,2.374,0,0,1,1.922.814,3.526,3.526,0,0,1,.686,2.332v.451H82.323a2.254,2.254,0,0,0,.548,1.515A1.722,1.722,0,0,0,84.2-.768,1.888,1.888,0,0,0,85.177-1a2.444,2.444,0,0,0,.7-.621l.662.516A2.662,2.662,0,0,1,84.145.117Zm-.135-5.684a1.446,1.446,0,0,0-1.1.478,2.321,2.321,0,0,0-.551,1.339h3.176v-.082a2.065,2.065,0,0,0-.445-1.28A1.361,1.361,0,0,0,84.011-5.566Zm6.866.2a3.248,3.248,0,0,0-.533-.041A1.428,1.428,0,0,0,88.9-4.5V0H87.812V-6.34h1.055l.018.732a1.688,1.688,0,0,1,1.512-.85,1.107,1.107,0,0,1,.48.082ZM92.978,0H91.894V-6.34h1.084ZM91.806-8.021a.647.647,0,0,1,.161-.445.6.6,0,0,1,.478-.182.614.614,0,0,1,.48.182.64.64,0,0,1,.164.445.619.619,0,0,1-.164.439.626.626,0,0,1-.48.176.616.616,0,0,1-.478-.176A.626.626,0,0,1,91.806-8.021ZM98.627,0a2.277,2.277,0,0,1-.152-.668,2.419,2.419,0,0,1-1.8.785,2.238,2.238,0,0,1-1.538-.53,1.716,1.716,0,0,1-.6-1.345A1.792,1.792,0,0,1,95.284-3.3,3.55,3.55,0,0,1,97.4-3.844h1.055v-.5a1.217,1.217,0,0,0-.34-.905,1.366,1.366,0,0,0-1-.337,1.581,1.581,0,0,0-.973.293.863.863,0,0,0-.393.709H94.66A1.5,1.5,0,0,1,95-5.5a2.3,2.3,0,0,1,.914-.7,3.075,3.075,0,0,1,1.269-.258,2.506,2.506,0,0,1,1.717.548A1.976,1.976,0,0,1,99.541-4.4v2.918a3.567,3.567,0,0,0,.223,1.389V0Zm-1.8-.826a1.905,1.905,0,0,0,.967-.264,1.6,1.6,0,0,0,.662-.686v-1.3h-.85q-1.992,0-1.992,1.166a.987.987,0,0,0,.34.8A1.306,1.306,0,0,0,96.828-.826Z" transform="translate(1246.161 4386.713)"/>
    <rect id="Rectángulo_293505" data-name="Rectángulo 293505" width="1525.168" height="288.116" transform="translate(36.416 4204.961)" fill="none"/>
  </g>
</svg>
