<svg xmlns="http://www.w3.org/2000/svg" xmlns:xlink="http://www.w3.org/1999/xlink" width="207.157" height="255.834" viewBox="0 0 207.157 255.834">
  <defs>
    <clipPath id="clip-path">
      <path id="Trazado_616784" data-name="Trazado 616784" d="M493.833,134.833l5-19.166-10-19.167-22.5-8.333L437.167,89,415.5,81.5l-.833-40.833L401.333,27.333l-26.666.834-60,38.333-10.834,43.333,12.545,14.516a94.986,94.986,0,1,0,155.371,21.358l7.084-3.374Z" fill="none"/>
    </clipPath>
    <clipPath id="clip-path-2">
      <path id="Trazado_616782" data-name="Trazado 616782" d="M400.215,170.02s30.419,19.041,32.509,20.2,7.432-40.637,9.289-41.333,16.719,3.625,18.81,7.85-1.162,58.914-9.057,65.3-48.415-5.926-48.415-5.926Z" fill="none"/>
    </clipPath>
    <clipPath id="clip-path-3">
      <path id="Trazado_616783" data-name="Trazado 616783" d="M346.051,232.017l-8.069,9.52s16.951,28.33,16.951,32.046-9.985,10.913-15.557,12.539-35.758-36.689-37.618-42.03,28.33-64.786,33.67-69.663C335.429,174.429,369.445,205.661,346.051,232.017Z" fill="none"/>
    </clipPath>
  </defs>
  <g id="Grupo_877493" data-name="Grupo 877493" transform="translate(-291.676 -27.333)">
    <circle id="Elipse_5006" data-name="Elipse 5006" cx="95" cy="95" r="95" transform="translate(291.676 92.521)" fill="#1d7c6d"/>
    <g id="Grupo_877492" data-name="Grupo 877492">
      <g id="Grupo_877491" data-name="Grupo 877491" clip-path="url(#clip-path)">
        <g id="Grupo_876705" data-name="Grupo 876705">
          <g id="Grupo_876688" data-name="Grupo 876688">
            <g id="Grupo_876680" data-name="Grupo 876680">
              <path id="Trazado_615357" data-name="Trazado 615357" d="M324.611,563.354s-4.251-.7-4.427,1.413,1.154,8.118,2.995,9.014,8.089.383,14.061,2.863,11.392,4.653,21.285,3.839,18.25-1.676,19.75-3.373,2.181-6.645-.757-9.2S324.611,563.354,324.611,563.354Z" fill="#aaaa3e"/>
              <path id="Trazado_615358" data-name="Trazado 615358" d="M320.282,498.007s-.283,22.041.946,36.969c0,0-.576,26.958,2.571,31.242s10.27,1.252,16.672,4.919,27.011,3.369,35.947-.512c0,0,2.272-8.574-1-12.15s-18.571-9.875-18.571-9.875l-14.428-15.369,1.772-37.192Z" fill="#1b2738"/>
              <path id="Trazado_615359" data-name="Trazado 615359" d="M328.787,497.307s.144,29.345,1.814,36.9,12.431,20.471,18.6,22.759a25.7,25.7,0,0,1,15.383-4.916" fill="none" stroke="#006fb7" stroke-miterlimit="10" stroke-width="1"/>
              <g id="Grupo_876679" data-name="Grupo 876679">
                <g id="Grupo_876678" data-name="Grupo 876678">
                  <path id="Trazado_615360" data-name="Trazado 615360" d="M328.667,510.713s9.793-2.28,14.775,1.047" fill="none" stroke="#cbe9f9" stroke-linecap="round" stroke-miterlimit="10" stroke-width="2"/>
                  <path id="Trazado_615361" data-name="Trazado 615361" d="M329.73,523.614s6.614-2.641,13.2-1.086" fill="none" stroke="#cbe9f9" stroke-linecap="round" stroke-miterlimit="10" stroke-width="2"/>
                  <path id="Trazado_615362" data-name="Trazado 615362" d="M332.069,537.227a15.768,15.768,0,0,1,12.463-1.742" fill="none" stroke="#cbe9f9" stroke-linecap="round" stroke-miterlimit="10" stroke-width="2"/>
                  <path id="Trazado_615363" data-name="Trazado 615363" d="M337.731,548.645s4.132-6,14.1-5.388" fill="none" stroke="#cbe9f9" stroke-linecap="round" stroke-miterlimit="10" stroke-width="2"/>
                  <path id="Trazado_615364" data-name="Trazado 615364" d="M346.138,554.942s3.029-4.227,12.4-5.63" fill="none" stroke="#cbe9f9" stroke-linecap="round" stroke-miterlimit="10" stroke-width="2"/>
                </g>
              </g>
            </g>
            <g id="Grupo_876683" data-name="Grupo 876683">
              <path id="Trazado_615365" data-name="Trazado 615365" d="M426.812,558.169s-4.283.469-3.885,2.55,3.292,7.51,5.3,7.879,7.9-1.8,14.312-1.02,12.224,1.422,21.535-2.02S481.206,559.039,482.2,557s.316-6.987-3.2-8.658S426.812,558.169,426.812,558.169Z" fill="#aaaa3e"/>
              <path id="Trazado_615366" data-name="Trazado 615366" d="M405.083,496.387s5.649,21.31,10.839,35.356c0,0,6.687,26.122,10.871,29.4s10.228-1.554,17.38.258,26.923-4.012,34.487-10.151c0,0-.115-8.87-4.227-11.435S453.9,535.3,453.9,535.3L435.87,524.371l-8.285-36.3Z" fill="#1b2738"/>
              <path id="Trazado_615367" data-name="Trazado 615367" d="M413.087,493.428s8.023,28.229,11.66,35.053,17.475,16.378,24.035,16.922a25.706,25.706,0,0,1,13.5-8.869" fill="none" stroke="#006fb7" stroke-miterlimit="10" stroke-width="1"/>
              <g id="Grupo_876682" data-name="Grupo 876682">
                <g id="Grupo_876681" data-name="Grupo 876681">
                  <path id="Trazado_615368" data-name="Trazado 615368" d="M416.574,506.374s8.821-4.827,14.513-2.962" fill="none" stroke="#cbe9f9" stroke-linecap="round" stroke-miterlimit="10" stroke-width="2"/>
                  <path id="Trazado_615369" data-name="Trazado 615369" d="M421.061,518.517s5.662-4.321,12.422-4.592" fill="none" stroke="#cbe9f9" stroke-linecap="round" stroke-miterlimit="10" stroke-width="2"/>
                  <path id="Trazado_615370" data-name="Trazado 615370" d="M426.979,531a15.767,15.767,0,0,1,11.537-5.026" fill="none" stroke="#cbe9f9" stroke-linecap="round" stroke-miterlimit="10" stroke-width="2"/>
                  <path id="Trazado_615371" data-name="Trazado 615371" d="M435.5,540.476s2.369-6.888,12.135-8.979" fill="none" stroke="#cbe9f9" stroke-linecap="round" stroke-miterlimit="10" stroke-width="2"/>
                  <path id="Trazado_615372" data-name="Trazado 615372" d="M445.285,544.284s1.782-4.886,10.427-8.754" fill="none" stroke="#cbe9f9" stroke-linecap="round" stroke-miterlimit="10" stroke-width="2"/>
                </g>
              </g>
            </g>
            <g id="Grupo_876687" data-name="Grupo 876687">
              <g id="Grupo_876684" data-name="Grupo 876684">
                <path id="Trazado_615373" data-name="Trazado 615373" d="M372.3,359.026S386.1,494.5,391.622,496.968s22.627,7.894,31.683,3.455,17.893-7.808,15.8-14.6-24.033-157.942-24.033-157.942S374.572,320.005,372.3,359.026Z" fill="#aaaa3e"/>
                <path id="Trazado_615374" data-name="Trazado 615374" d="M377.458,341.07s8.011,66.73,9.694,85.771,4.006,69.141,13.062,73.582" fill="none" stroke="#fff" stroke-linecap="round" stroke-miterlimit="10" stroke-width="1" stroke-dasharray="4 3"/>
                <path id="Trazado_615375" data-name="Trazado 615375" d="M426.1,402.9c-6.432-.085-17.338,1.452-20.241,3.872-4.553,3.8,1.5,47.712,6.868,47.359,3.8-.25,13.973-.326,20.744-2.332C431.249,437.388,428.649,420.021,426.1,402.9Z" fill="#ffb65d"/>
              </g>
              <g id="Grupo_876686" data-name="Grupo 876686">
                <path id="Trazado_615376" data-name="Trazado 615376" d="M352.7,272.654s-14.481,25.48-19.126,42S312.6,496.1,319.022,499.318s38.319,10.1,43.269-6.227S382.666,348.826,386.1,345.224s27.353-12.272,28.977-17.342S403.35,268.8,403.35,268.8Z" fill="#e4d66f"/>
                <path id="Trazado_615377" data-name="Trazado 615377" d="M357.03,272.654s-10.98,30.187-12.575,41.1-7.844,41.649-9.6,59.487-14.038,122.871-6.5,128.872" fill="none" stroke="#fff" stroke-linecap="round" stroke-miterlimit="10" stroke-width="1" stroke-dasharray="4 3"/>
                <path id="Trazado_615378" data-name="Trazado 615378" d="M344.454,398.994c-6.318,4.4-10.42,47.817-6.472,49.674s24.979,10.6,28.4,5.462,7.9-43.279,5.892-47.358S349.765,395.3,344.454,398.994Z" fill="#ffb65d"/>
                <g id="Grupo_876685" data-name="Grupo 876685">
                  <path id="Trazado_615379" data-name="Trazado 615379" d="M372.3,271.162s-4.825,41.432-8.076,44.449-21.444,8.128-21.444,8.128" fill="none" stroke="#948f34" stroke-miterlimit="10" stroke-width="1"/>
                  <path id="Trazado_615380" data-name="Trazado 615380" d="M396.847,268.8s7.457,36.678,9.012,38.609,6.868,2.746,6.868,2.746" fill="none" stroke="#948f34" stroke-miterlimit="10" stroke-width="1"/>
                  <path id="Trazado_615381" data-name="Trazado 615381" d="M392.663,278.3s9.276,49.4-6.564,66.926" fill="none" stroke="#948f34" stroke-miterlimit="10" stroke-width="1"/>
                  <path id="Trazado_615382" data-name="Trazado 615382" d="M382.916,279.62s1.119,21.991,2.359,23.767,10.062,2.816,10.062,2.816" fill="none" stroke="#948f34" stroke-miterlimit="10" stroke-width="1"/>
                </g>
              </g>
            </g>
          </g>
          <path id="Trazado_615383" data-name="Trazado 615383" d="M378.619,108.515c19.347-34.66,27.116-63.891,14.371-72.018S356.1,60.879,337.982,91.991,312.9,150.972,325.211,158.4C332.7,162.926,349.826,160.1,378.619,108.515Z" fill="#f0793a"/>
          <path id="Trazado_615384" data-name="Trazado 615384" d="M395.338,111.22s7.9,16.429,19.738,24.609c0,0-13.932,16.983-36.457,10.608l2.322-30.461Z" fill="#1b2738"/>
          <path id="Trazado_615385" data-name="Trazado 615385" d="M332.406,114.867s-7.9-15.21,0-31,22.393-16.6,27.5-16.487Z" fill="#f0793a"/>
          <g id="Grupo_876689" data-name="Grupo 876689">
            <path id="Trazado_615386" data-name="Trazado 615386" d="M395.338,90.6s7.432,11,16.022,10.957c0,0-2.322,6.023-8.011,7.866Z" fill="#e9686e"/>
            <path id="Trazado_615387" data-name="Trazado 615387" d="M385.353,75.74c5.532,3.519,12.307,13.325,16.719,25.819s4.18,28.285,1.394,31.537-15.093,4.877-18.113,7.9-3.715,13.468-1.624,19.854-12.076,5.921-19.97,0c0,0,6.734-18.228-4.877-32.858s-18.345-28.1-6.966-40.173S382.37,73.841,385.353,75.74Z" fill="#f5a68e"/>
            <path id="Trazado_615388" data-name="Trazado 615388" d="M390.926,114.867s7.108,4.993,14.12,0" fill="none" stroke="#a12228" stroke-linecap="round" stroke-miterlimit="10" stroke-width="1"/>
            <path id="Trazado_615389" data-name="Trazado 615389" d="M391.844,97.2c.391,2.026-.058,3.818-1,4s-2.026-1.313-2.417-3.341.058-3.818,1-4S391.454,95.176,391.844,97.2Z" fill="#a12228"/>
            <path id="Trazado_615390" data-name="Trazado 615390" d="M392.966,103.021c.228,1.184-1.119,2.44-3.007,2.8s-3.6-.3-3.835-1.487,1.119-2.44,3.007-2.8S392.737,101.832,392.966,103.021Z" fill="#e9686e"/>
            <path id="Trazado_615391" data-name="Trazado 615391" d="M382.867,157.04c-.9-6.126.015-13.578,2.486-16.049,0,0-9.04,2.548-21.587-4.183h0a34.06,34.06,0,0,1,1.881,9.679C370.3,151.733,377.03,156.959,382.867,157.04Z" fill="#e9686e"/>
          </g>
          <path id="Trazado_615392" data-name="Trazado 615392" d="M395.337,87.191s-11.266,4.571-27.577,1.092c0,0,5.715,9.72-1.466,22.74,0,0,8.61,22.521,8.377,35.419,0,0-19.272,14.058-41.1-2.2,0,0,12.2-15.545,12.48-27.509,0,0-8.3-10.352-4.121-20.215S354.237,75.2,371.881,71.87,396.034,76.35,395.337,87.191Z" fill="#1b2738"/>
          <g id="Grupo_876690" data-name="Grupo 876690">
            <path id="Trazado_615393" data-name="Trazado 615393" d="M366.3,111.019s-9.031-5.635-12.9,0,9.246,16.818,18.492,14.667Z" fill="#e9686e"/>
            <path id="Trazado_615394" data-name="Trazado 615394" d="M355.9,119.586s1-8.55,11.862-4.719" fill="none" stroke="#a12228" stroke-linecap="round" stroke-miterlimit="10" stroke-width="1"/>
            <path id="Trazado_615395" data-name="Trazado 615395" d="M371.885,125.686s-10.165-2.808-12.977-10.819" fill="none" stroke="#a12228" stroke-linecap="round" stroke-miterlimit="10" stroke-width="1"/>
          </g>
          <path id="Trazado_615396" data-name="Trazado 615396" d="M399.055,47.869c-.559-5.2-2.513-9.108-6.064-11.372-12.749-8.128-36.895,24.382-55.009,55.494S312.9,150.972,325.211,158.4a11.023,11.023,0,0,0,7.109,1.4c-2.929-2.513-5.792-7.829-3.858-19.047,3.483-20.2,31.453-69.658,47.306-87.311C385.57,42.533,393.8,42.637,399.055,47.869Z" fill="#ffb65d"/>
          <g id="Grupo_876698" data-name="Grupo 876698">
            <g id="Grupo_876697" data-name="Grupo 876697">
              <g id="Grupo_876692" data-name="Grupo 876692">
                <path id="Trazado_615397" data-name="Trazado 615397" d="M473.128,129.381s7.59-16.022,11.343-20.087-3.447-1.48-6.466,1.525c0,0,2.322-4.891,0-4.659s-9.753,5.806-11.146,10.1-20.443,2.206-22.065,7.547.319,13.416.319,13.416Z" fill="#e9686e"/>
                <g id="Grupo_876691" data-name="Grupo 876691">
                  <path id="Trazado_615398" data-name="Trazado 615398" d="M458.736,108.18s-.68-7.52,1.562-10.951c0,0,2.242-.4,2.375.791Z" fill="#aaaa3e"/>
                  <path id="Trazado_615399" data-name="Trazado 615399" d="M458.122,106.993c.855.927,6.663-3.3,10.357-1.847s7.257,10.434,3.3,17.091-7.783,7.448-9.367,6.855-3.431-1.517-5.013-.463-5.7,2.06-8.971-3.1-7.859-14.406-1.056-19.461C451.248,103.187,454.23,102.771,458.122,106.993Z" fill="#d2000f"/>
                  <path id="Trazado_615400" data-name="Trazado 615400" d="M453.345,107.234c-3.244-1.89-7.684,2.935-6.9,6.979s2.708,8.112,6.9,7.471S458.852,110.445,453.345,107.234Z" fill="#dc233a"/>
                </g>
                <path id="Trazado_615401" data-name="Trazado 615401" d="M444.8,145.693s-.233-17.663,2.786-20.007,13.273-.12,23.955-.877c0,0,4.876-7.629,10.913-8.721s-3.25,6.107-4.876,10.286a23.3,23.3,0,0,1-3.97,6.734l-17.429,2.722L454.6,172.8Z" fill="#f5a68e"/>
              </g>
              <path id="Trazado_615402" data-name="Trazado 615402" d="M442.477,152.083s.464-10.4,2.322-11.092,12.771,2.09,14.164,3.483.5,13.441-2.422,13.919S442.477,152.083,442.477,152.083Z" fill="#5b0c16"/>
              <g id="Grupo_876696" data-name="Grupo 876696">
                <path id="Trazado_615403" data-name="Trazado 615403" d="M400.215,170.02s30.419,19.041,32.509,20.2,7.432-40.637,9.289-41.333,16.719,3.625,18.81,7.85-1.162,58.914-9.057,65.3-48.415-5.926-48.415-5.926Z" fill="#da5411"/>
                <g id="Grupo_876695" data-name="Grupo 876695">
                  <g id="Grupo_877488" data-name="Grupo 877488">
                    <g id="Grupo_877487" data-name="Grupo 877487" clip-path="url(#clip-path-2)">
                      <g id="Grupo_876694" data-name="Grupo 876694">
                        <g id="Grupo_876693" data-name="Grupo 876693">
                          <path id="Trazado_615404" data-name="Trazado 615404" d="M402.648,205.786s39.133,10.44,40.757,9.976.7-5.086,2.322-4.981,1.393,6.231,2.555,3.864,8.9-61.062,8.9-61.062" fill="none" stroke="#e65765" stroke-miterlimit="10" stroke-width="1"/>
                          <path id="Trazado_615405" data-name="Trazado 615405" d="M432.724,191.5c-1.044,9.056,3.484,31.348,11.494,34.831" fill="none" stroke="#e65765" stroke-miterlimit="10" stroke-width="1"/>
                          <path id="Trazado_615406" data-name="Trazado 615406" d="M424.364,184.877c-5.572,4.529-14.28,34.483-10.1,39.011" fill="none" stroke="#e65765" stroke-miterlimit="10" stroke-width="1"/>
                          <path id="Trazado_615407" data-name="Trazado 615407" d="M412.87,178.609c-4.528,6.269-19.5,20.55-16.719,28.213" fill="none" stroke="#e65765" stroke-miterlimit="10" stroke-width="1"/>
                          <path id="Trazado_615408" data-name="Trazado 615408" d="M433.42,186.617c6.27-.348,24.731,15.326,24.731,20.9" fill="none" stroke="#e65765" stroke-miterlimit="10" stroke-width="1"/>
                          <path id="Trazado_615409" data-name="Trazado 615409" d="M433.769,178.26c6.966.349,30.652,4.877,30.652,12.887" fill="none" stroke="#e65765" stroke-miterlimit="10" stroke-width="1"/>
                          <path id="Trazado_615410" data-name="Trazado 615410" d="M435.859,166.418c10.8-3.484,22.292.348,32.045,5.572" fill="none" stroke="#e65765" stroke-miterlimit="10" stroke-width="1"/>
                          <path id="Trazado_615411" data-name="Trazado 615411" d="M400.329,179.3c11.494,8.011,23.336,16.022,36.224,21.943h0c1.045-2.09,1.045-2.09,3.484-1.045.7-9.056,1.393-17.763,2.09-26.819.7-6.619-1.045-20.191.349-26.461" fill="none" stroke="#e65765" stroke-miterlimit="10" stroke-width="1"/>
                        </g>
                      </g>
                    </g>
                  </g>
                </g>
              </g>
            </g>
            <path id="Trazado_615413" data-name="Trazado 615413" d="M434.815,193.47s6.5,7.9,8.591,16.022" fill="none" stroke="#5b0c16" stroke-miterlimit="10" stroke-width="1"/>
          </g>
          <g id="Grupo_876704" data-name="Grupo 876704">
            <g id="Grupo_876702" data-name="Grupo 876702">
              <path id="Trazado_615414" data-name="Trazado 615414" d="M363.758,160.845s-22.989,8.708-28.33,13.584-35.529,64.322-33.67,69.663,32.045,43.655,37.618,42.03,15.557-8.823,15.557-12.539-16.951-32.049-16.951-32.049l8.069-9.52s1.22,43.19,8.65,46.442,48.626,1.626,50.785-6.734-1.415-34.367-.44-41.1,6.6-14.862,4.249-23.8-3.043-31.465-9.08-36.805-16.486-9.172-16.486-9.172Z" fill="#da5411"/>
              <g id="Grupo_876701" data-name="Grupo 876701">
                <g id="Grupo_877490" data-name="Grupo 877490">
                  <g id="Grupo_877489" data-name="Grupo 877489" clip-path="url(#clip-path-3)">
                    <g id="Grupo_876700" data-name="Grupo 876700">
                      <g id="Grupo_876699" data-name="Grupo 876699">
                        <path id="Trazado_615415" data-name="Trazado 615415" d="M361.83,165l-24.995,12.2s-28.575,57.369-26.949,58.066.331,3.715-.067,3.947-2.488,2.091-1.79,2.322,4.179,2.555,4.876,3.948,29.874,42.03,29.874,42.03" fill="none" stroke="#e65765" stroke-miterlimit="10" stroke-width="1"/>
                        <path id="Trazado_615416" data-name="Trazado 615416" d="M325.444,188.01c2.438.7,12.191,8.012,14.977,12.191a57.127,57.127,0,0,1,9.056,20.552c.349,2.09,0,5.225,1.045,6.269" fill="none" stroke="#e65765" stroke-miterlimit="10" stroke-width="1"/>
                        <path id="Trazado_615417" data-name="Trazado 615417" d="M317.783,206.126c13.584,5.224,19.157,19.854,22.292,31.348" fill="none" stroke="#e65765" stroke-miterlimit="10" stroke-width="1"/>
                        <path id="Trazado_615418" data-name="Trazado 615418" d="M305.59,231.552c11.146-2.437,25.426,3.831,33.438,11.494" fill="none" stroke="#e65765" stroke-miterlimit="10" stroke-width="1"/>
                        <path id="Trazado_615419" data-name="Trazado 615419" d="M308.376,257.328c10.449-7.315,17.764-14.282,30.652-14.978" fill="none" stroke="#e65765" stroke-miterlimit="10" stroke-width="1"/>
                        <path id="Trazado_615420" data-name="Trazado 615420" d="M317.783,276.486c8.011-11.843,11.057-20.968,26.732-23.754" fill="none" stroke="#e65765" stroke-miterlimit="10" stroke-width="1"/>
                        <path id="Trazado_615421" data-name="Trazado 615421" d="M327.185,288.676c2.438-10.1,12.633-23.254,23.082-25.345" fill="none" stroke="#e65765" stroke-miterlimit="10" stroke-width="1"/>
                        <path id="Trazado_615422" data-name="Trazado 615422" d="M346.691,189.407c-5.573,6.269-9.4,16.022-13.933,23.685-4.179,6.617-11.494,17.066-12.887,24.729-.7,3.135,1.393,5.573,3.135,8.012,3.135,4.528,6.966,8.707,10.449,13.235,3.484,4.18,11.588,21.6,16.812,22.3" fill="none" stroke="#e65765" stroke-miterlimit="10" stroke-width="1"/>
                        <path id="Trazado_615423" data-name="Trazado 615423" d="M352.612,207.17c-6.27,8.012-19.157,24.731-16.719,35.529,1.393,5.573,14.977,32.741,20.2,31.7" fill="none" stroke="#e65765" stroke-miterlimit="10" stroke-width="1"/>
                      </g>
                    </g>
                  </g>
                </g>
              </g>
            </g>
            <path id="Trazado_615425" data-name="Trazado 615425" d="M377.459,225.748a44.607,44.607,0,0,1,19.389-3.715" fill="none" stroke="#5b0c16" stroke-miterlimit="10" stroke-width="1"/>
            <path id="Trazado_615426" data-name="Trazado 615426" d="M386.1,225.747s7.123-1.044,13.13,1.393" fill="none" stroke="#5b0c16" stroke-miterlimit="10" stroke-width="1"/>
            <path id="Trazado_615427" data-name="Trazado 615427" d="M316.619,241.537s11.378-3.483,21.363,0" fill="none" stroke="#5b0c16" stroke-miterlimit="10" stroke-width="1"/>
            <path id="Trazado_615428" data-name="Trazado 615428" d="M334.54,175.437a49.5,49.5,0,0,1,16.678,21.517c5.341,13.933,4.062,24.615-5.168,35.063" fill="none" stroke="#5b0c16" stroke-miterlimit="10" stroke-width="1"/>
            <path id="Trazado_615429" data-name="Trazado 615429" d="M340.3,282.406s4.877,7.43,8.359,7.663,10.471-6.987,10.244-8.823-6.212-8.592-6.212-8.592Z" fill="#5b0c16"/>
            <path id="Trazado_615430" data-name="Trazado 615430" d="M350.27,226.333s3.517,46.969,6.763,52.8" fill="none" stroke="#5b0c16" stroke-miterlimit="10" stroke-width="1"/>
            <g id="Grupo_876703" data-name="Grupo 876703">
              <path id="Trazado_615431" data-name="Trazado 615431" d="M357.36,282.537s17.232-3.861,22.682-4.542,14.078,7.769,15.668,10.445.908,2.952-2.5,1.363-8.4-5.27-11.127-5.587c0,0,5.677,6.95,4.314,9.22s-4.314,3.179-4.542,5-2.952.681-5,2.725-7.494-4.314-10.219-4.428-9.31,5.242-16.122-6.973Z" fill="#f5a68e"/>
              <path id="Trazado_615432" data-name="Trazado 615432" d="M370.276,290.239s5.109.932,8.343,9.835" fill="none" stroke="#a12228" stroke-linecap="round" stroke-miterlimit="10" stroke-width="1"/>
              <path id="Trazado_615433" data-name="Trazado 615433" d="M374.478,284.584s5.687-.41,9.486,11.32" fill="none" stroke="#a12228" stroke-linecap="round" stroke-miterlimit="10" stroke-width="1"/>
            </g>
            <path id="Trazado_615434" data-name="Trazado 615434" d="M380.245,161.658s13.933,30.8,15.093,40.6-3.352,19.863-3.352,19.863,1.03,42.668-1.059,56.181" fill="none" stroke="#5b0c16" stroke-miterlimit="10" stroke-width="1"/>
            <path id="Trazado_615435" data-name="Trazado 615435" d="M388.141,186.1a2.612,2.612,0,1,1-2.613-2.613,2.612,2.612,0,0,1,2.613,2.613Z" fill="#ffb65d"/>
            <circle id="Elipse_4960" data-name="Elipse 4960" cx="2.612" cy="2.612" r="2.612" transform="translate(386.224 209.493)" fill="#ffb65d"/>
            <circle id="Elipse_4961" data-name="Elipse 4961" cx="2.612" cy="2.612" r="2.612" transform="translate(385.275 238.926)" fill="#ffb65d"/>
            <path id="Trazado_615436" data-name="Trazado 615436" d="M390.5,261.536a2.612,2.612,0,1,1-2.615-2.611,2.612,2.612,0,0,1,2.615,2.611Z" fill="#ffb65d"/>
            <path id="Trazado_615437" data-name="Trazado 615437" d="M365.183,154.928l15.065,6.73,2.62-4.613s7.174,12.74,7.27,14.829-9.89-10.216-9.89-10.216-3.019,16.914-6.27,16.45S359.9,162.355,359.9,162.355Z" fill="#a0081a"/>
          </g>
        </g>
      </g>
    </g>
  </g>
</svg>
