<svg xmlns="http://www.w3.org/2000/svg" width="127.445" height="131.215" viewBox="0 0 127.445 131.215">
  <g id="Grupo_877495" data-name="Grupo 877495" transform="translate(-285 -1389.421)">
    <g id="Grupo_877446" data-name="Grupo 877446" transform="translate(285 1389.421)">
      <g id="Grupo_875403" data-name="Grupo 875403" transform="translate(0 0)">
        <path id="Trazado_612672" data-name="Trazado 612672" d="M742.937,512.379c14.537-31.536,49.986-47.324,82.962-35.946.668.2,2.51.935,3.2,1.21.6.209,1.509.623,2.1.9l2.074.956c.988.458,2.05,1.107,3.031,1.6,1.165.62,2.793,1.671,3.924,2.35.567.382,2.229,1.547,2.825,1.952a65.779,65.779,0,0,1,23.763,74.151c-.283.708-.916,2.594-1.213,3.287-.228.526-.681,1.625-.909,2.153-.311.824-1.13,2.373-1.491,3.174-.475.985-1.147,2.122-1.657,3.092-.427.783-1.374,2.232-1.82,3-.442.594-1.53,2.313-1.989,2.893-.353.448-1.068,1.407-1.422,1.859-1.111,1.418-2.568,3.132-3.817,4.43-14.8,16.071-38.026,23.719-59.433,19.271a1.839,1.839,0,0,1,.56-3.632,69.192,69.192,0,0,0,17.34-.133c.758-.107,2.474-.415,3.2-.518.605-.146,2.512-.541,3.16-.691,2.261-.572,4.487-1.27,6.693-2.024,1.142-.469,2.365-.906,3.492-1.395.7-.309,2.259-1.059,2.923-1.354a63.293,63.293,0,0,0,13.338-8.92c.926-.764,2.293-2.042,3.162-2.9.433-.383,1.082-1.117,1.492-1.54,21.6-22.58,22.74-59.044,2.437-82.914-25.11-30.069-72.191-29.39-96.093,1.826a58.415,58.415,0,0,0-8.432,15.276,1.839,1.839,0,1,1-3.394-1.413Z" transform="translate(-742.764 -472.746)" fill="#fda829"/>
      </g>
    </g>
    <circle id="Elipse_5002" data-name="Elipse 5002" cx="57.981" cy="57.981" r="57.981" transform="translate(287.011 1396.41)" fill="#148d80"/>
    <g id="Grupo_877454" data-name="Grupo 877454" transform="translate(314.368 1417.112)">
      <path id="Trazado_616684" data-name="Trazado 616684" d="M150.637,972.692a3.429,3.429,0,0,0-.665-2.907,8.861,8.861,0,0,1,.916-11.541.9.9,0,0,1,1.451.035c2.216,2.308,4.023,6.005,1.717,10.115a9.656,9.656,0,0,1-.987,1.641,3.059,3.059,0,0,0-.416,2.8,2.01,2.01,0,0,1,.22-.371c3.257-3.49,7.264-4.5,11.852-3.545.877.183,1.069.57.832,1.443A11.99,11.99,0,0,1,153,979.091c-.147-.012-.3,0-.483,0v4.825h11.761a3.164,3.164,0,0,1,.639.022.885.885,0,0,1,0,1.746,3.011,3.011,0,0,1-.639.023H103.669a4.222,4.222,0,0,1-.513-.008.889.889,0,0,1-.022-1.773,4.124,4.124,0,0,1,.576-.01h11.7v-4.847c-.881,0-1.752.063-2.612-.01a11.923,11.923,0,0,1-10.381-8.691c-.236-.876-.047-1.263.828-1.445,4.56-.951,8.555.035,11.809,3.5l.368.393c-.008-.921.192-1.683-.315-2.433a25.587,25.587,0,0,1-1.514-2.593,6.976,6.976,0,0,1-.269-5.825,9.947,9.947,0,0,1,2.274-3.669.9.9,0,0,1,1.494-.009c2.2,2.269,4.056,6,1.69,10.172a10.289,10.289,0,0,1-.957,1.585,3.526,3.526,0,0,0-.545,2.747c.16-.147.263-.23.352-.326,3.282-3.507,7.312-4.5,11.92-3.524.759.161.98.58.8,1.32a11.982,11.982,0,0,1-10.3,8.8c-.908.074-1.828.01-2.772.01v4.812h15.783V959.778a18.608,18.608,0,0,1-14.636-8.374,17.56,17.56,0,0,1-2.976-12.542,18.68,18.68,0,1,1,19.483,20.917v24.088h15.707V979.2a28.225,28.225,0,0,1-3.559-.286,11.7,11.7,0,0,1-9.415-8.568c-.261-.849-.035-1.248.854-1.43,4.561-.936,8.557.045,11.8,3.523.073.078.146.155.221.23C150.547,972.68,150.571,972.678,150.637,972.692ZM134.885,957.9a17.253,17.253,0,1,0-1.8-.032v-.5c0-1.984-.015-3.969.011-5.953a.828.828,0,0,0-.515-.835c-2.486-1.413-4.958-2.851-7.434-4.282-.756-.437-.962-.895-.645-1.413s.809-.555,1.567-.118q2.275,1.311,4.548,2.625c.789.454,1.581.9,2.468,1.408v-.72c0-2.262-.005-4.524,0-6.785,0-.83.671-1.36,1.266-.959a1.392,1.392,0,0,1,.5.995c.044,2.261.022,4.523.024,6.785,0,.2.023.4.038.655.258-.139.445-.234.627-.338l6.323-3.648a2.719,2.719,0,0,1,.508-.269.854.854,0,0,1,1.1.4.82.82,0,0,1-.2,1.094,3.083,3.083,0,0,1-.536.347c-2.459,1.418-4.923,2.828-7.374,4.26-.2.119-.459.381-.462.58C134.873,953.417,134.885,955.633,134.885,957.9Zm-17.106,17.514c1.354-.779,2.541-1.484,3.752-2.141a1.309,1.309,0,0,1,.945-.16.983.983,0,0,1,.556.737,1.321,1.321,0,0,1-.55.9c-1.247.78-2.538,1.488-3.811,2.226-.128.075-.241.177-.423.312,4.96.353,9.172-3.3,10.052-6.77A9.889,9.889,0,0,0,117.779,975.417Zm35.341-.052c1.227-.708,2.381-1.375,3.537-2.039.742-.426,1.26-.369,1.553.163.279.505.07.968-.632,1.376-1.217.706-2.436,1.408-3.652,2.115a5.218,5.218,0,0,0-.422.312,10,10,0,0,0,10.058-6.77C159.711,969.8,154.95,971.486,153.12,975.365Zm-38.286,0c-1.392-3.427-6.661-5.819-10.432-4.813,1.349,4.5,6.43,7.219,10.025,6.674-.293-.176-.543-.331-.8-.479-1.164-.674-2.334-1.336-3.491-2.023a.862.862,0,0,1-.4-1.243.889.889,0,0,1,1.277-.306c.209.106.407.235.611.352Zm35.3.035a9.754,9.754,0,0,0-10.473-4.858,9.913,9.913,0,0,0,10.027,6.71c-.219-.141-.385-.258-.561-.36-1.2-.694-2.409-1.374-3.6-2.086-.242-.145-.543-.38-.587-.617a1.264,1.264,0,0,1,.238-.916.808.808,0,0,1,1.108-.086C147.525,973.9,148.759,974.609,150.136,975.4Zm-33.794-15.179c-1.8,1.929-2.261,5.181-.9,7.051,0-.346,0-.567,0-.787a11.41,11.41,0,0,1,.051-1.847.858.858,0,0,1,1.532-.419,1.2,1.2,0,0,1,.2.77c.025.734.009,1.469.009,2.329C118.855,964.865,117.827,961.809,116.342,960.223Zm34.343,6.941c0-.735-.034-1.473.016-2.205a1.4,1.4,0,0,1,.363-.891.924.924,0,0,1,.86-.109,1.245,1.245,0,0,1,.53.836c.072.8.024,1.607.024,2.581a5.955,5.955,0,0,0-.907-7.133C150.192,961.847,149.11,964.815,150.685,967.163Z" transform="translate(-102.315 -922.449)" fill="#fff"/>
    </g>
  </g>
</svg>
