<svg xmlns="http://www.w3.org/2000/svg" width="128.66" height="132.466" viewBox="0 0 128.66 132.466">
  <g id="Grupo_877497" data-name="Grupo 877497" transform="translate(-579.202 -856.744)">
    <g id="Grupo_877447" data-name="Grupo 877447" transform="translate(579.202 856.744)">
      <g id="Grupo_875403" data-name="Grupo 875403" transform="translate(0 0)">
        <path id="Trazado_612672" data-name="Trazado 612672" d="M742.939,512.757c14.676-31.836,50.462-47.775,83.753-36.289.674.207,2.534.944,3.231,1.222.6.211,1.524.629,2.118.908l2.094.965c1,.462,2.07,1.117,3.06,1.615,1.176.626,2.82,1.687,3.962,2.372.572.386,2.25,1.561,2.852,1.971A66.406,66.406,0,0,1,868,560.379c-.286.714-.925,2.619-1.225,3.318-.23.531-.687,1.64-.917,2.174-.314.832-1.141,2.4-1.505,3.2-.479.995-1.158,2.142-1.673,3.121-.431.791-1.387,2.253-1.837,3.029-.446.6-1.544,2.335-2.007,2.92-.356.453-1.078,1.42-1.435,1.877-1.122,1.431-2.593,3.162-3.853,4.472-14.944,16.224-38.388,23.945-60,19.455a1.857,1.857,0,0,1,.565-3.667,69.847,69.847,0,0,0,17.505-.134c.765-.108,2.5-.419,3.226-.523.611-.147,2.536-.546,3.19-.7,2.283-.577,4.53-1.282,6.757-2.043,1.152-.474,2.388-.914,3.526-1.408.7-.312,2.281-1.069,2.951-1.367a63.9,63.9,0,0,0,13.465-9.005c.935-.772,2.315-2.061,3.192-2.927.437-.387,1.092-1.128,1.507-1.555,21.8-22.8,22.957-59.608,2.46-83.7-25.35-30.355-72.88-29.67-97.01,1.844a58.976,58.976,0,0,0-8.512,15.421,1.857,1.857,0,1,1-3.427-1.426Z" transform="translate(-742.764 -472.746)" fill="#fda829"/>
      </g>
    </g>
    <ellipse id="Elipse_5003" data-name="Elipse 5003" cx="58.534" cy="58.534" rx="58.534" ry="58.534" transform="translate(581.232 863.8)" fill="#148d80"/>
    <g id="Grupo_877452" data-name="Grupo 877452" transform="translate(606.652 888.331)">
      <path id="Trazado_616678" data-name="Trazado 616678" d="M150,886.21a36.509,36.509,0,0,1,.743-3.577,17.981,17.981,0,0,1,11.112-11.915.876.876,0,0,0,.678-.986c-.026-3.348-.013-6.7-.013-10.044v-.771c-.318,0-.587.005-.855,0a2.418,2.418,0,0,1-2.47-2.384c-.04-.968-.04-1.94,0-2.909a2.424,2.424,0,0,1,2.6-2.4c2.012-.026,4.024-.008,6.037-.008,2.221,0,4.441-.007,6.661,0a2.5,2.5,0,0,1,2.815,2.823q0,1.039,0,2.078a2.49,2.49,0,0,1-2.765,2.794c-.158,0-.316,0-.575,0,0,.914.019,1.782-.006,2.649a1.034,1.034,0,0,1-1.038,1.142.985.985,0,0,1-1.025-1.063c-.023-.874-.006-1.748-.006-2.675H164.6v.763q0,5.3,0,10.6a1.839,1.839,0,0,1-1.525,2.147,16.14,16.14,0,1,0,20.878,19.092,2.163,2.163,0,0,0,.025-.29l-1.882-.44c-.058.157-.132.319-.178.489a14.133,14.133,0,0,1-27.553-.936,13.79,13.79,0,0,1,1.886-10.1,2.043,2.043,0,0,1,1.938-.964c3.145.007,6.291,0,9.436,0,2.614,0,5.228-.009,7.841.009a1.131,1.131,0,0,0,.986-.47,8.724,8.724,0,0,1,1.5-1.425,15.906,15.906,0,0,1,1.785-1,16.084,16.084,0,0,0-5.883-3.808c-.259-.1-.524-.179-.783-.279a1.656,1.656,0,0,1-1.173-1.627c-.011-1.339-.016-2.679,0-4.018a1.027,1.027,0,0,1,1.035-1.135,1.054,1.054,0,0,1,1.032,1.157c.023,1.062.026,2.125,0,3.186a.658.658,0,0,0,.525.743,18.183,18.183,0,0,1,7.571,5.2,1.279,1.279,0,0,0,.587.443,9.127,9.127,0,0,1,5.809,4.491,10.994,10.994,0,0,1,1.472,8.241.865.865,0,0,0,.281.9c.776.758,1.531,1.537,2.345,2.36.885-.884,1.745-1.716,2.562-2.588a.953.953,0,0,0,.085-.7,11.168,11.168,0,0,1,4.444-11.419,6.257,6.257,0,0,1,8.4.533,6.326,6.326,0,0,1,.831,8.432c-.46.651-1.058.83-1.587.475s-.587-.978-.13-1.639a4.08,4.08,0,0,0,.28-4.682,4.3,4.3,0,0,0-4.095-2.365,4.375,4.375,0,0,0-2.129.7,9.094,9.094,0,0,0-4.147,8.336,1.459,1.459,0,0,0,.077.265c.181-.157.335-.275.472-.411,1.442-1.434,2.874-2.878,4.323-4.305.686-.676,1.709-.5,1.834.346a1.583,1.583,0,0,1-.422,1.144c-1.354,1.422-2.765,2.791-4.154,4.179-.162.161-.315.331-.473.5l.034.22c.937-.087,1.883-.121,2.807-.279a9.869,9.869,0,0,0,1.837-.6c.79-.3,1.347-.191,1.623.38.294.608.02,1.177-.757,1.523a11.16,11.16,0,0,1-6.909.783.972.972,0,0,0-1.028.325c-.749.785-1.555,1.519-2.285,2.321a1.677,1.677,0,0,0-.43,1.005c-.037,2.42-.02,4.841-.02,7.362h13.691a4.834,4.834,0,0,1,.693.014.964.964,0,0,1,.912.966.976.976,0,0,1-.87,1.074,3.889,3.889,0,0,1-.761.023q-15.2,0-30.392.013a3.863,3.863,0,0,0-1.463.3,18.315,18.315,0,0,1-25.242-14.255c-.047-.338-.11-.674-.166-1.01Zm6.4-.658a12.286,12.286,0,0,0,.11,4.953,12.067,12.067,0,0,0,23.447.149.787.787,0,0,0-.418-1.044,10.176,10.176,0,0,1-3.565-3.518.984.984,0,0,0-.979-.55q-8.949.022-17.9.01Zm35.112,16.567c0-2.62,0-5.176-.009-7.733a.675.675,0,0,0-.2-.413c-.891-.905-1.785-1.808-2.7-2.687a.844.844,0,0,0-.6-.189c-.616.067-1.225.193-1.873.3a18.433,18.433,0,0,1-6.63,10.72Zm-3.477-14.358a9.3,9.3,0,0,0-3.874-8.58,4.445,4.445,0,0,0-6.184,6.2,9.07,9.07,0,0,0,5.67,3.685,23.761,23.761,0,0,0,2.736.246l.043-.222q-1.912-1.9-3.823-3.81a13.642,13.642,0,0,1-1.06-1.092,1.024,1.024,0,0,1,1.444-1.439,5.567,5.567,0,0,1,.5.476Zm-19.73-30.922c2.056,0,4.112-.017,6.167.011.585.008.784-.205.759-.766a19.138,19.138,0,0,1,0-2.005c.037-.622-.232-.835-.817-.785-.3.025-.6,0-.9,0q-5.682,0-11.364,0c-.854,0-.886.037-.888.9q0,.865,0,1.729c0,.906,0,.907.944.907Zm6.807,24.645a1.1,1.1,0,0,0-.211-.063q-8.249-.008-16.5,0a.686.686,0,0,0-.516.232c-.324.545-.592,1.124-.92,1.765h18Z" transform="translate(-150 -840.678)" fill="#fff"/>
      <path id="Trazado_616679" data-name="Trazado 616679" d="M283.955,855.668c-1.152,1.218-2.266,2.475-3.473,3.635a1.566,1.566,0,0,1-2.149-.167c-.642-.6-1.251-1.232-1.873-1.852q-5.2-5.19-10.4-10.383c-.163-.163-.306-.345-.477-.54a15.144,15.144,0,0,1-12.8,1.29,14.6,14.6,0,0,1-7.911-6.409,15.052,15.052,0,1,1,25.818.02l2.877,2.856c.164.163.332.322.49.49a1.043,1.043,0,0,1,.087,1.588,1.021,1.021,0,0,1-1.537-.109c-.877-.855-1.736-1.728-2.6-2.592-.162-.161-.332-.315-.455-.432l-2.073,2.152,11.984,11.968,2.146-2.114-4.969-4.954c-.163-.163-.335-.32-.484-.5a1.044,1.044,0,0,1,.006-1.439,1.023,1.023,0,0,1,1.439-.019c.611.563,1.187,1.165,1.776,1.752,1.129,1.126,2.266,2.243,3.38,3.384.429.439.8.932,1.2,1.4ZM257.8,846.419a12.947,12.947,0,1,0-12.99-12.906A12.944,12.944,0,0,0,257.8,846.419Z" transform="translate(-212.902 -818.449)" fill="#fff"/>
      <path id="Trazado_616680" data-name="Trazado 616680" d="M214.741,966.679a1.019,1.019,0,1,1,.052-2.038,1.019,1.019,0,1,1-.052,2.038Z" transform="translate(-193.249 -917.636)" fill="#fff"/>
      <path id="Trazado_616681" data-name="Trazado 616681" d="M193.592,973.142a1.019,1.019,0,1,1,.052-2.038,1.019,1.019,0,1,1-.052,2.038Z" transform="translate(-178.901 -922.02)" fill="#fff"/>
      <path id="Trazado_616682" data-name="Trazado 616682" d="M208.7,987.361a1.019,1.019,0,1,1,.052-2.038,1.019,1.019,0,1,1-.052,2.038Z" transform="translate(-189.15 -931.667)" fill="#fff"/>
      <path id="Trazado_616683" data-name="Trazado 616683" d="M277.318,842.027a11.006,11.006,0,1,1-11.067-10.95A10.982,10.982,0,0,1,277.318,842.027Zm-10.975-8.873a8.9,8.9,0,1,0,8.895,8.912A8.889,8.889,0,0,0,266.343,833.154Z" transform="translate(-221.447 -827.017)" fill="#fff"/>
    </g>
  </g>
</svg>
