<svg xmlns="http://www.w3.org/2000/svg" width="125.428" height="129.139" viewBox="0 0 125.428 129.139">
  <g id="Grupo_877498" data-name="Grupo 877498" transform="translate(-475 -1012.953)">
    <g id="Grupo_877448" data-name="Grupo 877448" transform="translate(475 1012.953)">
      <g id="Grupo_875403" data-name="Grupo 875403" transform="translate(0 0)">
        <path id="Trazado_612672" data-name="Trazado 612672" d="M742.935,511.752c14.307-31.036,49.195-46.575,81.649-35.377.657.2,2.47.921,3.15,1.191.588.205,1.485.613,2.064.885l2.041.941c.972.451,2.018,1.089,2.983,1.575,1.146.61,2.749,1.645,3.862,2.313.558.376,2.194,1.522,2.78,1.922a64.738,64.738,0,0,1,23.387,72.978c-.279.7-.9,2.553-1.194,3.235-.224.518-.67,1.6-.894,2.119-.306.811-1.112,2.335-1.467,3.123-.467.97-1.129,2.089-1.631,3.043-.42.771-1.353,2.2-1.791,2.953-.435.584-1.506,2.276-1.957,2.847-.347.441-1.051,1.385-1.4,1.83-1.093,1.4-2.528,3.083-3.756,4.359-14.569,15.816-37.424,23.344-58.492,18.966a1.81,1.81,0,0,1,.551-3.575,68.1,68.1,0,0,0,17.065-.131c.746-.105,2.435-.408,3.145-.51.6-.143,2.473-.532,3.109-.68,2.226-.562,4.416-1.25,6.587-1.992,1.123-.462,2.328-.891,3.437-1.372.687-.3,2.224-1.042,2.877-1.333a62.292,62.292,0,0,0,13.127-8.779c.911-.752,2.257-2.009,3.112-2.854.426-.377,1.064-1.1,1.469-1.516,21.256-22.222,22.38-58.11,2.4-81.6-24.713-29.593-71.049-28.925-94.573,1.8a57.491,57.491,0,0,0-8.3,15.034,1.81,1.81,0,1,1-3.341-1.391Z" transform="translate(-742.764 -472.746)" fill="#fda829"/>
      </g>
    </g>
    <ellipse id="Elipse_5004" data-name="Elipse 5004" cx="57.064" cy="57.064" rx="57.064" ry="57.064" transform="translate(476.979 1019.832)" fill="#148d80"/>
    <g id="Grupo_877450" data-name="Grupo 877450" transform="translate(501.8 1045.343)">
      <path id="Trazado_616665" data-name="Trazado 616665" d="M181.411,960.43v-3.117c-.632,0-1.252,0-1.872,0a5.195,5.195,0,0,1-3.595-9.112,1.215,1.215,0,0,0,.3-.722,6.25,6.25,0,0,1,12.294-1.014c.032.125.053.253.075.381a2.622,2.622,0,0,0,1.143,2.1,2.859,2.859,0,0,0,1.178-1.99,6.208,6.208,0,0,1,12.313.415c.07.823.729,1.045,1.05,1.591a2.861,2.861,0,0,0,1.21-2.021,6.144,6.144,0,0,1,6.442-5.206,6.3,6.3,0,0,1,5.918,5.71,1.485,1.485,0,0,0,.416.861,5.193,5.193,0,0,1-3.494,9c-.688.01-1.376,0-2.092,0v3.118h15.128c1.273,0,1.62.408,1.39,1.682-2.091,11.593-8.521,19.864-19.237,24.733a30.359,30.359,0,0,1-16.637,2.441c-10.89-1.387-19.108-6.879-24.668-16.311a31.15,31.15,0,0,1-3.857-11.216c-.132-.862.331-1.327,1.308-1.328q7.219,0,14.439,0Zm45.679,2.124H189.766c0,.975.046,1.907-.022,2.831a2.182,2.182,0,0,1-.47,1.141,10.523,10.523,0,0,1-4.576,3.3,2.77,2.77,0,0,0-1.882,2.146,1.416,1.416,0,0,0,.232,1.47,6.256,6.256,0,0,1,1.549,5.017,2.261,2.261,0,0,1-1,1.943c-1.012.681-1.964,1.451-2.959,2.2a28.678,28.678,0,0,0,7.258,3.446.667.667,0,0,0,.863-.282c1.012-1.3,2.028-2.593,3.1-3.844a2.385,2.385,0,0,1,1.155-.716c1.252-.319,2.528-.541,3.851-.812-.268-1.349-.5-2.643-.787-3.927a1.211,1.211,0,0,1,.645-1.462c1.55-.909,3.087-1.84,4.63-2.76.9-.538,1.054-.528,1.915.116.988.74,1.959,1.505,2.973,2.207a4.4,4.4,0,0,0,1.387.626c.921.236,1.889.309,2.795.585,1.475.45,2.735-.29,4.151-.51-.278-1.4-.527-2.708-.805-4.015a1.25,1.25,0,0,1,.331-1.248c1-.992,1.991-1.991,2.991-2.983a1.069,1.069,0,0,1,1.191-.272c.756.262,1.516.52,2.284.742a1.486,1.486,0,0,0,.811.027q2.258-.716,4.493-1.5a.8.8,0,0,0,.459-.45C226.6,964.585,226.831,963.6,227.091,962.554Zm-1.766,5.855a15.321,15.321,0,0,0-1.941.643,4.968,4.968,0,0,1-4.71.013.664.664,0,0,0-.9.193,20.855,20.855,0,0,1-1.517,1.514.877.877,0,0,0-.269.973c.285,1.287.52,2.585.788,3.876.1.487.075,1.063-.385,1.194-1.673.478-3.38.84-5.076,1.24-.055.013-.124-.033-.188-.045-1.444-.284-2.9-.538-4.33-.868a4.37,4.37,0,0,1-1.452-.65c-.965-.659-1.871-1.4-2.826-2.077a.757.757,0,0,0-.664-.047q-1.669.941-3.286,1.969a.726.726,0,0,0-.247.6c.221,1.278.488,2.547.741,3.819.175.878-.093,1.317-.967,1.5-1.4.3-2.8.57-4.2.859-.165.034-.384.049-.475.158-.933,1.127-1.844,2.272-2.788,3.444A30.505,30.505,0,0,0,225.325,968.409ZM178.767,981.39c1.176-.878,2.294-1.694,3.387-2.546a1.037,1.037,0,0,0,.316-.638,3.925,3.925,0,0,0-.922-3.3,4.929,4.929,0,0,1-.854-1.295,2.036,2.036,0,0,1-.155-1.206,17.053,17.053,0,0,1,.879-2.641,2.281,2.281,0,0,1,.879-1.022c.99-.574,2.089-.969,3.051-1.58a18.9,18.9,0,0,0,2.214-1.863.517.517,0,0,0,.117-.349c.01-.794,0-1.588,0-2.408H167.04A30.217,30.217,0,0,0,178.767,981.39Zm4.755-26.158c.765,0,1.475.017,2.183,0a3.114,3.114,0,0,0,2.872-2.158,3,3,0,0,0-1.156-3.442,1.6,1.6,0,0,1-.8-1.605,4.141,4.141,0,1,0-8.28-.016,1.606,1.606,0,0,1-.788,1.614,2.859,2.859,0,0,0-1.281,2.927,2.782,2.782,0,0,0,2.084,2.487,17.4,17.4,0,0,0,2.989.255c.287-1.1.06-1.808-.89-2.259a14.363,14.363,0,0,1-1.673-1.089l1.151-1.717,1.54.986v-2.179h2.058v2.148l1.51-.946,1.135,1.7c-.785.528-1.542,1.024-2.283,1.545a.828.828,0,0,0-.352.472A10.22,10.22,0,0,0,183.522,955.232Zm14.638,0c.7,0,1.4.014,2.085,0a3.112,3.112,0,0,0,2.913-2.191,3.005,3.005,0,0,0-1.192-3.43,1.537,1.537,0,0,1-.775-1.554,4.142,4.142,0,1,0-8.281-.014,1.53,1.53,0,0,1-.764,1.559,2.965,2.965,0,0,0-1.264,3.172,2.926,2.926,0,0,0,2.512,2.395,17.528,17.528,0,0,0,2.617.024,3.5,3.5,0,0,1,0-.54,1.248,1.248,0,0,0-.749-1.455c-.661-.351-1.259-.82-1.913-1.257l1.157-1.713,1.507.975v-2.156h2.111v2.128l1.48-.942,1.136,1.713a12.516,12.516,0,0,1-1.623,1.064,1.669,1.669,0,0,0-1.014,2.082C198.112,955.109,198.122,955.128,198.161,955.233Zm14.572,0c.7,0,1.395.014,2.084,0a3.112,3.112,0,0,0,2.912-2.191,3,3,0,0,0-1.192-3.43,1.537,1.537,0,0,1-.775-1.554,4.142,4.142,0,1,0-8.281-.012,1.56,1.56,0,0,1-.763,1.561,2.872,2.872,0,0,0-1.274,3.106,2.828,2.828,0,0,0,2.4,2.422,17.2,17.2,0,0,0,2.741.027,3.136,3.136,0,0,1,0-.508,1.248,1.248,0,0,0-.75-1.455c-.661-.351-1.259-.82-1.912-1.256l1.157-1.713,1.508.975v-2.157H212.7v2.127l1.48-.942,1.135,1.713a12.473,12.473,0,0,1-1.623,1.064,1.67,1.67,0,0,0-1.013,2.082C212.684,955.11,212.694,955.129,212.733,955.233Zm-16.749,2.044c-2.4.186-4.644.039-6.226-2.09-1.627,2.2-3.913,2.231-6.2,2.113v3.087h12.427Zm14.585.009c-2.379.16-4.637.053-6.235-2.1-1.607,2.174-3.88,2.242-6.2,2.109v3.081h12.431Z" transform="translate(-164.792 -925.126)" fill="#fff"/>
      <path id="Trazado_616666" data-name="Trazado 616666" d="M172.948,918.213a2.2,2.2,0,0,1,2.547-2.079c2.233,0,4.466,0,6.7,0a3.121,3.121,0,1,1,.01,6.232c-1.279.007-2.558.006-3.836.01a.687.687,0,0,0-.11.029c-.034.134-.072.293-.116.45a2.063,2.063,0,0,1-2.045,1.586c-2.081.015-4.162.022-6.243,0a3.112,3.112,0,0,1-.006-6.224C170.865,918.2,171.882,918.213,172.948,918.213Zm3.093,4.153c.472-1.663,1.022-2.075,2.732-2.076,1.191,0,2.382.014,3.572-.008a1.024,1.024,0,0,0,1.057-1.008,1,1,0,0,0-1.011-1.05c-2.422-.019-4.844-.008-7.255-.008a2.233,2.233,0,0,1-2.61,2.074c-.866,0-1.732-.014-2.6.007a1.026,1.026,0,0,0-1.087,1.043,1.011,1.011,0,0,0,1.045,1.019C171.941,922.377,174,922.365,176.041,922.365Z" transform="translate(-165.72 -913.039)" fill="#fff"/>
      <path id="Trazado_616667" data-name="Trazado 616667" d="M226.362,920.271a4.162,4.162,0,1,1-4.2-4.135A4.166,4.166,0,0,1,226.362,920.271Zm-4.167-2.055a2.074,2.074,0,1,0,2.084,2.054A2.082,2.082,0,0,0,222.2,918.216Z" transform="translate(-189.942 -913.041)" fill="#fff"/>
      <path id="Trazado_616668" data-name="Trazado 616668" d="M275.777,919.214H273.75c-.157-.547-.444-1.025-1.126-1-.618.023-.9.444-1.043,1.008h-1.992c-.159-.552-.444-1.032-1.126-1.008-.618.022-.9.443-1.043,1h-2.044a3.034,3.034,0,0,1,1.593-2.676,3.092,3.092,0,0,1,3.6.371,3.1,3.1,0,0,1,3.735-.3A3,3,0,0,1,275.777,919.214Z" transform="translate(-212.3 -913.032)" fill="#fff"/>
      <path id="Trazado_616669" data-name="Trazado 616669" d="M257.566,929.067h-2.027a3.015,3.015,0,0,1,1.437-2.6c1.127-.733,2.25-.644,3.777.273a3.084,3.084,0,0,1,3.563-.365,3.033,3.033,0,0,1,1.614,2.679h-2.044c-.139-.548-.432-.99-1.08-.988s-.936.446-1.08,1.012h-2c-.147-.568-.437-1.014-1.085-1.012S257.708,928.506,257.566,929.067Z" transform="translate(-207.653 -917.682)" fill="#fff"/>
      <path id="Trazado_616670" data-name="Trazado 616670" d="M217.757,914.455l-1.34,1.367-1.366-1.394,1.3-1.331Z" transform="translate(-188.53 -911.606)" fill="#fff"/>
      <path id="Trazado_616671" data-name="Trazado 616671" d="M233.285,913.187l1.3,1.329-1.521,1.253-1.126-1.363Z" transform="translate(-196.505 -911.648)" fill="#fff"/>
      <path id="Trazado_616672" data-name="Trazado 616672" d="M216.312,932.541l-1.4-1.4,1.37-1.369,1.4,1.4Z" transform="translate(-188.465 -919.483)" fill="#fff"/>
      <path id="Trazado_616673" data-name="Trazado 616673" d="M232.928,932.556l-1.305-1.332,1.5-1.245,1.2,1.333Z" transform="translate(-196.358 -919.58)" fill="#fff"/>
      <path id="Trazado_616674" data-name="Trazado 616674" d="M224.052,910.272h1.989v2.021h-1.989Z" transform="translate(-192.782 -910.272)" fill="#fff"/>
      <path id="Trazado_616675" data-name="Trazado 616675" d="M212.171,924.128v-2h2.016v2Z" transform="translate(-187.17 -915.87)" fill="#fff"/>
      <path id="Trazado_616676" data-name="Trazado 616676" d="M235.814,924.126v-1.983h2.021v1.983Z" transform="translate(-198.337 -915.879)" fill="#fff"/>
      <path id="Trazado_616677" data-name="Trazado 616677" d="M226.026,935.959h-1.978v-2.02h1.978Z" transform="translate(-192.78 -921.45)" fill="#fff"/>
    </g>
  </g>
</svg>
