<svg xmlns="http://www.w3.org/2000/svg" xmlns:xlink="http://www.w3.org/1999/xlink" width="1240" height="957" viewBox="0 0 1240 957">
  <defs>
    <clipPath id="clip-path">
      <rect id="Rectángulo_293058" data-name="Rectángulo 293058" width="1240" height="957" rx="19" transform="translate(0 0)" fill="none"/>
    </clipPath>
  </defs>
  <g id="Grupo_877443" data-name="Grupo 877443" transform="translate(-140 -130.079)">
    <g id="Grupo_873710" data-name="Grupo 873710" transform="translate(140 130.079)" opacity="0.148" clip-path="url(#clip-path)">
      <g id="Grupo_873709" data-name="Grupo 873709" transform="translate(-102.383 -207.491)">
        <path id="SVGID" d="M0,0H1275V1166.408H0Z" transform="translate(87.016)" fill="#dcdddd"/>
        <g id="Grupo_873690" data-name="Grupo 873690" transform="translate(1257.384 274.661)" opacity="0.3">
          <g id="Grupo_873689" data-name="Grupo 873689" transform="translate(0 0)">
            <g id="Grupo_873686" data-name="Grupo 873686">
              <path id="Trazado_599801" data-name="Trazado 599801" d="M1353.35,396.238c-37.712,0-68.393-47.453-68.393-105.782s30.682-105.781,68.393-105.781,68.393,47.454,68.393,105.781S1391.063,396.238,1353.35,396.238Zm0-209.086c-36.83,0-66.792,46.342-66.792,103.3s29.962,103.306,66.792,103.306,66.793-46.342,66.793-103.306S1390.18,187.152,1353.35,187.152Z" transform="translate(-1284.957 -184.675)" fill="#d2e1f1"/>
            </g>
            <g id="Grupo_873687" data-name="Grupo 873687" transform="translate(22.53 34.848)">
              <path id="Trazado_599802" data-name="Trazado 599802" d="M1359.144,354.867c-25.288,0-45.863-31.821-45.863-70.934S1333.855,213,1359.144,213s45.862,31.821,45.862,70.933S1384.432,354.867,1359.144,354.867Zm0-139.391c-24.406,0-44.261,30.71-44.261,68.457s19.855,68.459,44.261,68.459,44.261-30.71,44.261-68.459S1383.55,215.477,1359.144,215.477Z" transform="translate(-1313.281 -213)" fill="#d2e1f1"/>
            </g>
            <g id="Grupo_873688" data-name="Grupo 873688" transform="translate(45.062 69.697)">
              <path id="Trazado_599803" data-name="Trazado 599803" d="M1364.938,313.5c-12.865,0-23.332-16.188-23.332-36.086s10.467-36.085,23.332-36.085,23.331,16.187,23.331,36.085S1377.8,313.5,1364.938,313.5Zm0-69.694c-11.982,0-21.73,15.077-21.73,33.608s9.748,33.611,21.73,33.611,21.73-15.077,21.73-33.611S1376.919,243.8,1364.938,243.8Z" transform="translate(-1341.606 -241.325)" fill="#d2e1f1"/>
            </g>
          </g>
        </g>
        <g id="Grupo_873691" data-name="Grupo 873691" transform="translate(0 34.063)">
          <path id="Trazado_599804" data-name="Trazado 599804" d="M146.91,546.152l-9.6-.234c1.079-105.5,48.8-210.962,121.569-268.69,65.374-51.857,141.157-63.758,213.315-68.893,11.128-.792,22.465-1.465,33.429-2.117,60.362-3.588,122.779-7.3,181.4-32.508,78.106-33.587,137.845-104.432,163.9-194.366l8.766,6.075C832.462,79.4,770.465,153.247,689.6,188.023,629.89,213.7,566.9,217.442,505.988,221.064c-10.945.65-22.265,1.323-33.357,2.112C401.557,228.234,327,239.885,263.258,290.448,193.6,345.7,147.935,446.073,146.91,546.152Z" transform="translate(-137.306 20.656)" fill="#fda829"/>
        </g>
        <g id="Grupo_873692" data-name="Grupo 873692" transform="translate(942.384 902.122)">
          <path id="Trazado_599805" data-name="Trazado 599805" d="M782.586,756.954,775.4,747.1c43.525-75.951,103.066-127.64,167.656-145.544,38.568-10.691,78.24-9.225,116.606-7.809,26.03.965,52.943,1.957,79.152-.883,36.747-3.984,125.981-24.819,160.853-132.013l8.58,6.676c-37.089,114.01-130.375,136-168.762,140.157-26.656,2.888-53.8,1.886-80.051.917-37.889-1.4-77.068-2.849-114.684,7.579C882.274,633.5,824.685,683.491,782.586,756.954Z" transform="translate(-775.397 -460.852)" fill="#fda829"/>
        </g>
        <g id="Grupo_873693" data-name="Grupo 873693" transform="translate(231.81 12.087)" opacity="0.3">
          <path id="Trazado_599806" data-name="Trazado 599806" d="M598.263,238.79a128.48,128.48,0,0,1-25.718-2.6c-30.764-6.268-60.307-23.64-88.877-40.44-14.7-8.647-29.907-17.587-45.1-24.911-38.675-18.648-93.485-31.775-134.964,11.573l-.9-2.051c42-43.9,97.325-30.695,136.337-11.888,15.24,7.349,30.468,16.3,45.192,24.962,28.484,16.751,57.938,34.071,88.518,40.3,51.6,10.515,104.951-11.437,146.354-60.23S788.357,51,795.5-28.747l1.585.341c-7.2,80.387-35.269,154.7-77.006,203.885C685.2,216.579,641.907,238.787,598.263,238.79Z" transform="translate(-302.708 28.747)" fill="#d2e1f1"/>
        </g>
        <g id="Grupo_873694" data-name="Grupo 873694" transform="translate(942.384 135.289)" opacity="0.3">
          <path id="Trazado_599807" data-name="Trazado 599807" d="M907.507,854.075c-7.262-31.241-5.319-67.274,5.47-101.463,9.955-31.546,27.038-59.988,46.869-78.036,38.758-35.268,84.982-41.253,132.9-44.666l3.708-.262c44.314-3.135,90.136-6.377,129.839-36.689,51.444-39.276,89.812-123.19,105.265-230.224,13.842-95.865,8.836-195.142,3.995-291.15l1.6-.193c4.85,96.19,9.865,195.655-4.028,291.882-15.559,107.77-54.238,192.3-106.119,231.906-40,30.541-86,33.794-130.474,36.941l-3.708.263c-47.712,3.4-93.722,9.344-132.166,44.328-37.6,34.217-67.2,109.6-51.643,176.526Z" transform="translate(-903.188 -71.392)" fill="#d2e1f1"/>
        </g>
        <path id="Trazado_599809" data-name="Trazado 599809" d="M1279.7,129.626l12.333,11.013V118.613Z" transform="translate(-270.737 74.772)" fill="#fff"/>
        <g id="Grupo_873695" data-name="Grupo 873695" transform="translate(796.137 61.173)">
          <path id="Trazado_599810" data-name="Trazado 599810" d="M1079.828,220.512c-37.319,0-67.681-46.959-67.681-104.68S1042.509,11.15,1079.828,11.15s67.682,46.961,67.682,104.682S1117.149,220.512,1079.828,220.512Zm0-206.885c-36.437,0-66.081,45.848-66.081,102.2s29.643,102.2,66.081,102.2,66.081-45.848,66.081-102.2S1116.266,13.627,1079.828,13.627Z" transform="translate(-1012.147 -11.15)" fill="#fda829"/>
        </g>
        <g id="Grupo_873696" data-name="Grupo 873696" transform="translate(397.384 1050.174)">
          <path id="Trazado_599811" data-name="Trazado 599811" d="M634.346,804.243c-41.243,0-74.8-51.9-74.8-115.685s33.554-115.685,74.8-115.685,74.8,51.9,74.8,115.685S675.589,804.243,634.346,804.243Zm0-228.894c-40.361,0-73.2,50.784-73.2,113.209s32.836,113.21,73.2,113.21,73.2-50.786,73.2-113.21S674.706,575.349,634.346,575.349Z" transform="translate(-559.549 -572.872)" fill="#fda829"/>
        </g>
      </g>
      <g id="Grupo_876901" data-name="Grupo 876901" transform="translate(-117.384 7239.746)">
        <rect id="SVGID-2" data-name="SVGID" width="1275" height="954.514" transform="translate(87.017 40.177)" fill="#dee4f0"/>
        <g id="Grupo_873690-2" data-name="Grupo 873690" transform="translate(1257.384 314.838)" opacity="0.3">
          <g id="Grupo_873689-2" data-name="Grupo 873689" transform="translate(0 0)">
            <g id="Grupo_873686-2" data-name="Grupo 873686">
              <path id="Trazado_599801-2" data-name="Trazado 599801" d="M1353.35,396.238c-37.712,0-68.393-47.453-68.393-105.782s30.682-105.781,68.393-105.781,68.393,47.454,68.393,105.781S1391.063,396.238,1353.35,396.238Zm0-209.086c-36.83,0-66.792,46.342-66.792,103.3s29.962,103.306,66.792,103.306,66.793-46.342,66.793-103.306S1390.18,187.152,1353.35,187.152Z" transform="translate(-1284.957 -184.675)" fill="#d2e1f1"/>
            </g>
            <g id="Grupo_873687-2" data-name="Grupo 873687" transform="translate(22.53 34.848)">
              <path id="Trazado_599802-2" data-name="Trazado 599802" d="M1359.144,354.867c-25.288,0-45.863-31.821-45.863-70.934S1333.855,213,1359.144,213s45.862,31.821,45.862,70.933S1384.432,354.867,1359.144,354.867Zm0-139.391c-24.406,0-44.261,30.71-44.261,68.457s19.855,68.459,44.261,68.459,44.261-30.71,44.261-68.459S1383.55,215.477,1359.144,215.477Z" transform="translate(-1313.281 -213)" fill="#d2e1f1"/>
            </g>
            <g id="Grupo_873688-2" data-name="Grupo 873688" transform="translate(45.062 69.697)">
              <path id="Trazado_599803-2" data-name="Trazado 599803" d="M1364.938,313.5c-12.865,0-23.332-16.188-23.332-36.086s10.467-36.085,23.332-36.085,23.331,16.187,23.331,36.085S1377.8,313.5,1364.938,313.5Zm0-69.694c-11.982,0-21.73,15.077-21.73,33.608s9.748,33.611,21.73,33.611,21.73-15.077,21.73-33.611S1376.919,243.8,1364.938,243.8Z" transform="translate(-1341.606 -241.325)" fill="#d2e1f1"/>
            </g>
          </g>
        </g>
        <g id="Grupo_873691-2" data-name="Grupo 873691" transform="translate(0 0)">
          <path id="Trazado_599804-2" data-name="Trazado 599804" d="M146.91,546.152l-9.6-.234c1.079-105.5,48.8-210.962,121.569-268.69,65.374-51.857,141.157-63.758,213.315-68.893,11.128-.792,22.465-1.465,33.429-2.117,60.362-3.588,122.779-7.3,181.4-32.508,78.106-33.587,137.845-104.432,163.9-194.366l8.766,6.075C832.462,79.4,770.465,153.247,689.6,188.023,629.89,213.7,566.9,217.442,505.988,221.064c-10.945.65-22.265,1.323-33.357,2.112C401.557,228.234,327,239.885,263.258,290.448,193.6,345.7,147.935,446.073,146.91,546.152Z" transform="translate(-137.306 20.656)" fill="#fda829"/>
        </g>
        <g id="Grupo_873692-2" data-name="Grupo 873692" transform="translate(942.384 654.62)">
          <path id="Trazado_599805-2" data-name="Trazado 599805" d="M782.586,756.954,775.4,747.1c43.525-75.951,103.066-127.64,167.656-145.544,38.568-10.691,78.24-9.225,116.606-7.809,26.03.965,52.943,1.957,79.152-.883,36.747-3.984,125.981-24.819,160.853-132.013l8.58,6.676c-37.089,114.01-130.375,136-168.762,140.157-26.656,2.888-53.8,1.886-80.051.917-37.889-1.4-77.068-2.849-114.684,7.579C882.274,633.5,824.685,683.491,782.586,756.954Z" transform="translate(-775.397 -460.852)" fill="#fda829"/>
        </g>
        <g id="Grupo_873693-2" data-name="Grupo 873693" transform="translate(231.811 52.264)" opacity="0.3">
          <path id="Trazado_599806-2" data-name="Trazado 599806" d="M598.263,238.79a128.48,128.48,0,0,1-25.718-2.6c-30.764-6.268-60.307-23.64-88.877-40.44-14.7-8.647-29.907-17.587-45.1-24.911-38.675-18.648-93.485-31.775-134.964,11.573l-.9-2.051c42-43.9,97.325-30.695,136.337-11.888,15.24,7.349,30.468,16.3,45.192,24.962,28.484,16.751,57.938,34.071,88.518,40.3,51.6,10.515,104.951-11.437,146.354-60.23S788.357,51,795.5-28.747l1.585.341c-7.2,80.387-35.269,154.7-77.006,203.885C685.2,216.579,641.907,238.787,598.263,238.79Z" transform="translate(-302.708 28.747)" fill="#d2e1f1"/>
        </g>
        <g id="Grupo_873694-2" data-name="Grupo 873694" transform="translate(942.384 175.466)" opacity="0.3">
          <path id="Trazado_599807-2" data-name="Trazado 599807" d="M907.507,854.075c-7.262-31.241-5.319-67.274,5.47-101.463,9.955-31.546,27.038-59.988,46.869-78.036,38.758-35.268,84.982-41.253,132.9-44.666l3.708-.262c44.314-3.135,90.136-6.377,129.839-36.689,51.444-39.276,89.812-123.19,105.265-230.224,13.842-95.865,8.836-195.142,3.995-291.15l1.6-.193c4.85,96.19,9.865,195.655-4.028,291.882-15.559,107.77-54.238,192.3-106.119,231.906-40,30.541-86,33.794-130.474,36.941l-3.708.263c-47.712,3.4-93.722,9.344-132.166,44.328-37.6,34.217-67.2,109.6-51.643,176.526Z" transform="translate(-903.188 -71.392)" fill="#d2e1f1"/>
        </g>
        <path id="Trazado_599809-2" data-name="Trazado 599809" d="M1279.7,129.626l12.333,11.013V118.613Z" transform="translate(-270.737 114.949)" fill="#fff"/>
        <g id="Grupo_873695-2" data-name="Grupo 873695" transform="translate(796.137 101.35)">
          <path id="Trazado_599810-2" data-name="Trazado 599810" d="M1079.828,220.512c-37.319,0-67.681-46.959-67.681-104.68S1042.509,11.15,1079.828,11.15s67.682,46.961,67.682,104.682S1117.149,220.512,1079.828,220.512Zm0-206.885c-36.437,0-66.081,45.848-66.081,102.2s29.643,102.2,66.081,102.2,66.081-45.848,66.081-102.2S1116.266,13.627,1079.828,13.627Z" transform="translate(-1012.147 -11.15)" fill="#fda829"/>
        </g>
        <g id="Grupo_873696-2" data-name="Grupo 873696" transform="translate(436.116 792.438)">
          <path id="Trazado_599811-2" data-name="Trazado 599811" d="M634.346,804.243c-41.243,0-74.8-51.9-74.8-115.685s33.554-115.685,74.8-115.685,74.8,51.9,74.8,115.685S675.589,804.243,634.346,804.243Zm0-228.894c-40.361,0-73.2,50.784-73.2,113.209s32.836,113.21,73.2,113.21,73.2-50.786,73.2-113.21S674.706,575.349,634.346,575.349Z" transform="translate(-559.549 -572.872)" fill="#fda829"/>
        </g>
      </g>
    </g>
  </g>
</svg>
