<svg xmlns="http://www.w3.org/2000/svg" xmlns:xlink="http://www.w3.org/1999/xlink" width="1216.34" height="269.717" viewBox="0 0 1216.34 269.717">
  <defs>
    <radialGradient id="radial-gradient" cx="0.5" cy="0.5" r="0.5" gradientTransform="matrix(1, 0, 0, -1, 0, 0.089)" gradientUnits="objectBoundingBox">
      <stop offset="0"/>
      <stop offset="1" stop-color="#fff"/>
    </radialGradient>
    <radialGradient id="radial-gradient-2" cx="0.5" r="0.5" gradientTransform="matrix(1, 0, 0, -1, 0, 0.072)" xlink:href="#radial-gradient"/>
    <radialGradient id="radial-gradient-3" cx="0.5" r="0.5" gradientTransform="matrix(1, 0, 0, -1, 0, 0.245)" xlink:href="#radial-gradient"/>
  </defs>
  <g id="Grupo_876984" data-name="Grupo 876984" transform="translate(17 -7.58)">
    <circle id="Elipse_4990" data-name="Elipse 4990" cx="97.812" cy="97.812" r="97.812" transform="translate(862.982 79.657)" fill="url(#radial-gradient)" style="mix-blend-mode: multiply;isolation: isolate"/>
    <circle id="Elipse_4991" data-name="Elipse 4991" cx="97.812" cy="97.812" r="97.812" transform="translate(845.34 64.988)" fill="#fff"/>
    <circle id="Elipse_4992" data-name="Elipse 4992" cx="96.927" cy="96.927" r="96.927" transform="translate(401.882 80.97)" fill="url(#radial-gradient-2)" style="mix-blend-mode: multiply;isolation: isolate"/>
    <circle id="Elipse_4993" data-name="Elipse 4993" cx="96.928" cy="96.928" r="96.928" transform="translate(384.399 66.433)" fill="#fff"/>
    <circle id="Elipse_4994" data-name="Elipse 4994" cx="104.799" cy="104.799" r="104.799" transform="translate(81.153 67.699)" fill="url(#radial-gradient-3)" style="mix-blend-mode: multiply;isolation: isolate"/>
    <circle id="Elipse_4995" data-name="Elipse 4995" cx="104.799" cy="104.799" r="104.799" transform="translate(62.251 51.982)" fill="#fff"/>
    <rect id="Rectángulo_293507" data-name="Rectángulo 293507" width="1216.34" height="198.388" transform="translate(-17 63.888)" fill="none"/>
    <rect id="Rectángulo_293508" data-name="Rectángulo 293508" width="1216.34" height="198.388" transform="translate(-17 63.888)" fill="none"/>
    <rect id="Rectángulo_293509" data-name="Rectángulo 293509" width="1216.34" height="198.388" transform="translate(-17 63.888)" fill="none"/>
    <rect id="Rectángulo_293510" data-name="Rectángulo 293510" width="1216.34" height="198.388" transform="translate(-17 63.888)" fill="none"/>
    <rect id="Rectángulo_293511" data-name="Rectángulo 293511" width="1216.34" height="198.388" transform="translate(-17 63.888)" fill="none"/>
    <rect id="Rectángulo_293512" data-name="Rectángulo 293512" width="1216.34" height="198.388" transform="translate(-17 63.888)" fill="none"/>
    <rect id="Rectángulo_293513" data-name="Rectángulo 293513" width="1216.34" height="198.388" transform="translate(-17 63.888)" fill="none"/>
    <rect id="Rectángulo_293514" data-name="Rectángulo 293514" width="1216.34" height="198.388" transform="translate(-17 63.888)" fill="none"/>
    <rect id="Rectángulo_293515" data-name="Rectángulo 293515" width="1216.34" height="198.388" transform="translate(-17 63.888)" fill="none"/>
    <rect id="Rectángulo_293516" data-name="Rectángulo 293516" width="1216.34" height="198.388" transform="translate(-17 63.888)" fill="none"/>
    <rect id="Rectángulo_293517" data-name="Rectángulo 293517" width="1216.34" height="198.388" transform="translate(-17 63.888)" fill="none"/>
    <rect id="Rectángulo_293518" data-name="Rectángulo 293518" width="1216.34" height="198.388" transform="translate(-17 63.888)" fill="none"/>
    <rect id="Rectángulo_293519" data-name="Rectángulo 293519" width="1216.34" height="198.388" transform="translate(-17 63.888)" fill="none"/>
    <rect id="Rectángulo_293520" data-name="Rectángulo 293520" width="1216.34" height="198.388" transform="translate(-17 63.888)" fill="none"/>
    <rect id="Rectángulo_293521" data-name="Rectángulo 293521" width="1216.34" height="198.388" transform="translate(-17 63.888)" fill="none"/>
    <rect id="Rectángulo_293522" data-name="Rectángulo 293522" width="1216.34" height="198.388" transform="translate(-17 63.888)" fill="none"/>
    <rect id="Rectángulo_293523" data-name="Rectángulo 293523" width="1216.34" height="198.388" transform="translate(-17 63.888)" fill="none"/>
    <path id="Trazado_616625" data-name="Trazado 616625" d="M154.32,145.525a96.542,96.542,0,1,1,96.549,96.549A96.543,96.543,0,0,1,154.32,145.525Z" transform="translate(76.26 17.543)" fill="#e26c1e" fill-rule="evenodd" opacity="0.304"/>
    <path id="Trazado_616626" data-name="Trazado 616626" d="M246.329,55.384a86.027,86.027,0,1,0,86.027,86.027A86.027,86.027,0,0,0,246.329,55.384Zm0,164.16a78.133,78.133,0,1,1,78.131-78.133A78.132,78.132,0,0,1,246.329,219.544Z" transform="translate(78.923 20.389)" fill="#e26c1e"/>
    <path id="Trazado_616627" data-name="Trazado 616627" d="M674.329,55.384a86.027,86.027,0,1,0,86.027,86.027A86.027,86.027,0,0,0,674.329,55.384Zm0,164.16a78.133,78.133,0,1,1,78.133-78.133A78.132,78.132,0,0,1,674.329,219.544Z" transform="translate(269.44 20.389)" fill="#e26c1e"/>
    <path id="Trazado_616628" data-name="Trazado 616628" d="M460.329,55.384a86.027,86.027,0,1,0,86.027,86.027A86.027,86.027,0,0,0,460.329,55.384Zm0,164.16a78.133,78.133,0,1,1,78.131-78.133A78.132,78.132,0,0,1,460.329,219.544Z" transform="translate(174.182 20.389)" fill="#e26c1e"/>
    <path id="Trazado_616629" data-name="Trazado 616629" d="M154.32,145.525a96.542,96.542,0,1,1,96.549,96.549A96.543,96.543,0,0,1,154.32,145.525Z" transform="translate(76.26 17.543)" fill="none" stroke="#fff" stroke-linejoin="round" stroke-width="2"/>
    <path id="Trazado_616630" data-name="Trazado 616630" d="M261.21,145.525a96.542,96.542,0,1,1,96.535,96.549A96.54,96.54,0,0,1,261.21,145.525Z" transform="translate(123.841 17.543)" fill="#e26c1e" fill-rule="evenodd" opacity="0.302"/>
    <path id="Trazado_616631" data-name="Trazado 616631" d="M261.21,145.525a96.542,96.542,0,1,1,96.535,96.549A96.54,96.54,0,0,1,261.21,145.525Z" transform="translate(123.841 17.543)" fill="none" stroke="#fff" stroke-linejoin="round" stroke-width="2"/>
    <path id="Trazado_616632" data-name="Trazado 616632" d="M368.1,145.525a96.542,96.542,0,1,1,96.535,96.549A96.54,96.54,0,0,1,368.1,145.525Z" transform="translate(171.421 17.829)" fill="#e26c1e" fill-rule="evenodd" opacity="0.295"/>
    <path id="Trazado_616633" data-name="Trazado 616633" d="M368.1,145.525a96.542,96.542,0,1,1,96.535,96.549A96.54,96.54,0,0,1,368.1,145.525Z" transform="translate(171.421 17.543)" fill="none" stroke="#fff" stroke-linejoin="round" stroke-width="2"/>
    <path id="Trazado_616634" data-name="Trazado 616634" d="M474.98,145.525a96.549,96.549,0,1,1,96.549,96.549A96.543,96.543,0,0,1,474.98,145.525Z" transform="translate(218.997 17.543)" fill="#e26c1e" fill-rule="evenodd" opacity="0.301"/>
    <path id="Trazado_616635" data-name="Trazado 616635" d="M474.98,145.525a96.549,96.549,0,1,1,96.549,96.549A96.543,96.543,0,0,1,474.98,145.525Z" transform="translate(218.997 17.543)" fill="none" stroke="#fff" stroke-linejoin="round" stroke-width="2"/>
    <path id="Trazado_616636" data-name="Trazado 616636" d="M581.87,145.525a96.542,96.542,0,1,1,96.549,96.549A96.543,96.543,0,0,1,581.87,145.525Z" transform="translate(266.577 18.539)" fill="#e26c1e" fill-rule="evenodd" opacity="0.304"/>
    <path id="Trazado_616637" data-name="Trazado 616637" d="M581.87,145.525a96.542,96.542,0,1,1,96.549,96.549A96.543,96.543,0,0,1,581.87,145.525Z" transform="translate(266.577 17.543)" fill="none" stroke="#fff" stroke-linejoin="round" stroke-width="2"/>
    <path id="Trazado_616638" data-name="Trazado 616638" d="M47.432,145.525a96.541,96.541,0,1,1,96.546,96.549A96.541,96.541,0,0,1,47.432,145.525Z" transform="translate(28.681 17.543)" fill="#e26c1e" fill-rule="evenodd" opacity="0.284"/>
    <path id="Trazado_616639" data-name="Trazado 616639" d="M47.432,145.525a96.541,96.541,0,1,1,96.546,96.549A96.541,96.541,0,0,1,47.432,145.525Z" transform="translate(28.681 17.543)" fill="none" stroke="#fff" stroke-linejoin="round" stroke-width="2"/>
    <path id="Trazado_616934" data-name="Trazado 616934" d="M5.149-4.314h-2.5V0H1.23V-10.664h3.53a4.178,4.178,0,0,1,2.772.82A2.951,2.951,0,0,1,8.5-7.456,2.871,2.871,0,0,1,7.965-5.72a3.214,3.214,0,0,1-1.5,1.106l2.5,4.526V0H7.463Zm-2.5-1.15H4.8a2.437,2.437,0,0,0,1.666-.543A1.836,1.836,0,0,0,7.09-7.46,1.933,1.933,0,0,0,6.5-8.979a2.5,2.5,0,0,0-1.7-.536H2.644ZM13.475.146A3.463,3.463,0,0,1,10.853-.912,3.928,3.928,0,0,1,9.842-3.743v-.249a4.756,4.756,0,0,1,.45-2.106,3.514,3.514,0,0,1,1.26-1.45,3.167,3.167,0,0,1,1.754-.524,2.968,2.968,0,0,1,2.4,1.018,4.408,4.408,0,0,1,.857,2.915v.564H11.2a2.817,2.817,0,0,0,.685,1.893,2.153,2.153,0,0,0,1.666.721,2.36,2.36,0,0,0,1.216-.293,3.055,3.055,0,0,0,.872-.776l.828.645A3.328,3.328,0,0,1,13.475.146Zm-.168-7.1a1.807,1.807,0,0,0-1.377.6,2.9,2.9,0,0,0-.688,1.674h3.97v-.1a2.581,2.581,0,0,0-.557-1.6A1.7,1.7,0,0,0,13.306-6.958Zm4.5,2.93a4.642,4.642,0,0,1,.864-2.933,2.733,2.733,0,0,1,2.263-1.11,2.748,2.748,0,0,1,2.2.952V-11.25H24.49V0H23.245l-.066-.85a2.759,2.759,0,0,1-2.263,1A2.707,2.707,0,0,1,18.671-.981,4.7,4.7,0,0,1,17.8-3.926Zm1.355.154a3.515,3.515,0,0,0,.557,2.109A1.8,1.8,0,0,0,21.253-1a1.977,1.977,0,0,0,1.882-1.157V-5.8a1.992,1.992,0,0,0-1.868-1.121,1.808,1.808,0,0,0-1.553.769A3.87,3.87,0,0,0,19.158-3.875ZM31.44-.784a2.878,2.878,0,0,1-2.322.93,2.464,2.464,0,0,1-1.93-.736,3.186,3.186,0,0,1-.67-2.179V-7.925h1.355v5.12q0,1.8,1.465,1.8A2.028,2.028,0,0,0,31.4-2.161V-7.925h1.355V0H31.469ZM38-.959A1.952,1.952,0,0,0,39.262-1.4a1.546,1.546,0,0,0,.6-1.1h1.282a2.457,2.457,0,0,1-.469,1.3,3.087,3.087,0,0,1-1.154.981A3.329,3.329,0,0,1,38,.146a3.265,3.265,0,0,1-2.574-1.08,4.3,4.3,0,0,1-.956-2.955v-.227a4.771,4.771,0,0,1,.425-2.058,3.236,3.236,0,0,1,1.219-1.4,3.464,3.464,0,0,1,1.879-.5,3.178,3.178,0,0,1,2.216.8A2.853,2.853,0,0,1,41.145-5.2H39.863a1.867,1.867,0,0,0-.582-1.263,1.811,1.811,0,0,0-1.293-.494,1.9,1.9,0,0,0-1.6.743,3.491,3.491,0,0,0-.568,2.15v.256A3.422,3.422,0,0,0,36.384-1.7,1.906,1.906,0,0,0,38-.959Zm7.852,0A1.952,1.952,0,0,0,47.114-1.4a1.546,1.546,0,0,0,.6-1.1H49a2.457,2.457,0,0,1-.469,1.3,3.087,3.087,0,0,1-1.154.981,3.329,3.329,0,0,1-1.527.366,3.265,3.265,0,0,1-2.574-1.08,4.3,4.3,0,0,1-.956-2.955v-.227a4.771,4.771,0,0,1,.425-2.058,3.236,3.236,0,0,1,1.219-1.4,3.464,3.464,0,0,1,1.879-.5,3.178,3.178,0,0,1,2.216.8A2.853,2.853,0,0,1,49-5.2H47.714a1.867,1.867,0,0,0-.582-1.263,1.811,1.811,0,0,0-1.293-.494,1.9,1.9,0,0,0-1.6.743,3.491,3.491,0,0,0-.568,2.15v.256A3.422,3.422,0,0,0,44.235-1.7,1.906,1.906,0,0,0,45.847-.959ZM51.992,0H50.637V-7.925h1.355ZM50.527-10.027a.809.809,0,0,1,.2-.557.756.756,0,0,1,.6-.227.768.768,0,0,1,.6.227.8.8,0,0,1,.205.557.774.774,0,0,1-.205.549.782.782,0,0,1-.6.22.77.77,0,0,1-.6-.22A.782.782,0,0,1,50.527-10.027Zm3.184,5.991a4.681,4.681,0,0,1,.458-2.095,3.415,3.415,0,0,1,1.274-1.436,3.469,3.469,0,0,1,1.864-.505,3.342,3.342,0,0,1,2.618,1.121,4.311,4.311,0,0,1,1,2.981v.1A4.722,4.722,0,0,1,60.482-1.8,3.365,3.365,0,0,1,59.215-.366a3.509,3.509,0,0,1-1.893.513A3.334,3.334,0,0,1,54.711-.974a4.29,4.29,0,0,1-1-2.966Zm1.362.161a3.39,3.39,0,0,0,.612,2.117,1.957,1.957,0,0,0,1.637.8,1.945,1.945,0,0,0,1.641-.809,3.707,3.707,0,0,0,.608-2.267,3.384,3.384,0,0,0-.619-2.113,1.968,1.968,0,0,0-1.644-.809,1.946,1.946,0,0,0-1.619.8A3.68,3.68,0,0,0,55.073-3.875Zm2.849-7.375h1.641L57.6-9.1l-1.091,0Zm5.984,3.325.044,1a2.888,2.888,0,0,1,2.373-1.143q2.512,0,2.534,2.834V0H67.5V-5.244a1.824,1.824,0,0,0-.392-1.267,1.57,1.57,0,0,0-1.2-.41,1.956,1.956,0,0,0-1.157.352,2.387,2.387,0,0,0-.776.923V0H62.624V-7.925ZM74.3-4.028a4.642,4.642,0,0,1,.864-2.933,2.733,2.733,0,0,1,2.263-1.11,2.748,2.748,0,0,1,2.2.952V-11.25h1.355V0H79.742l-.066-.85a2.759,2.759,0,0,1-2.263,1A2.707,2.707,0,0,1,75.168-.981,4.7,4.7,0,0,1,74.3-3.926Zm1.355.154a3.515,3.515,0,0,0,.557,2.109A1.8,1.8,0,0,0,77.749-1a1.977,1.977,0,0,0,1.882-1.157V-5.8a1.992,1.992,0,0,0-1.868-1.121,1.808,1.808,0,0,0-1.553.769A3.87,3.87,0,0,0,75.655-3.875ZM86.377.146A3.463,3.463,0,0,1,83.755-.912a3.928,3.928,0,0,1-1.011-2.831v-.249a4.756,4.756,0,0,1,.45-2.106,3.514,3.514,0,0,1,1.26-1.45,3.167,3.167,0,0,1,1.754-.524,2.968,2.968,0,0,1,2.4,1.018,4.408,4.408,0,0,1,.857,2.915v.564H84.1a2.817,2.817,0,0,0,.685,1.893,2.153,2.153,0,0,0,1.666.721,2.36,2.36,0,0,0,1.216-.293,3.055,3.055,0,0,0,.872-.776l.828.645A3.328,3.328,0,0,1,86.377.146Zm-.168-7.1a1.807,1.807,0,0,0-1.377.6,2.9,2.9,0,0,0-.688,1.674h3.97v-.1a2.581,2.581,0,0,0-.557-1.6A1.7,1.7,0,0,0,86.209-6.958ZM96.1,0H94.746V-11.25H96.1Zm6.986,0a2.846,2.846,0,0,1-.19-.835,3.023,3.023,0,0,1-2.256.981,2.8,2.8,0,0,1-1.923-.663A2.145,2.145,0,0,1,97.967-2.2a2.24,2.24,0,0,1,.941-1.923,4.437,4.437,0,0,1,2.648-.685h1.318v-.623a1.522,1.522,0,0,0-.425-1.132A1.707,1.707,0,0,0,101.2-6.98a1.976,1.976,0,0,0-1.216.366,1.079,1.079,0,0,0-.491.886H98.128a1.87,1.87,0,0,1,.421-1.146,2.874,2.874,0,0,1,1.143-.875,3.844,3.844,0,0,1,1.586-.322,3.133,3.133,0,0,1,2.146.685,2.47,2.47,0,0,1,.806,1.886v3.647a4.459,4.459,0,0,0,.278,1.736V0Zm-2.249-1.033a2.381,2.381,0,0,0,1.208-.33,1.994,1.994,0,0,0,.828-.857V-3.845h-1.062q-2.49,0-2.49,1.458a1.234,1.234,0,0,0,.425,1A1.633,1.633,0,0,0,100.838-1.033Z" transform="translate(109.955 157.788)"/>
    <path id="Trazado_616935" data-name="Trazado 616935" d="M4.314.146A3.463,3.463,0,0,1,1.692-.912,3.928,3.928,0,0,1,.681-3.743v-.249A4.756,4.756,0,0,1,1.132-6.1a3.514,3.514,0,0,1,1.26-1.45,3.167,3.167,0,0,1,1.754-.524,2.968,2.968,0,0,1,2.4,1.018A4.408,4.408,0,0,1,7.4-4.138v.564H2.036a2.817,2.817,0,0,0,.685,1.893,2.153,2.153,0,0,0,1.666.721A2.36,2.36,0,0,0,5.6-1.252a3.055,3.055,0,0,0,.872-.776l.828.645A3.328,3.328,0,0,1,4.314.146Zm-.168-7.1a1.807,1.807,0,0,0-1.377.6A2.9,2.9,0,0,0,2.08-4.687H6.05v-.1a2.581,2.581,0,0,0-.557-1.6A1.7,1.7,0,0,0,4.146-6.958Zm8.657.249a4.061,4.061,0,0,0-.667-.051,1.786,1.786,0,0,0-1.809,1.135V0H8.972V-7.925h1.318l.022.916A2.11,2.11,0,0,1,12.2-8.071a1.384,1.384,0,0,1,.6.1Zm.74,2.673A4.681,4.681,0,0,1,14-6.13a3.415,3.415,0,0,1,1.274-1.436,3.469,3.469,0,0,1,1.864-.505,3.342,3.342,0,0,1,2.618,1.121,4.311,4.311,0,0,1,1,2.981v.1A4.722,4.722,0,0,1,20.314-1.8,3.365,3.365,0,0,1,19.047-.366a3.509,3.509,0,0,1-1.893.513A3.334,3.334,0,0,1,14.542-.974a4.29,4.29,0,0,1-1-2.966Zm1.362.161a3.39,3.39,0,0,0,.612,2.117,1.957,1.957,0,0,0,1.637.8,1.945,1.945,0,0,0,1.641-.809A3.707,3.707,0,0,0,19.4-4.036a3.384,3.384,0,0,0-.619-2.113,1.968,1.968,0,0,0-1.644-.809,1.946,1.946,0,0,0-1.619.8A3.68,3.68,0,0,0,14.9-3.875ZM27.07-2.1a1,1,0,0,0-.414-.853,3.983,3.983,0,0,0-1.443-.524,6.822,6.822,0,0,1-1.633-.527,2.324,2.324,0,0,1-.894-.732A1.752,1.752,0,0,1,22.4-5.75,2.056,2.056,0,0,1,23.221-7.4a3.218,3.218,0,0,1,2.106-.674,3.311,3.311,0,0,1,2.186.7,2.21,2.21,0,0,1,.839,1.78H26.99a1.223,1.223,0,0,0-.472-.959,1.77,1.77,0,0,0-1.19-.4,1.852,1.852,0,0,0-1.157.322,1.014,1.014,0,0,0-.417.842.822.822,0,0,0,.388.74,4.776,4.776,0,0,0,1.4.476,7.308,7.308,0,0,1,1.644.542,2.4,2.4,0,0,1,.934.758,1.864,1.864,0,0,1,.3,1.08,2.028,2.028,0,0,1-.85,1.7,3.564,3.564,0,0,1-2.2.641A3.991,3.991,0,0,1,23.687-.19a2.74,2.74,0,0,1-1.146-.941,2.268,2.268,0,0,1-.414-1.307h1.355a1.4,1.4,0,0,0,.546,1.08,2.117,2.117,0,0,0,1.344.4,2.185,2.185,0,0,0,1.234-.311A.956.956,0,0,0,27.07-2.1ZM31.663,0H30.308V-7.925h1.355ZM30.2-10.027a.809.809,0,0,1,.2-.557.756.756,0,0,1,.6-.227.768.768,0,0,1,.6.227.8.8,0,0,1,.205.557.774.774,0,0,1-.205.549.782.782,0,0,1-.6.22.77.77,0,0,1-.6-.22A.782.782,0,0,1,30.2-10.027Zm3.214,5.991a4.681,4.681,0,0,1,.458-2.095,3.415,3.415,0,0,1,1.274-1.436,3.469,3.469,0,0,1,1.864-.505,3.342,3.342,0,0,1,2.618,1.121,4.311,4.311,0,0,1,1,2.981v.1A4.722,4.722,0,0,1,40.183-1.8,3.365,3.365,0,0,1,38.916-.366a3.509,3.509,0,0,1-1.893.513A3.334,3.334,0,0,1,34.411-.974a4.29,4.29,0,0,1-1-2.966Zm1.362.161a3.39,3.39,0,0,0,.612,2.117,1.957,1.957,0,0,0,1.637.8,1.945,1.945,0,0,0,1.641-.809,3.707,3.707,0,0,0,.608-2.267,3.384,3.384,0,0,0-.619-2.113,1.968,1.968,0,0,0-1.644-.809,1.946,1.946,0,0,0-1.619.8A3.68,3.68,0,0,0,34.774-3.875Zm2.849-7.375h1.641L37.3-9.1l-1.091,0Zm5.984,3.325.044,1a2.888,2.888,0,0,1,2.373-1.143q2.512,0,2.534,2.834V0H47.2V-5.244a1.824,1.824,0,0,0-.392-1.267,1.57,1.57,0,0,0-1.2-.41,1.956,1.956,0,0,0-1.157.352,2.387,2.387,0,0,0-.776.923V0H42.325V-7.925Z" transform="translate(140.826 174.263)"/>
    <text id="_" data-name=" " transform="translate(649.54 23.58)" font-size="15" font-family="Roboto-Regular, Roboto"><tspan x="0" y="0"> </tspan></text>
    <path id="Trazado_616936" data-name="Trazado 616936" d="M7.126-2.791H2.659L1.655,0H.205L4.277-10.664h1.23L9.587,0H8.145ZM3.083-3.94H6.709L4.893-8.928ZM15.623-.784A2.878,2.878,0,0,1,13.3.146a2.464,2.464,0,0,1-1.93-.736,3.186,3.186,0,0,1-.67-2.179V-7.925h1.355v5.12q0,1.8,1.465,1.8a2.028,2.028,0,0,0,2.065-1.157V-7.925h1.355V0H15.652Zm4.651-7.141.037.879a2.927,2.927,0,0,1,2.351-1.025A2.266,2.266,0,0,1,24.924-6.8a3,3,0,0,1,1.029-.923,3.039,3.039,0,0,1,1.5-.352q2.607,0,2.651,2.761V0H28.748V-5.229A1.82,1.82,0,0,0,28.359-6.5a1.71,1.71,0,0,0-1.3-.421,1.8,1.8,0,0,0-1.252.45,1.827,1.827,0,0,0-.579,1.212V0H23.862V-5.193A1.512,1.512,0,0,0,22.17-6.921a1.813,1.813,0,0,0-1.824,1.135V0H18.992V-7.925ZM35.48.146A3.463,3.463,0,0,1,32.857-.912a3.928,3.928,0,0,1-1.011-2.831v-.249A4.756,4.756,0,0,1,32.3-6.1a3.514,3.514,0,0,1,1.26-1.45,3.167,3.167,0,0,1,1.754-.524,2.968,2.968,0,0,1,2.4,1.018,4.408,4.408,0,0,1,.857,2.915v.564H33.2a2.817,2.817,0,0,0,.685,1.893,2.153,2.153,0,0,0,1.666.721,2.36,2.36,0,0,0,1.216-.293,3.055,3.055,0,0,0,.872-.776l.828.645A3.328,3.328,0,0,1,35.48.146Zm-.168-7.1a1.807,1.807,0,0,0-1.377.6,2.9,2.9,0,0,0-.688,1.674h3.97v-.1a2.581,2.581,0,0,0-.557-1.6A1.7,1.7,0,0,0,35.311-6.958Zm6.108-.967.044,1a2.888,2.888,0,0,1,2.373-1.143q2.512,0,2.534,2.834V0H45.016V-5.244a1.824,1.824,0,0,0-.392-1.267,1.57,1.57,0,0,0-1.2-.41,1.956,1.956,0,0,0-1.157.352,2.387,2.387,0,0,0-.776.923V0H40.138V-7.925Zm8.833-1.919v1.919h1.479v1.047H50.253v4.921a1.1,1.1,0,0,0,.2.715A.832.832,0,0,0,51.124-1a3.281,3.281,0,0,0,.645-.088V0a3.951,3.951,0,0,1-1.04.146A1.687,1.687,0,0,1,49.359-.4a2.36,2.36,0,0,1-.461-1.56V-6.877H47.455V-7.925H48.9V-9.844Zm2.631,5.808a4.681,4.681,0,0,1,.458-2.095,3.415,3.415,0,0,1,1.274-1.436,3.469,3.469,0,0,1,1.864-.505A3.342,3.342,0,0,1,59.1-6.951a4.311,4.311,0,0,1,1,2.981v.1A4.722,4.722,0,0,1,59.655-1.8,3.365,3.365,0,0,1,58.388-.366a3.509,3.509,0,0,1-1.893.513A3.334,3.334,0,0,1,53.883-.974a4.29,4.29,0,0,1-1-2.966Zm1.362.161a3.39,3.39,0,0,0,.612,2.117,1.957,1.957,0,0,0,1.637.8,1.945,1.945,0,0,0,1.641-.809,3.707,3.707,0,0,0,.608-2.267,3.384,3.384,0,0,0-.619-2.113,1.968,1.968,0,0,0-1.644-.809,1.946,1.946,0,0,0-1.619.8A3.68,3.68,0,0,0,54.246-3.875Zm10.7-.154a4.642,4.642,0,0,1,.864-2.933,2.733,2.733,0,0,1,2.263-1.11,2.748,2.748,0,0,1,2.2.952V-11.25h1.355V0H70.383l-.066-.85a2.759,2.759,0,0,1-2.263,1A2.707,2.707,0,0,1,65.809-.981a4.7,4.7,0,0,1-.868-2.944Zm1.355.154a3.515,3.515,0,0,0,.557,2.109A1.8,1.8,0,0,0,68.391-1a1.977,1.977,0,0,0,1.882-1.157V-5.8a1.992,1.992,0,0,0-1.868-1.121,1.808,1.808,0,0,0-1.553.769A3.87,3.87,0,0,0,66.3-3.875ZM77.019.146A3.463,3.463,0,0,1,74.4-.912a3.928,3.928,0,0,1-1.011-2.831v-.249a4.756,4.756,0,0,1,.45-2.106,3.514,3.514,0,0,1,1.26-1.45,3.167,3.167,0,0,1,1.754-.524,2.968,2.968,0,0,1,2.4,1.018,4.408,4.408,0,0,1,.857,2.915v.564H74.741a2.817,2.817,0,0,0,.685,1.893,2.153,2.153,0,0,0,1.666.721,2.36,2.36,0,0,0,1.216-.293,3.055,3.055,0,0,0,.872-.776l.828.645A3.328,3.328,0,0,1,77.019.146Zm-.168-7.1a1.807,1.807,0,0,0-1.377.6,2.9,2.9,0,0,0-.688,1.674h3.97v-.1a2.581,2.581,0,0,0-.557-1.6A1.7,1.7,0,0,0,76.85-6.958ZM86.937,0H85.582V-11.25h1.355Zm6.986,0a2.846,2.846,0,0,1-.19-.835,3.023,3.023,0,0,1-2.256.981,2.8,2.8,0,0,1-1.923-.663A2.145,2.145,0,0,1,88.8-2.2a2.24,2.24,0,0,1,.941-1.923A4.437,4.437,0,0,1,92.392-4.8h1.318v-.623a1.522,1.522,0,0,0-.425-1.132,1.707,1.707,0,0,0-1.252-.421,1.976,1.976,0,0,0-1.216.366,1.079,1.079,0,0,0-.491.886H88.964a1.87,1.87,0,0,1,.421-1.146,2.874,2.874,0,0,1,1.143-.875,3.844,3.844,0,0,1,1.586-.322,3.133,3.133,0,0,1,2.146.685A2.47,2.47,0,0,1,95.066-5.5v3.647a4.459,4.459,0,0,0,.278,1.736V0ZM91.674-1.033a2.381,2.381,0,0,0,1.208-.33,1.994,1.994,0,0,0,.828-.857V-3.845H92.649q-2.49,0-2.49,1.458a1.234,1.234,0,0,0,.425,1A1.633,1.633,0,0,0,91.674-1.033Z" transform="translate(276.973 155.345)"/>
    <path id="Trazado_616937" data-name="Trazado 616937" d="M4.2-.959A1.952,1.952,0,0,0,5.471-1.4a1.546,1.546,0,0,0,.6-1.1H7.354a2.457,2.457,0,0,1-.469,1.3A3.087,3.087,0,0,1,5.731-.22,3.329,3.329,0,0,1,4.2.146,3.265,3.265,0,0,1,1.63-.934,4.3,4.3,0,0,1,.674-3.889v-.227A4.771,4.771,0,0,1,1.1-6.174a3.236,3.236,0,0,1,1.219-1.4,3.464,3.464,0,0,1,1.879-.5,3.178,3.178,0,0,1,2.216.8A2.853,2.853,0,0,1,7.354-5.2H6.072A1.867,1.867,0,0,0,5.49-6.464,1.811,1.811,0,0,0,4.2-6.958a1.9,1.9,0,0,0-1.6.743,3.491,3.491,0,0,0-.568,2.15v.256A3.422,3.422,0,0,0,2.593-1.7,1.906,1.906,0,0,0,4.2-.959ZM13.77,0a2.846,2.846,0,0,1-.19-.835,3.023,3.023,0,0,1-2.256.981A2.8,2.8,0,0,1,9.4-.516,2.145,2.145,0,0,1,8.65-2.2,2.24,2.24,0,0,1,9.591-4.12,4.437,4.437,0,0,1,12.239-4.8h1.318v-.623a1.522,1.522,0,0,0-.425-1.132A1.707,1.707,0,0,0,11.88-6.98a1.976,1.976,0,0,0-1.216.366,1.079,1.079,0,0,0-.491.886H8.811a1.87,1.87,0,0,1,.421-1.146,2.874,2.874,0,0,1,1.143-.875,3.844,3.844,0,0,1,1.586-.322,3.133,3.133,0,0,1,2.146.685A2.47,2.47,0,0,1,14.912-5.5v3.647A4.459,4.459,0,0,0,15.19-.117V0ZM11.521-1.033a2.381,2.381,0,0,0,1.208-.33,1.994,1.994,0,0,0,.828-.857V-3.845H12.5Q10-3.845,10-2.388a1.234,1.234,0,0,0,.425,1A1.633,1.633,0,0,0,11.521-1.033ZM18.508,0H17.153V-11.25h1.355Zm3.55,0H20.7V-7.925h1.355ZM20.594-10.027a.809.809,0,0,1,.2-.557.756.756,0,0,1,.6-.227.768.768,0,0,1,.6.227.8.8,0,0,1,.205.557.774.774,0,0,1-.205.549.782.782,0,0,1-.6.22.77.77,0,0,1-.6-.22A.782.782,0,0,1,20.594-10.027Zm3.228,6a4.642,4.642,0,0,1,.864-2.933,2.733,2.733,0,0,1,2.263-1.11,2.748,2.748,0,0,1,2.2.952V-11.25h1.355V0H29.264L29.2-.85a2.759,2.759,0,0,1-2.263,1A2.707,2.707,0,0,1,24.69-.981a4.7,4.7,0,0,1-.868-2.944Zm1.355.154a3.515,3.515,0,0,0,.557,2.109A1.8,1.8,0,0,0,27.272-1a1.977,1.977,0,0,0,1.882-1.157V-5.8a1.992,1.992,0,0,0-1.868-1.121,1.808,1.808,0,0,0-1.553.769A3.87,3.87,0,0,0,25.177-3.875ZM37.5,0a2.846,2.846,0,0,1-.19-.835,3.023,3.023,0,0,1-2.256.981,2.8,2.8,0,0,1-1.923-.663A2.145,2.145,0,0,1,32.384-2.2a2.24,2.24,0,0,1,.941-1.923A4.437,4.437,0,0,1,35.973-4.8h1.318v-.623a1.522,1.522,0,0,0-.425-1.132,1.707,1.707,0,0,0-1.252-.421,1.976,1.976,0,0,0-1.216.366,1.079,1.079,0,0,0-.491.886H32.545a1.87,1.87,0,0,1,.421-1.146,2.874,2.874,0,0,1,1.143-.875,3.844,3.844,0,0,1,1.586-.322,3.133,3.133,0,0,1,2.146.685A2.47,2.47,0,0,1,38.646-5.5v3.647a4.459,4.459,0,0,0,.278,1.736V0ZM35.255-1.033a2.381,2.381,0,0,0,1.208-.33,1.994,1.994,0,0,0,.828-.857V-3.845H36.229q-2.49,0-2.49,1.458a1.234,1.234,0,0,0,.425,1A1.633,1.633,0,0,0,35.255-1.033Zm5.141-3a4.642,4.642,0,0,1,.864-2.933,2.733,2.733,0,0,1,2.263-1.11,2.748,2.748,0,0,1,2.2.952V-11.25h1.355V0H45.837l-.066-.85a2.759,2.759,0,0,1-2.263,1A2.707,2.707,0,0,1,41.263-.981,4.7,4.7,0,0,1,40.4-3.926Zm1.355.154a3.515,3.515,0,0,0,.557,2.109A1.8,1.8,0,0,0,43.845-1a1.977,1.977,0,0,0,1.882-1.157V-5.8A1.992,1.992,0,0,0,43.86-6.921a1.808,1.808,0,0,0-1.553.769A3.87,3.87,0,0,0,41.75-3.875Zm10.818-.154a4.642,4.642,0,0,1,.864-2.933A2.733,2.733,0,0,1,55.7-8.071a2.748,2.748,0,0,1,2.2.952V-11.25h1.355V0H58.01l-.066-.85a2.759,2.759,0,0,1-2.263,1A2.707,2.707,0,0,1,53.436-.981a4.7,4.7,0,0,1-.868-2.944Zm1.355.154a3.515,3.515,0,0,0,.557,2.109A1.8,1.8,0,0,0,56.018-1,1.977,1.977,0,0,0,57.9-2.161V-5.8a1.992,1.992,0,0,0-1.868-1.121,1.808,1.808,0,0,0-1.553.769A3.87,3.87,0,0,0,53.923-3.875ZM64.646.146A3.463,3.463,0,0,1,62.024-.912a3.928,3.928,0,0,1-1.011-2.831v-.249a4.756,4.756,0,0,1,.45-2.106,3.514,3.514,0,0,1,1.26-1.45,3.167,3.167,0,0,1,1.754-.524,2.968,2.968,0,0,1,2.4,1.018,4.408,4.408,0,0,1,.857,2.915v.564H62.368a2.817,2.817,0,0,0,.685,1.893,2.153,2.153,0,0,0,1.666.721,2.36,2.36,0,0,0,1.216-.293,3.055,3.055,0,0,0,.872-.776l.828.645A3.328,3.328,0,0,1,64.646.146Zm-.168-7.1a1.807,1.807,0,0,0-1.377.6,2.9,2.9,0,0,0-.688,1.674h3.97v-.1a2.581,2.581,0,0,0-.557-1.6A1.7,1.7,0,0,0,64.478-6.958ZM70.776,0H69.421V-11.25h1.355Z" transform="translate(290.196 171.82)"/>
    <path id="Trazado_616938" data-name="Trazado 616938" d="M5.64-2.1a1,1,0,0,0-.414-.853,3.983,3.983,0,0,0-1.443-.524A6.822,6.822,0,0,1,2.15-4.006a2.324,2.324,0,0,1-.894-.732A1.752,1.752,0,0,1,.967-5.75,2.056,2.056,0,0,1,1.791-7.4,3.218,3.218,0,0,1,3.9-8.071a3.311,3.311,0,0,1,2.186.7A2.21,2.21,0,0,1,6.921-5.6H5.559a1.223,1.223,0,0,0-.472-.959,1.77,1.77,0,0,0-1.19-.4,1.852,1.852,0,0,0-1.157.322,1.014,1.014,0,0,0-.417.842.822.822,0,0,0,.388.74,4.776,4.776,0,0,0,1.4.476,7.308,7.308,0,0,1,1.644.542,2.4,2.4,0,0,1,.934.758,1.864,1.864,0,0,1,.3,1.08,2.028,2.028,0,0,1-.85,1.7,3.564,3.564,0,0,1-2.2.641A3.991,3.991,0,0,1,2.256-.19,2.74,2.74,0,0,1,1.11-1.132,2.268,2.268,0,0,1,.7-2.439H2.051A1.4,1.4,0,0,0,2.6-1.359a2.117,2.117,0,0,0,1.344.4,2.185,2.185,0,0,0,1.234-.311A.956.956,0,0,0,5.64-2.1ZM13.652-.784a2.878,2.878,0,0,1-2.322.93A2.464,2.464,0,0,1,9.4-.59a3.186,3.186,0,0,1-.67-2.179V-7.925h1.355v5.12q0,1.8,1.465,1.8a2.028,2.028,0,0,0,2.065-1.157V-7.925h1.355V0H13.682Zm6.665.93A3.463,3.463,0,0,1,17.7-.912a3.928,3.928,0,0,1-1.011-2.831v-.249a4.756,4.756,0,0,1,.45-2.106,3.514,3.514,0,0,1,1.26-1.45,3.167,3.167,0,0,1,1.754-.524,2.968,2.968,0,0,1,2.4,1.018,4.408,4.408,0,0,1,.857,2.915v.564H18.04a2.817,2.817,0,0,0,.685,1.893,2.153,2.153,0,0,0,1.666.721,2.36,2.36,0,0,0,1.216-.293,3.055,3.055,0,0,0,.872-.776l.828.645A3.328,3.328,0,0,1,20.317.146Zm-.168-7.1a1.807,1.807,0,0,0-1.377.6,2.9,2.9,0,0,0-.688,1.674h3.97v-.1a2.581,2.581,0,0,0-.557-1.6A1.7,1.7,0,0,0,20.149-6.958ZM26.4,0H25.048V-11.25H26.4Zm1.734-4.036a4.681,4.681,0,0,1,.458-2.095,3.415,3.415,0,0,1,1.274-1.436,3.469,3.469,0,0,1,1.864-.505,3.342,3.342,0,0,1,2.618,1.121,4.311,4.311,0,0,1,1,2.981v.1A4.722,4.722,0,0,1,34.908-1.8,3.365,3.365,0,0,1,33.641-.366a3.509,3.509,0,0,1-1.893.513A3.334,3.334,0,0,1,29.137-.974a4.29,4.29,0,0,1-1-2.966Zm1.362.161a3.39,3.39,0,0,0,.612,2.117,1.957,1.957,0,0,0,1.637.8,1.945,1.945,0,0,0,1.641-.809A3.707,3.707,0,0,0,34-4.036a3.384,3.384,0,0,0-.619-2.113,1.968,1.968,0,0,0-1.644-.809,1.946,1.946,0,0,0-1.619.8A3.68,3.68,0,0,0,29.5-3.875Z" transform="translate(309.271 188.295)"/>
    <path id="Trazado_616939" data-name="Trazado 616939" d="M7.126-2.791H2.659L1.655,0H.205L4.277-10.664h1.23L9.587,0H8.145ZM3.083-3.94H6.709L4.893-8.928ZM15.578-.784a2.878,2.878,0,0,1-2.322.93,2.464,2.464,0,0,1-1.93-.736,3.186,3.186,0,0,1-.67-2.179V-7.925h1.355v5.12q0,1.8,1.465,1.8a2.028,2.028,0,0,0,2.065-1.157V-7.925H16.9V0H15.607Zm4.651-7.141.037.879a2.927,2.927,0,0,1,2.351-1.025A2.266,2.266,0,0,1,24.879-6.8a3,3,0,0,1,1.029-.923,3.039,3.039,0,0,1,1.5-.352q2.607,0,2.651,2.761V0H28.7V-5.229A1.82,1.82,0,0,0,28.314-6.5a1.71,1.71,0,0,0-1.3-.421,1.8,1.8,0,0,0-1.252.45,1.827,1.827,0,0,0-.579,1.212V0H23.817V-5.193a1.512,1.512,0,0,0-1.692-1.729A1.813,1.813,0,0,0,20.3-5.786V0H18.947V-7.925ZM35.39.146A3.463,3.463,0,0,1,32.768-.912a3.928,3.928,0,0,1-1.011-2.831v-.249a4.755,4.755,0,0,1,.45-2.106,3.514,3.514,0,0,1,1.26-1.45,3.167,3.167,0,0,1,1.754-.524,2.968,2.968,0,0,1,2.4,1.018,4.408,4.408,0,0,1,.857,2.915v.564H33.112A2.817,2.817,0,0,0,33.8-1.681a2.153,2.153,0,0,0,1.666.721,2.36,2.36,0,0,0,1.216-.293,3.055,3.055,0,0,0,.872-.776l.828.645A3.328,3.328,0,0,1,35.39.146Zm-.168-7.1a1.807,1.807,0,0,0-1.377.6,2.9,2.9,0,0,0-.688,1.674h3.97v-.1a2.581,2.581,0,0,0-.557-1.6A1.7,1.7,0,0,0,35.221-6.958Zm6.108-.967.044,1a2.888,2.888,0,0,1,2.373-1.143q2.512,0,2.534,2.834V0H44.926V-5.244a1.824,1.824,0,0,0-.392-1.267,1.57,1.57,0,0,0-1.2-.41,1.956,1.956,0,0,0-1.157.352,2.387,2.387,0,0,0-.776.923V0H40.048V-7.925Zm8.833-1.919v1.919h1.479v1.047H50.163v4.921a1.1,1.1,0,0,0,.2.715A.832.832,0,0,0,51.034-1a3.281,3.281,0,0,0,.645-.088V0a3.951,3.951,0,0,1-1.04.146A1.687,1.687,0,0,1,49.269-.4a2.36,2.36,0,0,1-.461-1.56V-6.877H47.365V-7.925h1.443V-9.844Zm2.6,5.808a4.681,4.681,0,0,1,.458-2.095A3.415,3.415,0,0,1,54.5-7.566a3.469,3.469,0,0,1,1.864-.505,3.342,3.342,0,0,1,2.618,1.121,4.311,4.311,0,0,1,1,2.981v.1A4.722,4.722,0,0,1,59.535-1.8,3.365,3.365,0,0,1,58.268-.366a3.509,3.509,0,0,1-1.893.513A3.334,3.334,0,0,1,53.763-.974a4.29,4.29,0,0,1-1-2.966Zm1.362.161a3.39,3.39,0,0,0,.612,2.117,1.957,1.957,0,0,0,1.637.8,1.945,1.945,0,0,0,1.641-.809,3.707,3.707,0,0,0,.608-2.267A3.384,3.384,0,0,0,58-6.149a1.968,1.968,0,0,0-1.644-.809,1.946,1.946,0,0,0-1.619.8A3.68,3.68,0,0,0,54.126-3.875Zm10.665-.154a4.642,4.642,0,0,1,.864-2.933,2.733,2.733,0,0,1,2.263-1.11,2.748,2.748,0,0,1,2.2.952V-11.25h1.355V0H70.233l-.066-.85a2.759,2.759,0,0,1-2.263,1A2.707,2.707,0,0,1,65.659-.981a4.7,4.7,0,0,1-.868-2.944Zm1.355.154A3.515,3.515,0,0,0,66.7-1.765,1.8,1.8,0,0,0,68.241-1a1.977,1.977,0,0,0,1.882-1.157V-5.8a1.992,1.992,0,0,0-1.868-1.121,1.808,1.808,0,0,0-1.553.769A3.87,3.87,0,0,0,66.146-3.875ZM76.869.146A3.463,3.463,0,0,1,74.247-.912a3.928,3.928,0,0,1-1.011-2.831v-.249a4.756,4.756,0,0,1,.45-2.106,3.514,3.514,0,0,1,1.26-1.45A3.167,3.167,0,0,1,76.7-8.071a2.968,2.968,0,0,1,2.4,1.018,4.408,4.408,0,0,1,.857,2.915v.564H74.591a2.817,2.817,0,0,0,.685,1.893,2.153,2.153,0,0,0,1.666.721,2.36,2.36,0,0,0,1.216-.293,3.055,3.055,0,0,0,.872-.776l.828.645A3.328,3.328,0,0,1,76.869.146Zm-.168-7.1a1.807,1.807,0,0,0-1.377.6,2.9,2.9,0,0,0-.688,1.674H78.6v-.1a2.581,2.581,0,0,0-.557-1.6A1.7,1.7,0,0,0,76.7-6.958ZM86.727,0H85.372V-11.25h1.355Zm6.986,0a2.846,2.846,0,0,1-.19-.835,3.023,3.023,0,0,1-2.256.981,2.8,2.8,0,0,1-1.923-.663A2.145,2.145,0,0,1,88.593-2.2a2.24,2.24,0,0,1,.941-1.923A4.437,4.437,0,0,1,92.182-4.8H93.5v-.623a1.522,1.522,0,0,0-.425-1.132,1.707,1.707,0,0,0-1.252-.421,1.976,1.976,0,0,0-1.216.366,1.079,1.079,0,0,0-.491.886H88.754a1.87,1.87,0,0,1,.421-1.146,2.874,2.874,0,0,1,1.143-.875A3.844,3.844,0,0,1,91.9-8.071a3.133,3.133,0,0,1,2.146.685A2.47,2.47,0,0,1,94.856-5.5v3.647a4.459,4.459,0,0,0,.278,1.736V0ZM91.464-1.033a2.381,2.381,0,0,0,1.208-.33,1.994,1.994,0,0,0,.828-.857V-3.845H92.439q-2.49,0-2.49,1.458a1.234,1.234,0,0,0,.425,1A1.633,1.633,0,0,0,91.464-1.033Z" transform="translate(429.581 162.124)"/>
    <path id="Trazado_616940" data-name="Trazado 616940" d="M7.72-3.875A4.745,4.745,0,0,1,6.892-.959,2.653,2.653,0,0,1,4.651.146,2.906,2.906,0,0,1,2.38-.769V3.047H1.025V-7.925H2.263l.066.879a2.791,2.791,0,0,1,2.3-1.025,2.7,2.7,0,0,1,2.26,1.077A4.8,4.8,0,0,1,7.72-4ZM6.365-4.028a3.5,3.5,0,0,0-.571-2.117,1.84,1.84,0,0,0-1.567-.776A1.992,1.992,0,0,0,2.38-5.83v3.787A2,2,0,0,0,4.241-.959,1.832,1.832,0,0,0,5.79-1.732,3.822,3.822,0,0,0,6.365-4.028Zm6.907-2.681A4.061,4.061,0,0,0,12.6-6.76,1.786,1.786,0,0,0,10.8-5.625V0H9.441V-7.925h1.318l.022.916a2.11,2.11,0,0,1,1.89-1.062,1.384,1.384,0,0,1,.6.1Zm.74,2.673a4.681,4.681,0,0,1,.458-2.095,3.415,3.415,0,0,1,1.274-1.436,3.469,3.469,0,0,1,1.864-.505,3.342,3.342,0,0,1,2.618,1.121,4.311,4.311,0,0,1,1,2.981v.1A4.722,4.722,0,0,1,20.782-1.8,3.365,3.365,0,0,1,19.515-.366a3.509,3.509,0,0,1-1.893.513A3.334,3.334,0,0,1,15.011-.974a4.29,4.29,0,0,1-1-2.966Zm1.362.161a3.39,3.39,0,0,0,.612,2.117,1.957,1.957,0,0,0,1.637.8,1.945,1.945,0,0,0,1.641-.809,3.707,3.707,0,0,0,.608-2.267,3.384,3.384,0,0,0-.619-2.113,1.968,1.968,0,0,0-1.644-.809,1.946,1.946,0,0,0-1.619.8A3.68,3.68,0,0,0,15.374-3.875ZM22.6-4.028a4.642,4.642,0,0,1,.864-2.933,2.733,2.733,0,0,1,2.263-1.11,2.748,2.748,0,0,1,2.2.952V-11.25h1.355V0H28.037l-.066-.85a2.759,2.759,0,0,1-2.263,1A2.707,2.707,0,0,1,23.463-.981,4.7,4.7,0,0,1,22.6-3.926Zm1.355.154a3.515,3.515,0,0,0,.557,2.109A1.8,1.8,0,0,0,26.045-1a1.977,1.977,0,0,0,1.882-1.157V-5.8A1.992,1.992,0,0,0,26.06-6.921a1.808,1.808,0,0,0-1.553.769A3.87,3.87,0,0,0,23.95-3.875ZM36.277-.784a2.878,2.878,0,0,1-2.322.93,2.464,2.464,0,0,1-1.93-.736,3.186,3.186,0,0,1-.67-2.179V-7.925H32.71v5.12q0,1.8,1.465,1.8A2.028,2.028,0,0,0,36.24-2.161V-7.925H37.6V0H36.306Zm6.555-.176A1.952,1.952,0,0,0,44.1-1.4a1.546,1.546,0,0,0,.6-1.1h1.282a2.457,2.457,0,0,1-.469,1.3,3.087,3.087,0,0,1-1.154.981,3.329,3.329,0,0,1-1.527.366,3.265,3.265,0,0,1-2.574-1.08A4.3,4.3,0,0,1,39.3-3.889v-.227a4.771,4.771,0,0,1,.425-2.058,3.236,3.236,0,0,1,1.219-1.4,3.464,3.464,0,0,1,1.879-.5,3.178,3.178,0,0,1,2.216.8A2.853,2.853,0,0,1,45.981-5.2H44.7a1.867,1.867,0,0,0-.582-1.263,1.811,1.811,0,0,0-1.293-.494,1.9,1.9,0,0,0-1.6.743,3.491,3.491,0,0,0-.568,2.15v.256A3.422,3.422,0,0,0,41.221-1.7,1.906,1.906,0,0,0,42.832-.959Zm6.511-8.884v1.919h1.479v1.047H49.343v4.921a1.1,1.1,0,0,0,.2.715A.832.832,0,0,0,50.215-1a3.281,3.281,0,0,0,.645-.088V0a3.951,3.951,0,0,1-1.04.146A1.687,1.687,0,0,1,48.45-.4a2.36,2.36,0,0,1-.461-1.56V-6.877H46.545V-7.925h1.443V-9.844ZM53.877,0H52.522V-7.925h1.355ZM52.412-10.027a.809.809,0,0,1,.2-.557.756.756,0,0,1,.6-.227.768.768,0,0,1,.6.227.8.8,0,0,1,.205.557.774.774,0,0,1-.205.549.782.782,0,0,1-.6.22.77.77,0,0,1-.6-.22A.782.782,0,0,1,52.412-10.027ZM58.66-1.838l1.963-6.086h1.384L59.165,0H58.132L55.261-7.925h1.384ZM64.588,0H63.233V-7.925h1.355ZM63.123-10.027a.809.809,0,0,1,.2-.557.756.756,0,0,1,.6-.227.768.768,0,0,1,.6.227.8.8,0,0,1,.205.557.774.774,0,0,1-.205.549.782.782,0,0,1-.6.22.77.77,0,0,1-.6-.22A.782.782,0,0,1,63.123-10.027Zm3.228,6a4.642,4.642,0,0,1,.864-2.933,2.733,2.733,0,0,1,2.263-1.11,2.748,2.748,0,0,1,2.2.952V-11.25h1.355V0H71.793l-.066-.85a2.759,2.759,0,0,1-2.263,1A2.707,2.707,0,0,1,67.219-.981a4.7,4.7,0,0,1-.868-2.944Zm1.355.154a3.515,3.515,0,0,0,.557,2.109A1.8,1.8,0,0,0,69.8-1a1.977,1.977,0,0,0,1.882-1.157V-5.8a1.992,1.992,0,0,0-1.868-1.121,1.808,1.808,0,0,0-1.553.769A3.87,3.87,0,0,0,67.706-3.875ZM80.033,0a2.846,2.846,0,0,1-.19-.835,3.023,3.023,0,0,1-2.256.981,2.8,2.8,0,0,1-1.923-.663A2.145,2.145,0,0,1,74.913-2.2a2.24,2.24,0,0,1,.941-1.923A4.437,4.437,0,0,1,78.5-4.8H79.82v-.623A1.522,1.522,0,0,0,79.4-6.559a1.707,1.707,0,0,0-1.252-.421,1.976,1.976,0,0,0-1.216.366,1.079,1.079,0,0,0-.491.886H75.074A1.87,1.87,0,0,1,75.5-6.874a2.874,2.874,0,0,1,1.143-.875,3.844,3.844,0,0,1,1.586-.322,3.133,3.133,0,0,1,2.146.685A2.47,2.47,0,0,1,81.175-5.5v3.647a4.459,4.459,0,0,0,.278,1.736V0ZM77.784-1.033a2.381,2.381,0,0,0,1.208-.33,1.994,1.994,0,0,0,.828-.857V-3.845H78.758q-2.49,0-2.49,1.458a1.234,1.234,0,0,0,.425,1A1.633,1.633,0,0,0,77.784-1.033Zm5.141-3a4.642,4.642,0,0,1,.864-2.933,2.733,2.733,0,0,1,2.263-1.11,2.748,2.748,0,0,1,2.2.952V-11.25h1.355V0H88.367L88.3-.85a2.759,2.759,0,0,1-2.263,1A2.707,2.707,0,0,1,83.793-.981a4.7,4.7,0,0,1-.868-2.944Zm1.355.154a3.515,3.515,0,0,0,.557,2.109A1.8,1.8,0,0,0,86.374-1a1.977,1.977,0,0,0,1.882-1.157V-5.8a1.992,1.992,0,0,0-1.868-1.121,1.808,1.808,0,0,0-1.553.769A3.87,3.87,0,0,0,84.28-3.875Z" transform="translate(433.569 178.599)"/>
    <path id="Trazado_616941" data-name="Trazado 616941" d="M4.38-4.753A6.612,6.612,0,0,1,1.747-6.031,2.442,2.442,0,0,1,.923-7.9,2.58,2.58,0,0,1,1.93-9.987a4,4,0,0,1,2.618-.824,4.369,4.369,0,0,1,1.959.425A3.222,3.222,0,0,1,7.841-9.214a3,3,0,0,1,.472,1.633H6.9a1.95,1.95,0,0,0-.615-1.525,2.5,2.5,0,0,0-1.736-.555A2.561,2.561,0,0,0,2.926-9.2a1.53,1.53,0,0,0-.582,1.273,1.376,1.376,0,0,0,.553,1.1A5.424,5.424,0,0,0,4.779-6a8.734,8.734,0,0,1,2.08.825A3.157,3.157,0,0,1,7.972-4.124,2.683,2.683,0,0,1,8.335-2.71,2.492,2.492,0,0,1,7.324-.634a4.31,4.31,0,0,1-2.7.78A5.013,5.013,0,0,1,2.571-.275,3.451,3.451,0,0,1,1.1-1.428,2.815,2.815,0,0,1,.586-3.091H2a1.837,1.837,0,0,0,.714,1.527A3.007,3.007,0,0,0,4.622-1a2.764,2.764,0,0,0,1.707-.454A1.475,1.475,0,0,0,6.921-2.7a1.448,1.448,0,0,0-.549-1.212A6.333,6.333,0,0,0,4.38-4.753Zm8.788,4.9A3.463,3.463,0,0,1,10.546-.912,3.928,3.928,0,0,1,9.535-3.743v-.249A4.756,4.756,0,0,1,9.986-6.1a3.514,3.514,0,0,1,1.26-1.45A3.167,3.167,0,0,1,13-8.071a2.968,2.968,0,0,1,2.4,1.018,4.408,4.408,0,0,1,.857,2.915v.564H10.89a2.817,2.817,0,0,0,.685,1.893,2.153,2.153,0,0,0,1.666.721,2.36,2.36,0,0,0,1.216-.293,3.055,3.055,0,0,0,.872-.776l.828.645A3.328,3.328,0,0,1,13.168.146ZM13-6.958a1.807,1.807,0,0,0-1.377.6,2.9,2.9,0,0,0-.688,1.674H14.9v-.1a2.581,2.581,0,0,0-.557-1.6A1.7,1.7,0,0,0,13-6.958Zm12.371.249A4.061,4.061,0,0,0,24.7-6.76a1.786,1.786,0,0,0-1.809,1.135V0H21.539V-7.925h1.318l.022.916a2.11,2.11,0,0,1,1.89-1.062,1.384,1.384,0,0,1,.6.1ZM29.979.146A3.463,3.463,0,0,1,27.357-.912a3.928,3.928,0,0,1-1.011-2.831v-.249A4.756,4.756,0,0,1,26.8-6.1a3.514,3.514,0,0,1,1.26-1.45,3.167,3.167,0,0,1,1.754-.524,2.968,2.968,0,0,1,2.4,1.018,4.408,4.408,0,0,1,.857,2.915v.564H27.7a2.817,2.817,0,0,0,.685,1.893,2.153,2.153,0,0,0,1.666.721,2.36,2.36,0,0,0,1.216-.293,3.055,3.055,0,0,0,.872-.776l.828.645A3.328,3.328,0,0,1,29.979.146Zm-.168-7.1a1.807,1.807,0,0,0-1.377.6,2.9,2.9,0,0,0-.688,1.674h3.97v-.1a2.581,2.581,0,0,0-.557-1.6A1.7,1.7,0,0,0,29.81-6.958Zm4.5,2.93a4.642,4.642,0,0,1,.864-2.933,2.733,2.733,0,0,1,2.263-1.11,2.748,2.748,0,0,1,2.2.952V-11.25h1.355V0H39.749l-.066-.85a2.759,2.759,0,0,1-2.263,1A2.707,2.707,0,0,1,35.175-.981a4.7,4.7,0,0,1-.868-2.944Zm1.355.154a3.515,3.515,0,0,0,.557,2.109A1.8,1.8,0,0,0,37.757-1a1.977,1.977,0,0,0,1.882-1.157V-5.8a1.992,1.992,0,0,0-1.868-1.121,1.808,1.808,0,0,0-1.553.769A3.87,3.87,0,0,0,35.662-3.875ZM47.944-.784a2.878,2.878,0,0,1-2.322.93,2.464,2.464,0,0,1-1.93-.736,3.186,3.186,0,0,1-.67-2.179V-7.925h1.355v5.12q0,1.8,1.465,1.8a2.028,2.028,0,0,0,2.065-1.157V-7.925h1.355V0H47.973ZM54.5-.959A1.952,1.952,0,0,0,55.766-1.4a1.546,1.546,0,0,0,.6-1.1h1.282a2.457,2.457,0,0,1-.469,1.3,3.087,3.087,0,0,1-1.154.981A3.329,3.329,0,0,1,54.5.146a3.265,3.265,0,0,1-2.574-1.08,4.3,4.3,0,0,1-.956-2.955v-.227a4.771,4.771,0,0,1,.425-2.058,3.236,3.236,0,0,1,1.219-1.4,3.464,3.464,0,0,1,1.879-.5,3.178,3.178,0,0,1,2.216.8A2.853,2.853,0,0,1,57.649-5.2H56.367a1.867,1.867,0,0,0-.582-1.263,1.811,1.811,0,0,0-1.293-.494,1.9,1.9,0,0,0-1.6.743,3.491,3.491,0,0,0-.568,2.15v.256A3.422,3.422,0,0,0,52.888-1.7,1.906,1.906,0,0,0,54.5-.959ZM62.461.146A3.463,3.463,0,0,1,59.839-.912a3.928,3.928,0,0,1-1.011-2.831v-.249a4.756,4.756,0,0,1,.45-2.106,3.514,3.514,0,0,1,1.26-1.45,3.167,3.167,0,0,1,1.754-.524,2.968,2.968,0,0,1,2.4,1.018,4.408,4.408,0,0,1,.857,2.915v.564H60.183a2.817,2.817,0,0,0,.685,1.893,2.153,2.153,0,0,0,1.666.721,2.36,2.36,0,0,0,1.216-.293,3.055,3.055,0,0,0,.872-.776l.828.645A3.328,3.328,0,0,1,62.461.146Zm-.168-7.1a1.807,1.807,0,0,0-1.377.6,2.9,2.9,0,0,0-.688,1.674H64.2v-.1a2.581,2.581,0,0,0-.557-1.6A1.7,1.7,0,0,0,62.292-6.958ZM72.019,0H70.664V-11.25h1.355ZM79,0a2.846,2.846,0,0,1-.19-.835,3.023,3.023,0,0,1-2.256.981,2.8,2.8,0,0,1-1.923-.663A2.145,2.145,0,0,1,73.885-2.2a2.24,2.24,0,0,1,.941-1.923A4.437,4.437,0,0,1,77.474-4.8h1.318v-.623a1.522,1.522,0,0,0-.425-1.132,1.707,1.707,0,0,0-1.252-.421,1.976,1.976,0,0,0-1.216.366,1.079,1.079,0,0,0-.491.886H74.046a1.87,1.87,0,0,1,.421-1.146,2.874,2.874,0,0,1,1.143-.875A3.844,3.844,0,0,1,77.2-8.071a3.133,3.133,0,0,1,2.146.685A2.47,2.47,0,0,1,80.147-5.5v3.647a4.459,4.459,0,0,0,.278,1.736V0ZM76.756-1.033a2.381,2.381,0,0,0,1.208-.33,1.994,1.994,0,0,0,.828-.857V-3.845H77.73q-2.49,0-2.49,1.458a1.234,1.234,0,0,0,.425,1A1.633,1.633,0,0,0,76.756-1.033Z" transform="translate(592.212 149.566)"/>
    <path id="Trazado_616942" data-name="Trazado 616942" d="M4.314.146A3.463,3.463,0,0,1,1.692-.912,3.928,3.928,0,0,1,.681-3.743v-.249A4.756,4.756,0,0,1,1.132-6.1a3.514,3.514,0,0,1,1.26-1.45,3.167,3.167,0,0,1,1.754-.524,2.968,2.968,0,0,1,2.4,1.018A4.408,4.408,0,0,1,7.4-4.138v.564H2.036a2.817,2.817,0,0,0,.685,1.893,2.153,2.153,0,0,0,1.666.721A2.36,2.36,0,0,0,5.6-1.252a3.055,3.055,0,0,0,.872-.776l.828.645A3.328,3.328,0,0,1,4.314.146Zm-.168-7.1a1.807,1.807,0,0,0-1.377.6A2.9,2.9,0,0,0,2.08-4.687H6.05v-.1a2.581,2.581,0,0,0-.557-1.6A1.7,1.7,0,0,0,4.146-6.958Zm7.346,5.12,1.963-6.086h1.384L12,0H10.964L8.093-7.925H9.478ZM20.73,0a2.846,2.846,0,0,1-.19-.835,3.023,3.023,0,0,1-2.256.981,2.8,2.8,0,0,1-1.923-.663A2.145,2.145,0,0,1,15.611-2.2a2.24,2.24,0,0,1,.941-1.923A4.437,4.437,0,0,1,19.2-4.8h1.318v-.623a1.522,1.522,0,0,0-.425-1.132,1.707,1.707,0,0,0-1.252-.421,1.976,1.976,0,0,0-1.216.366,1.079,1.079,0,0,0-.491.886H15.772a1.87,1.87,0,0,1,.421-1.146,2.874,2.874,0,0,1,1.143-.875,3.844,3.844,0,0,1,1.586-.322,3.133,3.133,0,0,1,2.146.685A2.47,2.47,0,0,1,21.873-5.5v3.647a4.459,4.459,0,0,0,.278,1.736V0ZM18.482-1.033a2.381,2.381,0,0,0,1.208-.33,1.994,1.994,0,0,0,.828-.857V-3.845H19.456q-2.49,0-2.49,1.458a1.234,1.234,0,0,0,.425,1A1.633,1.633,0,0,0,18.482-1.033ZM30.691-3.875a4.745,4.745,0,0,1-.828,2.915A2.653,2.653,0,0,1,27.622.146a2.906,2.906,0,0,1-2.271-.916V3.047H24V-7.925h1.238l.066.879a2.791,2.791,0,0,1,2.3-1.025,2.7,2.7,0,0,1,2.26,1.077,4.8,4.8,0,0,1,.831,3Zm-1.355-.154a3.5,3.5,0,0,0-.571-2.117A1.84,1.84,0,0,0,27.2-6.921,1.992,1.992,0,0,0,25.352-5.83v3.787a2,2,0,0,0,1.86,1.084,1.832,1.832,0,0,0,1.549-.773A3.822,3.822,0,0,0,29.336-4.028Zm2.672-.007a4.681,4.681,0,0,1,.458-2.095,3.415,3.415,0,0,1,1.274-1.436A3.469,3.469,0,0,1,35.6-8.071a3.342,3.342,0,0,1,2.618,1.121,4.311,4.311,0,0,1,1,2.981v.1A4.722,4.722,0,0,1,38.78-1.8,3.365,3.365,0,0,1,37.513-.366a3.509,3.509,0,0,1-1.893.513A3.334,3.334,0,0,1,33.008-.974a4.29,4.29,0,0,1-1-2.966Zm1.362.161a3.39,3.39,0,0,0,.612,2.117,1.957,1.957,0,0,0,1.637.8,1.945,1.945,0,0,0,1.641-.809,3.707,3.707,0,0,0,.608-2.267,3.384,3.384,0,0,0-.619-2.113A1.968,1.968,0,0,0,35.6-6.958a1.946,1.946,0,0,0-1.619.8A3.68,3.68,0,0,0,33.371-3.875Z" transform="translate(612.502 166.042)"/>
    <path id="Trazado_616943" data-name="Trazado 616943" d="M2.864-9.844v1.919H4.343v1.047H2.864v4.921a1.1,1.1,0,0,0,.2.715A.832.832,0,0,0,3.735-1a3.281,3.281,0,0,0,.645-.088V0A3.951,3.951,0,0,1,3.34.146,1.687,1.687,0,0,1,1.97-.4a2.36,2.36,0,0,1-.461-1.56V-6.877H.066V-7.925H1.509V-9.844ZM9.816-6.709a4.061,4.061,0,0,0-.667-.051A1.786,1.786,0,0,0,7.34-5.625V0H5.985V-7.925H7.3l.022.916a2.11,2.11,0,0,1,1.89-1.062,1.384,1.384,0,0,1,.6.1ZM15.691,0a2.846,2.846,0,0,1-.19-.835,3.023,3.023,0,0,1-2.256.981,2.8,2.8,0,0,1-1.923-.663A2.145,2.145,0,0,1,10.571-2.2a2.24,2.24,0,0,1,.941-1.923A4.437,4.437,0,0,1,14.16-4.8h1.318v-.623a1.522,1.522,0,0,0-.425-1.132A1.707,1.707,0,0,0,13.8-6.98a1.976,1.976,0,0,0-1.216.366,1.079,1.079,0,0,0-.491.886H10.732a1.87,1.87,0,0,1,.421-1.146A2.874,2.874,0,0,1,12.3-7.749a3.844,3.844,0,0,1,1.586-.322,3.133,3.133,0,0,1,2.146.685A2.47,2.47,0,0,1,16.833-5.5v3.647a4.459,4.459,0,0,0,.278,1.736V0ZM13.442-1.033a2.381,2.381,0,0,0,1.208-.33,1.994,1.994,0,0,0,.828-.857V-3.845H14.416q-2.49,0-2.49,1.458a1.234,1.234,0,0,0,.425,1A1.633,1.633,0,0,0,13.442-1.033Zm6.8-6.892.044,1a2.888,2.888,0,0,1,2.373-1.143q2.512,0,2.534,2.834V0H23.835V-5.244a1.824,1.824,0,0,0-.392-1.267,1.57,1.57,0,0,0-1.2-.41,1.956,1.956,0,0,0-1.157.352,2.387,2.387,0,0,0-.776.923V0H18.957V-7.925ZM31.8-2.1a1,1,0,0,0-.414-.853,3.983,3.983,0,0,0-1.443-.524,6.822,6.822,0,0,1-1.633-.527,2.324,2.324,0,0,1-.894-.732A1.752,1.752,0,0,1,27.13-5.75,2.056,2.056,0,0,1,27.954-7.4a3.218,3.218,0,0,1,2.106-.674,3.311,3.311,0,0,1,2.186.7,2.21,2.21,0,0,1,.839,1.78H31.722a1.223,1.223,0,0,0-.472-.959,1.77,1.77,0,0,0-1.19-.4,1.852,1.852,0,0,0-1.157.322,1.014,1.014,0,0,0-.417.842.822.822,0,0,0,.388.74,4.776,4.776,0,0,0,1.4.476,7.308,7.308,0,0,1,1.644.542,2.4,2.4,0,0,1,.934.758,1.864,1.864,0,0,1,.3,1.08,2.028,2.028,0,0,1-.85,1.7,3.564,3.564,0,0,1-2.2.641A3.991,3.991,0,0,1,28.419-.19a2.74,2.74,0,0,1-1.146-.941,2.268,2.268,0,0,1-.414-1.307h1.355a1.4,1.4,0,0,0,.546,1.08,2.117,2.117,0,0,0,1.344.4,2.185,2.185,0,0,0,1.234-.311A.956.956,0,0,0,31.8-2.1Zm9.814-1.772A4.745,4.745,0,0,1,40.79-.959,2.653,2.653,0,0,1,38.548.146a2.906,2.906,0,0,1-2.271-.916V3.047H34.923V-7.925h1.238l.066.879a2.791,2.791,0,0,1,2.3-1.025,2.7,2.7,0,0,1,2.26,1.077,4.8,4.8,0,0,1,.831,3Zm-1.355-.154a3.5,3.5,0,0,0-.571-2.117,1.84,1.84,0,0,0-1.567-.776A1.992,1.992,0,0,0,36.278-5.83v3.787a2,2,0,0,0,1.86,1.084,1.832,1.832,0,0,0,1.549-.773A3.822,3.822,0,0,0,40.262-4.028ZM44.811,0H43.456V-7.925h1.355ZM43.346-10.027a.809.809,0,0,1,.2-.557.756.756,0,0,1,.6-.227.768.768,0,0,1,.6.227.8.8,0,0,1,.205.557.774.774,0,0,1-.205.549.782.782,0,0,1-.6.22.77.77,0,0,1-.6-.22A.782.782,0,0,1,43.346-10.027Zm7.373,3.318a4.061,4.061,0,0,0-.667-.051,1.786,1.786,0,0,0-1.809,1.135V0H46.889V-7.925h1.318l.022.916a2.11,2.11,0,0,1,1.89-1.062,1.384,1.384,0,0,1,.6.1ZM56.594,0a2.846,2.846,0,0,1-.19-.835,3.023,3.023,0,0,1-2.256.981,2.8,2.8,0,0,1-1.923-.663A2.145,2.145,0,0,1,51.474-2.2a2.24,2.24,0,0,1,.941-1.923A4.437,4.437,0,0,1,55.063-4.8h1.318v-.623a1.522,1.522,0,0,0-.425-1.132A1.707,1.707,0,0,0,54.7-6.98a1.976,1.976,0,0,0-1.216.366A1.079,1.079,0,0,0,53-5.728H51.635a1.87,1.87,0,0,1,.421-1.146A2.874,2.874,0,0,1,53.2-7.749a3.844,3.844,0,0,1,1.586-.322,3.133,3.133,0,0,1,2.146.685A2.47,2.47,0,0,1,57.736-5.5v3.647a4.459,4.459,0,0,0,.278,1.736V0ZM54.345-1.033a2.381,2.381,0,0,0,1.208-.33,1.994,1.994,0,0,0,.828-.857V-3.845H55.319q-2.49,0-2.49,1.458a1.234,1.234,0,0,0,.425,1A1.633,1.633,0,0,0,54.345-1.033Zm8.694.073A1.952,1.952,0,0,0,64.306-1.4a1.546,1.546,0,0,0,.6-1.1h1.282a2.457,2.457,0,0,1-.469,1.3,3.087,3.087,0,0,1-1.154.981,3.329,3.329,0,0,1-1.527.366,3.265,3.265,0,0,1-2.574-1.08,4.3,4.3,0,0,1-.956-2.955v-.227a4.771,4.771,0,0,1,.425-2.058,3.236,3.236,0,0,1,1.219-1.4,3.464,3.464,0,0,1,1.879-.5,3.178,3.178,0,0,1,2.216.8A2.853,2.853,0,0,1,66.189-5.2H64.907a1.867,1.867,0,0,0-.582-1.263,1.811,1.811,0,0,0-1.293-.494,1.9,1.9,0,0,0-1.6.743,3.491,3.491,0,0,0-.568,2.15v.256A3.422,3.422,0,0,0,61.428-1.7,1.906,1.906,0,0,0,63.039-.959ZM69.184,0H67.829V-7.925h1.355ZM67.719-10.027a.809.809,0,0,1,.2-.557.756.756,0,0,1,.6-.227.768.768,0,0,1,.6.227.8.8,0,0,1,.205.557.774.774,0,0,1-.205.549.782.782,0,0,1-.6.22.77.77,0,0,1-.6-.22A.782.782,0,0,1,67.719-10.027ZM70.9-4.036a4.681,4.681,0,0,1,.458-2.095,3.415,3.415,0,0,1,1.274-1.436A3.469,3.469,0,0,1,74.5-8.071a3.342,3.342,0,0,1,2.618,1.121,4.311,4.311,0,0,1,1,2.981v.1A4.722,4.722,0,0,1,77.675-1.8,3.365,3.365,0,0,1,76.407-.366a3.509,3.509,0,0,1-1.893.513A3.334,3.334,0,0,1,71.9-.974a4.29,4.29,0,0,1-1-2.966Zm1.362.161a3.39,3.39,0,0,0,.612,2.117,1.957,1.957,0,0,0,1.637.8,1.945,1.945,0,0,0,1.641-.809,3.707,3.707,0,0,0,.608-2.267,3.384,3.384,0,0,0-.619-2.113A1.968,1.968,0,0,0,74.5-6.958a1.946,1.946,0,0,0-1.619.8A3.68,3.68,0,0,0,72.266-3.875Zm2.849-7.375h1.641L74.792-9.1,73.7-9.1ZM81.1-7.925l.044,1a2.888,2.888,0,0,1,2.373-1.143q2.512,0,2.534,2.834V0H84.695V-5.244A1.824,1.824,0,0,0,84.3-6.511a1.57,1.57,0,0,0-1.2-.41,1.956,1.956,0,0,0-1.157.352,2.387,2.387,0,0,0-.776.923V0H79.817V-7.925Z" transform="translate(591.172 182.516)"/>
    <path id="Trazado_616944" data-name="Trazado 616944" d="M4.38-4.753A6.612,6.612,0,0,1,1.747-6.031,2.442,2.442,0,0,1,.923-7.9,2.58,2.58,0,0,1,1.93-9.987a4,4,0,0,1,2.618-.824,4.369,4.369,0,0,1,1.959.425A3.222,3.222,0,0,1,7.841-9.214a3,3,0,0,1,.472,1.633H6.9a1.95,1.95,0,0,0-.615-1.525,2.5,2.5,0,0,0-1.736-.555A2.561,2.561,0,0,0,2.926-9.2a1.53,1.53,0,0,0-.582,1.273,1.376,1.376,0,0,0,.553,1.1A5.424,5.424,0,0,0,4.779-6a8.734,8.734,0,0,1,2.08.825A3.157,3.157,0,0,1,7.972-4.124,2.683,2.683,0,0,1,8.335-2.71,2.492,2.492,0,0,1,7.324-.634a4.31,4.31,0,0,1-2.7.78A5.013,5.013,0,0,1,2.571-.275,3.451,3.451,0,0,1,1.1-1.428,2.815,2.815,0,0,1,.586-3.091H2a1.837,1.837,0,0,0,.714,1.527A3.007,3.007,0,0,0,4.622-1a2.764,2.764,0,0,0,1.707-.454A1.475,1.475,0,0,0,6.921-2.7a1.448,1.448,0,0,0-.549-1.212A6.333,6.333,0,0,0,4.38-4.753Zm8.833,4.9A3.463,3.463,0,0,1,10.591-.912,3.928,3.928,0,0,1,9.58-3.743v-.249a4.756,4.756,0,0,1,.45-2.106,3.514,3.514,0,0,1,1.26-1.45,3.167,3.167,0,0,1,1.754-.524,2.968,2.968,0,0,1,2.4,1.018A4.408,4.408,0,0,1,16.3-4.138v.564H10.935a2.817,2.817,0,0,0,.685,1.893,2.153,2.153,0,0,0,1.666.721A2.36,2.36,0,0,0,14.5-1.252a3.055,3.055,0,0,0,.872-.776l.828.645A3.328,3.328,0,0,1,13.213.146Zm-.168-7.1a1.807,1.807,0,0,0-1.377.6,2.9,2.9,0,0,0-.688,1.674h3.97v-.1a2.581,2.581,0,0,0-.557-1.6A1.7,1.7,0,0,0,13.044-6.958Zm12.4.249a4.061,4.061,0,0,0-.667-.051,1.786,1.786,0,0,0-1.809,1.135V0H21.614V-7.925h1.318l.022.916a2.11,2.11,0,0,1,1.89-1.062,1.384,1.384,0,0,1,.6.1ZM30.009.146A3.463,3.463,0,0,1,27.387-.912a3.928,3.928,0,0,1-1.011-2.831v-.249a4.756,4.756,0,0,1,.45-2.106,3.514,3.514,0,0,1,1.26-1.45,3.167,3.167,0,0,1,1.754-.524,2.968,2.968,0,0,1,2.4,1.018A4.408,4.408,0,0,1,33.1-4.138v.564H27.731a2.817,2.817,0,0,0,.685,1.893,2.153,2.153,0,0,0,1.666.721A2.36,2.36,0,0,0,31.3-1.252a3.055,3.055,0,0,0,.872-.776L33-1.384A3.328,3.328,0,0,1,30.009.146Zm-.168-7.1a1.807,1.807,0,0,0-1.377.6,2.9,2.9,0,0,0-.688,1.674h3.97v-.1a2.581,2.581,0,0,0-.557-1.6A1.7,1.7,0,0,0,29.84-6.958Zm4.5,2.93A4.642,4.642,0,0,1,35.2-6.962a2.733,2.733,0,0,1,2.263-1.11,2.748,2.748,0,0,1,2.2.952V-11.25h1.355V0H39.779l-.066-.85a2.759,2.759,0,0,1-2.263,1A2.707,2.707,0,0,1,35.205-.981a4.7,4.7,0,0,1-.868-2.944Zm1.355.154a3.515,3.515,0,0,0,.557,2.109A1.8,1.8,0,0,0,37.787-1a1.977,1.977,0,0,0,1.882-1.157V-5.8A1.992,1.992,0,0,0,37.8-6.921a1.808,1.808,0,0,0-1.553.769A3.87,3.87,0,0,0,35.692-3.875ZM48.019-.784A2.878,2.878,0,0,1,45.7.146a2.464,2.464,0,0,1-1.93-.736,3.186,3.186,0,0,1-.67-2.179V-7.925h1.355v5.12q0,1.8,1.465,1.8a2.028,2.028,0,0,0,2.065-1.157V-7.925h1.355V0H48.048Zm6.555-.176A1.952,1.952,0,0,0,55.841-1.4a1.546,1.546,0,0,0,.6-1.1h1.282a2.457,2.457,0,0,1-.469,1.3A3.087,3.087,0,0,1,56.1-.22a3.329,3.329,0,0,1-1.527.366A3.265,3.265,0,0,1,52-.934a4.3,4.3,0,0,1-.956-2.955v-.227a4.771,4.771,0,0,1,.425-2.058,3.236,3.236,0,0,1,1.219-1.4,3.464,3.464,0,0,1,1.879-.5,3.178,3.178,0,0,1,2.216.8A2.853,2.853,0,0,1,57.724-5.2H56.442a1.867,1.867,0,0,0-.582-1.263,1.811,1.811,0,0,0-1.293-.494,1.9,1.9,0,0,0-1.6.743,3.491,3.491,0,0,0-.568,2.15v.256A3.422,3.422,0,0,0,52.963-1.7,1.906,1.906,0,0,0,54.574-.959ZM62.566.146A3.463,3.463,0,0,1,59.944-.912a3.928,3.928,0,0,1-1.011-2.831v-.249a4.756,4.756,0,0,1,.45-2.106,3.514,3.514,0,0,1,1.26-1.45A3.167,3.167,0,0,1,62.4-8.071a2.968,2.968,0,0,1,2.4,1.018,4.408,4.408,0,0,1,.857,2.915v.564H60.288a2.817,2.817,0,0,0,.685,1.893,2.153,2.153,0,0,0,1.666.721,2.36,2.36,0,0,0,1.216-.293,3.055,3.055,0,0,0,.872-.776l.828.645A3.328,3.328,0,0,1,62.566.146Zm-.168-7.1a1.807,1.807,0,0,0-1.377.6,2.9,2.9,0,0,0-.688,1.674H64.3v-.1a2.581,2.581,0,0,0-.557-1.6A1.7,1.7,0,0,0,62.4-6.958ZM72.169,0H70.814V-11.25h1.355Zm6.986,0a2.846,2.846,0,0,1-.19-.835,3.023,3.023,0,0,1-2.256.981,2.8,2.8,0,0,1-1.923-.663A2.145,2.145,0,0,1,74.035-2.2a2.24,2.24,0,0,1,.941-1.923A4.437,4.437,0,0,1,77.624-4.8h1.318v-.623a1.522,1.522,0,0,0-.425-1.132,1.707,1.707,0,0,0-1.252-.421,1.976,1.976,0,0,0-1.216.366,1.079,1.079,0,0,0-.491.886H74.2a1.87,1.87,0,0,1,.421-1.146,2.874,2.874,0,0,1,1.143-.875,3.844,3.844,0,0,1,1.586-.322,3.133,3.133,0,0,1,2.146.685A2.47,2.47,0,0,1,80.3-5.5v3.647a4.459,4.459,0,0,0,.278,1.736V0ZM76.906-1.033a2.381,2.381,0,0,0,1.208-.33,1.994,1.994,0,0,0,.828-.857V-3.845H77.88q-2.49,0-2.49,1.458a1.234,1.234,0,0,0,.425,1A1.633,1.633,0,0,0,76.906-1.033Z" transform="translate(743.206 159.234)"/>
    <path id="Trazado_616945" data-name="Trazado 616945" d="M4.2-.959A1.952,1.952,0,0,0,5.471-1.4a1.546,1.546,0,0,0,.6-1.1H7.354a2.457,2.457,0,0,1-.469,1.3A3.087,3.087,0,0,1,5.731-.22,3.329,3.329,0,0,1,4.2.146,3.265,3.265,0,0,1,1.63-.934,4.3,4.3,0,0,1,.674-3.889v-.227A4.771,4.771,0,0,1,1.1-6.174a3.236,3.236,0,0,1,1.219-1.4,3.464,3.464,0,0,1,1.879-.5,3.178,3.178,0,0,1,2.216.8A2.853,2.853,0,0,1,7.354-5.2H6.072A1.867,1.867,0,0,0,5.49-6.464,1.811,1.811,0,0,0,4.2-6.958a1.9,1.9,0,0,0-1.6.743,3.491,3.491,0,0,0-.568,2.15v.256A3.422,3.422,0,0,0,2.593-1.7,1.906,1.906,0,0,0,4.2-.959ZM8.518-4.036A4.681,4.681,0,0,1,8.976-6.13,3.415,3.415,0,0,1,10.25-7.566a3.469,3.469,0,0,1,1.864-.505,3.342,3.342,0,0,1,2.618,1.121,4.311,4.311,0,0,1,1,2.981v.1A4.722,4.722,0,0,1,15.289-1.8,3.365,3.365,0,0,1,14.022-.366a3.509,3.509,0,0,1-1.893.513A3.334,3.334,0,0,1,9.518-.974a4.29,4.29,0,0,1-1-2.966Zm1.362.161a3.39,3.39,0,0,0,.612,2.117,1.957,1.957,0,0,0,1.637.8,1.945,1.945,0,0,0,1.641-.809,3.707,3.707,0,0,0,.608-2.267,3.384,3.384,0,0,0-.619-2.113,1.968,1.968,0,0,0-1.644-.809,1.946,1.946,0,0,0-1.619.8A3.68,3.68,0,0,0,9.88-3.875Zm8.826-4.05.037.879a2.927,2.927,0,0,1,2.351-1.025A2.266,2.266,0,0,1,23.357-6.8a3,3,0,0,1,1.029-.923,3.039,3.039,0,0,1,1.5-.352q2.607,0,2.651,2.761V0H27.18V-5.229A1.82,1.82,0,0,0,26.792-6.5a1.71,1.71,0,0,0-1.3-.421,1.8,1.8,0,0,0-1.252.45,1.827,1.827,0,0,0-.579,1.212V0H22.295V-5.193A1.512,1.512,0,0,0,20.6-6.921a1.813,1.813,0,0,0-1.824,1.135V0H17.424V-7.925Zm18.672,4.05A4.745,4.745,0,0,1,36.55-.959,2.653,2.653,0,0,1,34.309.146a2.906,2.906,0,0,1-2.271-.916V3.047H30.684V-7.925h1.238l.066.879a2.791,2.791,0,0,1,2.3-1.025,2.7,2.7,0,0,1,2.26,1.077,4.8,4.8,0,0,1,.831,3Zm-1.355-.154a3.5,3.5,0,0,0-.571-2.117,1.84,1.84,0,0,0-1.567-.776A1.992,1.992,0,0,0,32.039-5.83v3.787A2,2,0,0,0,33.9-.959a1.832,1.832,0,0,0,1.549-.773A3.822,3.822,0,0,0,36.023-4.028ZM43.992,0a2.846,2.846,0,0,1-.19-.835,3.023,3.023,0,0,1-2.256.981,2.8,2.8,0,0,1-1.923-.663A2.145,2.145,0,0,1,38.872-2.2a2.24,2.24,0,0,1,.941-1.923A4.437,4.437,0,0,1,42.461-4.8h1.318v-.623a1.522,1.522,0,0,0-.425-1.132A1.707,1.707,0,0,0,42.1-6.98a1.976,1.976,0,0,0-1.216.366,1.079,1.079,0,0,0-.491.886H39.033a1.87,1.87,0,0,1,.421-1.146A2.874,2.874,0,0,1,40.6-7.749a3.844,3.844,0,0,1,1.586-.322,3.133,3.133,0,0,1,2.146.685A2.47,2.47,0,0,1,45.134-5.5v3.647a4.459,4.459,0,0,0,.278,1.736V0ZM41.743-1.033a2.381,2.381,0,0,0,1.208-.33,1.994,1.994,0,0,0,.828-.857V-3.845H42.717q-2.49,0-2.49,1.458a1.234,1.234,0,0,0,.425,1A1.633,1.633,0,0,0,41.743-1.033Zm8.694.073A1.952,1.952,0,0,0,51.7-1.4a1.546,1.546,0,0,0,.6-1.1h1.282a2.457,2.457,0,0,1-.469,1.3,3.087,3.087,0,0,1-1.154.981,3.329,3.329,0,0,1-1.527.366,3.265,3.265,0,0,1-2.574-1.08,4.3,4.3,0,0,1-.956-2.955v-.227a4.771,4.771,0,0,1,.425-2.058,3.236,3.236,0,0,1,1.219-1.4,3.464,3.464,0,0,1,1.879-.5,3.178,3.178,0,0,1,2.216.8A2.853,2.853,0,0,1,53.586-5.2H52.3a1.867,1.867,0,0,0-.582-1.263,1.811,1.811,0,0,0-1.293-.494,1.9,1.9,0,0,0-1.6.743,3.491,3.491,0,0,0-.568,2.15v.256A3.422,3.422,0,0,0,48.826-1.7,1.906,1.906,0,0,0,50.437-.959Zm6.541-8.884v1.919h1.479v1.047H56.978v4.921a1.1,1.1,0,0,0,.2.715A.832.832,0,0,0,57.85-1a3.281,3.281,0,0,0,.645-.088V0a3.951,3.951,0,0,1-1.04.146A1.687,1.687,0,0,1,56.085-.4a2.36,2.36,0,0,1-.461-1.56V-6.877H54.18V-7.925h1.443V-9.844ZM64.992,0a2.846,2.846,0,0,1-.19-.835,3.023,3.023,0,0,1-2.256.981,2.8,2.8,0,0,1-1.923-.663A2.145,2.145,0,0,1,59.873-2.2a2.24,2.24,0,0,1,.941-1.923A4.437,4.437,0,0,1,63.462-4.8H64.78v-.623a1.522,1.522,0,0,0-.425-1.132A1.707,1.707,0,0,0,63.1-6.98a1.976,1.976,0,0,0-1.216.366,1.079,1.079,0,0,0-.491.886H60.034a1.87,1.87,0,0,1,.421-1.146A2.874,2.874,0,0,1,61.6-7.749a3.844,3.844,0,0,1,1.586-.322,3.133,3.133,0,0,1,2.146.685A2.47,2.47,0,0,1,66.135-5.5v3.647a4.459,4.459,0,0,0,.278,1.736V0ZM62.744-1.033a2.381,2.381,0,0,0,1.208-.33,1.994,1.994,0,0,0,.828-.857V-3.845H63.718q-2.49,0-2.49,1.458a1.234,1.234,0,0,0,.425,1A1.633,1.633,0,0,0,62.744-1.033Zm8.694.073A1.952,1.952,0,0,0,72.7-1.4a1.546,1.546,0,0,0,.6-1.1h1.282a2.457,2.457,0,0,1-.469,1.3,3.087,3.087,0,0,1-1.154.981,3.329,3.329,0,0,1-1.527.366,3.265,3.265,0,0,1-2.574-1.08,4.3,4.3,0,0,1-.956-2.955v-.227a4.771,4.771,0,0,1,.425-2.058,3.236,3.236,0,0,1,1.219-1.4,3.464,3.464,0,0,1,1.879-.5,3.178,3.178,0,0,1,2.216.8A2.853,2.853,0,0,1,74.587-5.2H73.305a1.867,1.867,0,0,0-.582-1.263,1.811,1.811,0,0,0-1.293-.494,1.9,1.9,0,0,0-1.6.743,3.491,3.491,0,0,0-.568,2.15v.256A3.422,3.422,0,0,0,69.826-1.7,1.906,1.906,0,0,0,71.438-.959ZM77.583,0H76.228V-7.925h1.355ZM76.118-10.027a.809.809,0,0,1,.2-.557.756.756,0,0,1,.6-.227.768.768,0,0,1,.6.227.8.8,0,0,1,.205.557.774.774,0,0,1-.205.549.782.782,0,0,1-.6.22.77.77,0,0,1-.6-.22A.782.782,0,0,1,76.118-10.027Zm3.274,5.991A4.681,4.681,0,0,1,79.85-6.13a3.415,3.415,0,0,1,1.274-1.436,3.469,3.469,0,0,1,1.864-.505,3.342,3.342,0,0,1,2.618,1.121,4.311,4.311,0,0,1,1,2.981v.1A4.722,4.722,0,0,1,86.163-1.8,3.365,3.365,0,0,1,84.9-.366,3.509,3.509,0,0,1,83,.146,3.334,3.334,0,0,1,80.392-.974a4.29,4.29,0,0,1-1-2.966Zm1.362.161a3.39,3.39,0,0,0,.612,2.117A1.957,1.957,0,0,0,83-.959a1.945,1.945,0,0,0,1.641-.809,3.707,3.707,0,0,0,.608-2.267,3.384,3.384,0,0,0-.619-2.113,1.968,1.968,0,0,0-1.644-.809,1.946,1.946,0,0,0-1.619.8A3.68,3.68,0,0,0,80.754-3.875ZM83.6-11.25h1.641L83.281-9.1l-1.091,0Zm5.984,3.325.044,1A2.888,2.888,0,0,1,92-8.071q2.512,0,2.534,2.834V0H93.183V-5.244a1.824,1.824,0,0,0-.392-1.267,1.57,1.57,0,0,0-1.2-.41,1.956,1.956,0,0,0-1.157.352,2.387,2.387,0,0,0-.776.923V0H88.305V-7.925Z" transform="translate(738.697 175.709)"/>
    <text id="_-" data-name="-" transform="translate(657.128 165.001)" font-size="15" font-family="Roboto-Regular, Roboto"><tspan x="0" y="0">-</tspan></text>
    <path id="Trazado_616946" data-name="Trazado 616946" d="M7.126-2.791H2.659L1.655,0H.205L4.277-10.664h1.23L9.587,0H8.145ZM3.083-3.94H6.709L4.893-8.928ZM15.578-.784a2.878,2.878,0,0,1-2.322.93,2.464,2.464,0,0,1-1.93-.736,3.186,3.186,0,0,1-.67-2.179V-7.925h1.355v5.12q0,1.8,1.465,1.8a2.028,2.028,0,0,0,2.065-1.157V-7.925H16.9V0H15.607Zm4.651-7.141.037.879a2.927,2.927,0,0,1,2.351-1.025A2.266,2.266,0,0,1,24.879-6.8a3,3,0,0,1,1.029-.923,3.039,3.039,0,0,1,1.5-.352q2.607,0,2.651,2.761V0H28.7V-5.229A1.82,1.82,0,0,0,28.314-6.5a1.71,1.71,0,0,0-1.3-.421,1.8,1.8,0,0,0-1.252.45,1.827,1.827,0,0,0-.579,1.212V0H23.817V-5.193a1.512,1.512,0,0,0-1.692-1.729A1.813,1.813,0,0,0,20.3-5.786V0H18.947V-7.925ZM35.39.146A3.463,3.463,0,0,1,32.768-.912a3.928,3.928,0,0,1-1.011-2.831v-.249a4.755,4.755,0,0,1,.45-2.106,3.514,3.514,0,0,1,1.26-1.45,3.167,3.167,0,0,1,1.754-.524,2.968,2.968,0,0,1,2.4,1.018,4.408,4.408,0,0,1,.857,2.915v.564H33.112A2.817,2.817,0,0,0,33.8-1.681a2.153,2.153,0,0,0,1.666.721,2.36,2.36,0,0,0,1.216-.293,3.055,3.055,0,0,0,.872-.776l.828.645A3.328,3.328,0,0,1,35.39.146Zm-.168-7.1a1.807,1.807,0,0,0-1.377.6,2.9,2.9,0,0,0-.688,1.674h3.97v-.1a2.581,2.581,0,0,0-.557-1.6A1.7,1.7,0,0,0,35.221-6.958Zm6.108-.967.044,1a2.888,2.888,0,0,1,2.373-1.143q2.512,0,2.534,2.834V0H44.926V-5.244a1.824,1.824,0,0,0-.392-1.267,1.57,1.57,0,0,0-1.2-.41,1.956,1.956,0,0,0-1.157.352,2.387,2.387,0,0,0-.776.923V0H40.048V-7.925Zm8.833-1.919v1.919h1.479v1.047H50.163v4.921a1.1,1.1,0,0,0,.2.715A.832.832,0,0,0,51.034-1a3.281,3.281,0,0,0,.645-.088V0a3.951,3.951,0,0,1-1.04.146A1.687,1.687,0,0,1,49.269-.4a2.36,2.36,0,0,1-.461-1.56V-6.877H47.365V-7.925h1.443V-9.844Zm2.6,5.808a4.681,4.681,0,0,1,.458-2.095A3.415,3.415,0,0,1,54.5-7.566a3.469,3.469,0,0,1,1.864-.505,3.342,3.342,0,0,1,2.618,1.121,4.311,4.311,0,0,1,1,2.981v.1A4.722,4.722,0,0,1,59.535-1.8,3.365,3.365,0,0,1,58.268-.366a3.509,3.509,0,0,1-1.893.513A3.334,3.334,0,0,1,53.763-.974a4.29,4.29,0,0,1-1-2.966Zm1.362.161a3.39,3.39,0,0,0,.612,2.117,1.957,1.957,0,0,0,1.637.8,1.945,1.945,0,0,0,1.641-.809,3.707,3.707,0,0,0,.608-2.267A3.384,3.384,0,0,0,58-6.149a1.968,1.968,0,0,0-1.644-.809,1.946,1.946,0,0,0-1.619.8A3.68,3.68,0,0,0,54.126-3.875Zm10.665-.154a4.642,4.642,0,0,1,.864-2.933,2.733,2.733,0,0,1,2.263-1.11,2.748,2.748,0,0,1,2.2.952V-11.25h1.355V0H70.233l-.066-.85a2.759,2.759,0,0,1-2.263,1A2.707,2.707,0,0,1,65.659-.981a4.7,4.7,0,0,1-.868-2.944Zm1.355.154A3.515,3.515,0,0,0,66.7-1.765,1.8,1.8,0,0,0,68.241-1a1.977,1.977,0,0,0,1.882-1.157V-5.8a1.992,1.992,0,0,0-1.868-1.121,1.808,1.808,0,0,0-1.553.769A3.87,3.87,0,0,0,66.146-3.875ZM76.869.146A3.463,3.463,0,0,1,74.247-.912a3.928,3.928,0,0,1-1.011-2.831v-.249a4.756,4.756,0,0,1,.45-2.106,3.514,3.514,0,0,1,1.26-1.45A3.167,3.167,0,0,1,76.7-8.071a2.968,2.968,0,0,1,2.4,1.018,4.408,4.408,0,0,1,.857,2.915v.564H74.591a2.817,2.817,0,0,0,.685,1.893,2.153,2.153,0,0,0,1.666.721,2.36,2.36,0,0,0,1.216-.293,3.055,3.055,0,0,0,.872-.776l.828.645A3.328,3.328,0,0,1,76.869.146Zm-.168-7.1a1.807,1.807,0,0,0-1.377.6,2.9,2.9,0,0,0-.688,1.674H78.6v-.1a2.581,2.581,0,0,0-.557-1.6A1.7,1.7,0,0,0,76.7-6.958Z" transform="translate(905.141 142.788)"/>
    <path id="Trazado_616947" data-name="Trazado 616947" d="M5.918,0a2.846,2.846,0,0,1-.19-.835A3.023,3.023,0,0,1,3.472.146,2.8,2.8,0,0,1,1.549-.516,2.145,2.145,0,0,1,.8-2.2,2.24,2.24,0,0,1,1.74-4.12,4.437,4.437,0,0,1,4.387-4.8H5.706v-.623a1.522,1.522,0,0,0-.425-1.132A1.707,1.707,0,0,0,4.028-6.98a1.976,1.976,0,0,0-1.216.366,1.079,1.079,0,0,0-.491.886H.959a1.87,1.87,0,0,1,.421-1.146,2.874,2.874,0,0,1,1.143-.875,3.844,3.844,0,0,1,1.586-.322,3.133,3.133,0,0,1,2.146.685A2.47,2.47,0,0,1,7.061-5.5v3.647A4.459,4.459,0,0,0,7.339-.117V0ZM3.669-1.033a2.381,2.381,0,0,0,1.208-.33,1.994,1.994,0,0,0,.828-.857V-3.845H4.644q-2.49,0-2.49,1.458a1.234,1.234,0,0,0,.425,1A1.633,1.633,0,0,0,3.669-1.033ZM10.657,0H9.3V-11.25h1.355Zm3.55,0H12.852V-7.925h1.355ZM12.742-10.027a.809.809,0,0,1,.2-.557.756.756,0,0,1,.6-.227.768.768,0,0,1,.6.227.8.8,0,0,1,.205.557.774.774,0,0,1-.205.549.782.782,0,0,1-.6.22.77.77,0,0,1-.6-.22A.782.782,0,0,1,12.742-10.027Zm4.832,2.1.037.879a2.927,2.927,0,0,1,2.351-1.025A2.266,2.266,0,0,1,22.225-6.8a3,3,0,0,1,1.029-.923,3.039,3.039,0,0,1,1.5-.352q2.607,0,2.651,2.761V0H26.048V-5.229A1.82,1.82,0,0,0,25.66-6.5a1.71,1.71,0,0,0-1.3-.421,1.8,1.8,0,0,0-1.252.45,1.827,1.827,0,0,0-.579,1.212V0H21.163V-5.193a1.512,1.512,0,0,0-1.692-1.729,1.813,1.813,0,0,0-1.824,1.135V0H16.293V-7.925ZM32.765.146A3.463,3.463,0,0,1,30.143-.912a3.928,3.928,0,0,1-1.011-2.831v-.249a4.756,4.756,0,0,1,.45-2.106,3.514,3.514,0,0,1,1.26-1.45A3.167,3.167,0,0,1,32.6-8.071,2.968,2.968,0,0,1,35-7.053a4.408,4.408,0,0,1,.857,2.915v.564H30.488a2.817,2.817,0,0,0,.685,1.893,2.153,2.153,0,0,0,1.666.721,2.36,2.36,0,0,0,1.216-.293,3.055,3.055,0,0,0,.872-.776l.828.645A3.328,3.328,0,0,1,32.765.146Zm-.168-7.1a1.807,1.807,0,0,0-1.377.6,2.9,2.9,0,0,0-.688,1.674H34.5v-.1a2.581,2.581,0,0,0-.557-1.6A1.7,1.7,0,0,0,32.6-6.958Zm6.108-.967.044,1a2.888,2.888,0,0,1,2.373-1.143q2.512,0,2.534,2.834V0H42.3V-5.244a1.824,1.824,0,0,0-.392-1.267,1.57,1.57,0,0,0-1.2-.41,1.956,1.956,0,0,0-1.157.352,2.387,2.387,0,0,0-.776.923V0H37.424V-7.925Zm8.788-1.919v1.919h1.479v1.047H47.493v4.921a1.1,1.1,0,0,0,.2.715A.832.832,0,0,0,48.365-1a3.281,3.281,0,0,0,.645-.088V0a3.951,3.951,0,0,1-1.04.146A1.687,1.687,0,0,1,46.6-.4a2.36,2.36,0,0,1-.461-1.56V-6.877H44.7V-7.925h1.443V-9.844Zm2.616,5.808a4.681,4.681,0,0,1,.458-2.095,3.415,3.415,0,0,1,1.274-1.436,3.469,3.469,0,0,1,1.864-.505,3.342,3.342,0,0,1,2.618,1.121,4.311,4.311,0,0,1,1,2.981v.1A4.722,4.722,0,0,1,56.881-1.8,3.365,3.365,0,0,1,55.614-.366,3.509,3.509,0,0,1,53.72.146,3.334,3.334,0,0,1,51.109-.974a4.29,4.29,0,0,1-1-2.966Zm1.362.161a3.39,3.39,0,0,0,.612,2.117,1.957,1.957,0,0,0,1.637.8,1.945,1.945,0,0,0,1.641-.809,3.707,3.707,0,0,0,.608-2.267,3.384,3.384,0,0,0-.619-2.113,1.968,1.968,0,0,0-1.644-.809,1.946,1.946,0,0,0-1.619.8A3.68,3.68,0,0,0,51.472-3.875Zm13.752,1.89,1.846-5.94h1.45L65.334,1.223Q64.594,3.2,62.983,3.2l-.256-.022-.505-.1v-1.1l.366.029a1.8,1.8,0,0,0,1.073-.278A2.014,2.014,0,0,0,64.294.718l.3-.806L61.767-7.925h1.479Z" transform="translate(911.905 159.262)"/>
    <path id="Trazado_616948" data-name="Trazado 616948" d="M4.856-6.709a4.061,4.061,0,0,0-.667-.051A1.786,1.786,0,0,0,2.38-5.625V0H1.025V-7.925H2.344l.022.916a2.11,2.11,0,0,1,1.89-1.062,1.384,1.384,0,0,1,.6.1ZM9.42.146A3.463,3.463,0,0,1,6.8-.912,3.928,3.928,0,0,1,5.787-3.743v-.249A4.756,4.756,0,0,1,6.237-6.1,3.514,3.514,0,0,1,7.5-7.548a3.167,3.167,0,0,1,1.754-.524,2.968,2.968,0,0,1,2.4,1.018,4.408,4.408,0,0,1,.857,2.915v.564H7.142a2.817,2.817,0,0,0,.685,1.893,2.153,2.153,0,0,0,1.666.721,2.36,2.36,0,0,0,1.216-.293,3.055,3.055,0,0,0,.872-.776l.828.645A3.328,3.328,0,0,1,9.42.146Zm-.168-7.1a1.807,1.807,0,0,0-1.377.6,2.9,2.9,0,0,0-.688,1.674h3.97v-.1a2.581,2.581,0,0,0-.557-1.6A1.7,1.7,0,0,0,9.251-6.958ZM14.744,0V-6.877H13.492V-7.925h1.252v-.813a2.7,2.7,0,0,1,.681-1.97,2.573,2.573,0,0,1,1.926-.7,3.578,3.578,0,0,1,.93.124l-.073,1.092a3.892,3.892,0,0,0-.732-.066,1.322,1.322,0,0,0-1.018.386A1.564,1.564,0,0,0,16.1-8.762v.838h1.692v1.047H16.1V0Zm9.629-.784a2.878,2.878,0,0,1-2.322.93,2.464,2.464,0,0,1-1.93-.736,3.186,3.186,0,0,1-.67-2.179V-7.925h1.355v5.12q0,1.8,1.465,1.8a2.028,2.028,0,0,0,2.065-1.157V-7.925h1.355V0H24.4Zm3.054-3.245a4.658,4.658,0,0,1,.857-2.948,2.741,2.741,0,0,1,2.271-1.095,2.726,2.726,0,0,1,2.263,1.025l.066-.879h1.238V-.19a3.224,3.224,0,0,1-.912,2.424,3.365,3.365,0,0,1-2.45.886,4.076,4.076,0,0,1-1.677-.366,2.887,2.887,0,0,1-1.252-1l.7-.813a2.65,2.65,0,0,0,2.131,1.077,2.076,2.076,0,0,0,1.542-.557A2.128,2.128,0,0,0,32.759-.11V-.791A2.785,2.785,0,0,1,30.54.146,2.707,2.707,0,0,1,28.288-.974,4.9,4.9,0,0,1,27.427-4.028Zm1.362.154a3.553,3.553,0,0,0,.549,2.106A1.785,1.785,0,0,0,30.877-1a1.985,1.985,0,0,0,1.882-1.165V-5.786a2.008,2.008,0,0,0-1.868-1.135,1.8,1.8,0,0,0-1.545.769A3.87,3.87,0,0,0,28.789-3.875ZM37.727,0H36.372V-7.925h1.355ZM36.262-10.027a.809.809,0,0,1,.2-.557.756.756,0,0,1,.6-.227.768.768,0,0,1,.6.227.8.8,0,0,1,.205.557.774.774,0,0,1-.205.549.782.782,0,0,1-.6.22.77.77,0,0,1-.6-.22A.782.782,0,0,1,36.262-10.027Zm3.2,5.991a4.681,4.681,0,0,1,.458-2.095,3.415,3.415,0,0,1,1.274-1.436,3.469,3.469,0,0,1,1.864-.505,3.342,3.342,0,0,1,2.618,1.121,4.311,4.311,0,0,1,1,2.981v.1A4.722,4.722,0,0,1,46.232-1.8,3.365,3.365,0,0,1,44.965-.366a3.509,3.509,0,0,1-1.893.513A3.334,3.334,0,0,1,40.461-.974a4.29,4.29,0,0,1-1-2.966Zm1.362.161a3.39,3.39,0,0,0,.612,2.117,1.957,1.957,0,0,0,1.637.8,1.945,1.945,0,0,0,1.641-.809,3.707,3.707,0,0,0,.608-2.267A3.384,3.384,0,0,0,44.7-6.149a1.968,1.968,0,0,0-1.644-.809,1.946,1.946,0,0,0-1.619.8A3.68,3.68,0,0,0,40.823-3.875Zm17.524,0A4.745,4.745,0,0,1,57.52-.959,2.653,2.653,0,0,1,55.279.146a2.906,2.906,0,0,1-2.271-.916V3.047H51.653V-7.925h1.238l.066.879a2.791,2.791,0,0,1,2.3-1.025,2.7,2.7,0,0,1,2.26,1.077,4.8,4.8,0,0,1,.831,3Zm-1.355-.154a3.5,3.5,0,0,0-.571-2.117,1.84,1.84,0,0,0-1.567-.776A1.992,1.992,0,0,0,53.008-5.83v3.787a2,2,0,0,0,1.86,1.084,1.832,1.832,0,0,0,1.549-.773A3.822,3.822,0,0,0,56.993-4.028ZM64.961,0a2.846,2.846,0,0,1-.19-.835,3.023,3.023,0,0,1-2.256.981,2.8,2.8,0,0,1-1.923-.663A2.145,2.145,0,0,1,59.842-2.2a2.24,2.24,0,0,1,.941-1.923A4.437,4.437,0,0,1,63.43-4.8h1.318v-.623a1.522,1.522,0,0,0-.425-1.132,1.707,1.707,0,0,0-1.252-.421,1.976,1.976,0,0,0-1.216.366,1.079,1.079,0,0,0-.491.886H60a1.87,1.87,0,0,1,.421-1.146,2.874,2.874,0,0,1,1.143-.875,3.844,3.844,0,0,1,1.586-.322,3.133,3.133,0,0,1,2.146.685A2.47,2.47,0,0,1,66.1-5.5v3.647a4.459,4.459,0,0,0,.278,1.736V0ZM62.713-1.033a2.381,2.381,0,0,0,1.208-.33,1.994,1.994,0,0,0,.828-.857V-3.845H63.687q-2.49,0-2.49,1.458a1.234,1.234,0,0,0,.425,1A1.633,1.633,0,0,0,62.713-1.033Zm9.3-5.676a4.061,4.061,0,0,0-.667-.051,1.786,1.786,0,0,0-1.809,1.135V0H68.183V-7.925H69.5l.022.916a2.11,2.11,0,0,1,1.89-1.062,1.384,1.384,0,0,1,.6.1ZM77.888,0a2.846,2.846,0,0,1-.19-.835,3.023,3.023,0,0,1-2.256.981,2.8,2.8,0,0,1-1.923-.663A2.145,2.145,0,0,1,72.769-2.2,2.24,2.24,0,0,1,73.71-4.12,4.437,4.437,0,0,1,76.357-4.8h1.318v-.623a1.522,1.522,0,0,0-.425-1.132A1.707,1.707,0,0,0,76-6.98a1.976,1.976,0,0,0-1.216.366,1.079,1.079,0,0,0-.491.886H72.93a1.87,1.87,0,0,1,.421-1.146,2.874,2.874,0,0,1,1.143-.875,3.844,3.844,0,0,1,1.586-.322,3.133,3.133,0,0,1,2.146.685A2.47,2.47,0,0,1,79.031-5.5v3.647a4.459,4.459,0,0,0,.278,1.736V0ZM75.64-1.033a2.381,2.381,0,0,0,1.208-.33,1.994,1.994,0,0,0,.828-.857V-3.845H76.614q-2.49,0-2.49,1.458a1.234,1.234,0,0,0,.425,1A1.633,1.633,0,0,0,75.64-1.033ZM86.235,0H84.88V-11.25h1.355Zm6.986,0a2.846,2.846,0,0,1-.19-.835,3.023,3.023,0,0,1-2.256.981,2.8,2.8,0,0,1-1.923-.663A2.145,2.145,0,0,1,88.1-2.2a2.24,2.24,0,0,1,.941-1.923A4.437,4.437,0,0,1,91.69-4.8h1.318v-.623a1.522,1.522,0,0,0-.425-1.132,1.707,1.707,0,0,0-1.252-.421,1.976,1.976,0,0,0-1.216.366,1.079,1.079,0,0,0-.491.886H88.262a1.87,1.87,0,0,1,.421-1.146,2.874,2.874,0,0,1,1.143-.875,3.844,3.844,0,0,1,1.586-.322,3.133,3.133,0,0,1,2.146.685A2.47,2.47,0,0,1,94.363-5.5v3.647a4.459,4.459,0,0,0,.278,1.736V0ZM90.972-1.033a2.381,2.381,0,0,0,1.208-.33,1.994,1.994,0,0,0,.828-.857V-3.845H91.946q-2.49,0-2.49,1.458a1.234,1.234,0,0,0,.425,1A1.633,1.633,0,0,0,90.972-1.033Z" transform="translate(897.164 175.737)"/>
    <path id="Trazado_616949" data-name="Trazado 616949" d="M1.692,0V-6.877H.439V-7.925H1.692v-.813a2.7,2.7,0,0,1,.681-1.97A2.573,2.573,0,0,1,4.3-11.4a3.578,3.578,0,0,1,.93.124l-.073,1.092a3.892,3.892,0,0,0-.732-.066,1.322,1.322,0,0,0-1.018.386,1.564,1.564,0,0,0-.359,1.106v.838H4.739v1.047H3.047V0Zm9.644,0a2.846,2.846,0,0,1-.19-.835A3.023,3.023,0,0,1,8.889.146,2.8,2.8,0,0,1,6.967-.516,2.145,2.145,0,0,1,6.216-2.2,2.24,2.24,0,0,1,7.157-4.12,4.437,4.437,0,0,1,9.8-4.8h1.318v-.623A1.522,1.522,0,0,0,10.7-6.559,1.707,1.707,0,0,0,9.446-6.98a1.976,1.976,0,0,0-1.216.366,1.079,1.079,0,0,0-.491.886H6.377A1.87,1.87,0,0,1,6.8-6.874a2.874,2.874,0,0,1,1.143-.875,3.844,3.844,0,0,1,1.586-.322,3.133,3.133,0,0,1,2.146.685A2.47,2.47,0,0,1,12.478-5.5v3.647a4.459,4.459,0,0,0,.278,1.736V0ZM9.087-1.033a2.381,2.381,0,0,0,1.208-.33,1.994,1.994,0,0,0,.828-.857V-3.845H10.061q-2.49,0-2.49,1.458a1.234,1.234,0,0,0,.425,1A1.633,1.633,0,0,0,9.087-1.033Zm10.408.249a2.878,2.878,0,0,1-2.322.93,2.464,2.464,0,0,1-1.93-.736,3.186,3.186,0,0,1-.67-2.179V-7.925h1.355v5.12q0,1.8,1.465,1.8a2.028,2.028,0,0,0,2.065-1.157V-7.925h1.355V0H19.524Zm4.613-7.141.044,1a2.888,2.888,0,0,1,2.373-1.143q2.512,0,2.534,2.834V0H27.7V-5.244a1.824,1.824,0,0,0-.392-1.267,1.57,1.57,0,0,0-1.2-.41,1.956,1.956,0,0,0-1.157.352,2.387,2.387,0,0,0-.776.923V0H22.826V-7.925ZM36,0a2.846,2.846,0,0,1-.19-.835,3.023,3.023,0,0,1-2.256.981,2.8,2.8,0,0,1-1.923-.663A2.145,2.145,0,0,1,30.875-2.2a2.24,2.24,0,0,1,.941-1.923A4.437,4.437,0,0,1,34.464-4.8h1.318v-.623a1.522,1.522,0,0,0-.425-1.132,1.707,1.707,0,0,0-1.252-.421,1.976,1.976,0,0,0-1.216.366,1.079,1.079,0,0,0-.491.886H31.037a1.87,1.87,0,0,1,.421-1.146A2.874,2.874,0,0,1,32.6-7.749a3.844,3.844,0,0,1,1.586-.322,3.133,3.133,0,0,1,2.146.685A2.47,2.47,0,0,1,37.138-5.5v3.647a4.459,4.459,0,0,0,.278,1.736V0ZM33.747-1.033a2.381,2.381,0,0,0,1.208-.33,1.994,1.994,0,0,0,.828-.857V-3.845H34.721q-2.49,0-2.49,1.458a1.234,1.234,0,0,0,.425,1A1.633,1.633,0,0,0,33.747-1.033Z" transform="translate(928.033 192.212)"/>
  </g>
</svg>
