<svg xmlns="http://www.w3.org/2000/svg" width="128.84" height="132.651" viewBox="0 0 128.84 132.651">
  <g id="Grupo_877494" data-name="Grupo 877494" transform="translate(-476.884 -554)">
    <g id="Grupo_877445" data-name="Grupo 877445" transform="translate(476.884 554)">
      <g id="Grupo_875403" data-name="Grupo 875403" transform="translate(0 0)">
        <path id="Trazado_612672" data-name="Trazado 612672" d="M742.939,512.813c14.7-31.881,50.533-47.842,83.87-36.34.675.207,2.537.946,3.236,1.224.6.211,1.526.63,2.12.909l2.1.967c1,.463,2.073,1.119,3.064,1.618,1.177.627,2.824,1.689,3.967,2.376.573.386,2.253,1.564,2.856,1.974A66.5,66.5,0,0,1,868.173,560.5c-.286.715-.926,2.623-1.227,3.323-.23.532-.688,1.643-.919,2.177-.314.833-1.142,2.4-1.507,3.208-.48,1-1.16,2.145-1.675,3.126-.431.792-1.389,2.256-1.84,3.034-.447.6-1.547,2.338-2.01,2.924-.357.453-1.08,1.422-1.437,1.879-1.123,1.434-2.6,3.166-3.859,4.478-14.965,16.247-38.442,23.979-60.083,19.482a1.859,1.859,0,0,1,.566-3.672,69.944,69.944,0,0,0,17.53-.135c.766-.108,2.5-.419,3.231-.524.612-.147,2.54-.547,3.194-.7,2.286-.578,4.536-1.284,6.766-2.046,1.154-.474,2.391-.916,3.531-1.41.706-.312,2.284-1.071,2.955-1.369a63.983,63.983,0,0,0,13.484-9.018c.936-.772,2.318-2.064,3.2-2.931.438-.387,1.093-1.129,1.509-1.557,21.834-22.827,22.989-59.691,2.463-83.822-25.385-30.4-72.982-29.711-97.145,1.846a59.055,59.055,0,0,0-8.524,15.443,1.86,1.86,0,1,1-3.431-1.428Z" transform="translate(-742.764 -472.746)" fill="#fda829"/>
      </g>
    </g>
    <ellipse id="Elipse_5001" data-name="Elipse 5001" cx="58.616" cy="58.616" rx="58.616" ry="58.616" transform="translate(478.918 561.065)" fill="#148d80"/>
    <g id="Grupo_877456" data-name="Grupo 877456" transform="translate(504.96 585.487)">
      <path id="Trazado_616685" data-name="Trazado 616685" d="M201.591,909.449a8.921,8.921,0,0,1,1.175,1.308,29.409,29.409,0,0,1,4.108,10.843c.786,5.343-.428,10.068-4.4,13.924a1.079,1.079,0,0,0-.338.665c-.024,2.581-.016,5.162-.016,7.914a6,6,0,0,0,1.7-2.829,14.083,14.083,0,0,1,7.727-10.443,26.666,26.666,0,0,1,12.495-2.943,1.687,1.687,0,0,1,1.748,2.136,18.336,18.336,0,0,1-4.609,8.963c-.52.546-1.071.606-1.526.2s-.44-1.023.089-1.582a16.318,16.318,0,0,0,3.474-5.8c.079-.221.136-.449.219-.727-2.523.907-14.589,9.08-16.32,11.1a32.623,32.623,0,0,0,4.108-.351,40.7,40.7,0,0,0,4.644-1.409c.746-.253,1.285-.187,1.556.368.287.587.033,1.11-.724,1.474a20.158,20.158,0,0,1-9.085,1.845,12.438,12.438,0,0,1-2-.1,1.128,1.128,0,0,0-1.191.479,9.392,9.392,0,0,0-1.952,3.609,3.954,3.954,0,0,0-.095.455.328.328,0,0,0,.022.136c1.541.255,3.069.433,4.56.771a24.767,24.767,0,0,1,10.308,5.139c.982.8,2.026,1.539,2.962,2.394a1.162,1.162,0,0,0,1.621.12,3.866,3.866,0,0,1,1.557-.517,3.281,3.281,0,0,1,3.408,2.257A3.512,3.512,0,0,1,225.6,962.9c-3.648,2.517-7.309,5.016-10.958,7.533a8.771,8.771,0,0,1-4.279,1.349c-5.168.507-10.332,1.062-15.5,1.529a7.168,7.168,0,0,1-2.628-.319c-2.729-.815-5.433-1.714-8.137-2.608a2.2,2.2,0,0,0-2.458.5,4.248,4.248,0,0,1-.4.353c-.671.523-1.174.976-.848,2.055a2.421,2.421,0,0,1-1.26,2.724c-.824.527-1.678,1.014-2.546,1.467a2.779,2.779,0,0,1-3.783-1.057q-4.326-7.4-8.589-14.846a2.78,2.78,0,0,1,1.042-3.832c.8-.491,1.6-.967,2.431-1.4a2.725,2.725,0,0,1,3.027.195.682.682,0,0,0,.875.043c2.327-1.313,4.643-2.647,7-3.9a11.369,11.369,0,0,1,9.31-.788,1.42,1.42,0,0,0,1.251-.12,24.453,24.453,0,0,1,10.25-2.957c.175-.011.351-.038.586-.064a4.181,4.181,0,0,0-.066-.525,8.772,8.772,0,0,0-2.184-3.92,1.1,1.1,0,0,0-.782-.292,21.41,21.41,0,0,1-11.044-1.663c-5.284-2.527-8.219-6.847-9.372-12.475A1.615,1.615,0,0,1,178.1,927.9c6.406.138,12.414,1.433,17.048,6.317a13.824,13.824,0,0,1,3.506,7.507,3.21,3.21,0,0,0,.529,1.151,10.189,10.189,0,0,0,.889,1.036c.018-.286.041-.472.041-.658,0-2.27.018-4.542-.017-6.811a1.519,1.519,0,0,0-.4-.969,15.032,15.032,0,0,1-4.443-13.026,28.985,28.985,0,0,1,4.466-12.1,5.2,5.2,0,0,1,.936-.9Zm-29.392,49.1c.4.7.779,1.345,1.15,2,.409.722.314,1.316-.248,1.62-.538.29-1.083.074-1.48-.6-.551-.94-1.088-1.889-1.637-2.83-.481-.825-.838-.912-1.688-.427-.6.342-1.2.681-1.794,1.033-.715.423-.818.808-.4,1.538.841,1.466,1.692,2.927,2.538,4.39q2.838,4.91,5.677,9.82c.485.838.831.926,1.68.444.523-.3,1.042-.6,1.562-.9,1.037-.6,1.113-.874.52-1.9q-1.9-3.294-3.8-6.588c-.427-.741-.358-1.3.185-1.635.563-.345,1.107-.12,1.559.655.381.653.756,1.31,1.135,1.964.632,1.09,1.265,2.179,1.934,3.332.425-.372.8-.682,1.153-1.012a4.157,4.157,0,0,1,4.444-.969c2.685.883,5.372,1.76,8.077,2.574a6,6,0,0,0,2.229.246c5.081-.472,10.155-1.013,15.233-1.507a7.431,7.431,0,0,0,3.673-1.259c3.193-2.235,6.418-4.423,9.63-6.63.33-.227.679-.433.986-.688a1.547,1.547,0,0,0,.215-2.058,1.318,1.318,0,0,0-1.832-.358c-2.363,1.246-4.732,2.479-7.087,3.741a15.586,15.586,0,0,1-6.437,1.824c-3.759.244-7.517.5-11.275.755-.717.048-1.185-.317-1.219-.932s.351-1.008,1.1-1.061c1.29-.092,2.58-.173,3.869-.259l6.108-.408a2.749,2.749,0,0,0-2.273-3.191c-1.787-.251-3.576-.518-5.373-.651a16.794,16.794,0,0,1-7.679-2.416,29.957,29.957,0,0,0-5.411-2.4,9.324,9.324,0,0,0-7.927.777c-1.776.973-3.54,1.971-5.307,2.96C173.4,957.858,172.828,958.188,172.2,958.545Zm18.94-5.491c1.691.925,3.369,1.885,5.09,2.759a5.846,5.846,0,0,0,1.859.491c2.538.337,5.082.626,7.623.939a4.82,4.82,0,0,1,4.193,3.666c.114.439.154.9.226,1.344,2.151-.161,6.39-1.95,8.8-3.7C209.819,949.849,199.564,949.041,191.139,953.054Zm-12.294-22.113a15.253,15.253,0,0,0,5.924,8.484c3.115,2.126,6.622,2.76,10.521,2.659A114.258,114.258,0,0,0,178.845,930.941Zm21.217,1.946V913.995a19.346,19.346,0,0,0-1.352,2.839,18.889,18.889,0,0,0-1.261,10.712A11.886,11.886,0,0,0,200.062,932.887Zm2.079.01c.213-.245.335-.369.438-.507a12.371,12.371,0,0,0,2.483-6.851,22.739,22.739,0,0,0-2.758-11.458c-.021-.043-.091-.063-.163-.109Zm4.055,7.216a138.137,138.137,0,0,1,14.42-9.912,11.491,11.491,0,0,0-1.672.212,19.656,19.656,0,0,0-8.759,3.709A11.257,11.257,0,0,0,206.2,940.113ZM181.741,930.2a127.977,127.977,0,0,1,14.518,10.067,10.872,10.872,0,0,0-2.012-4.034C191.045,932.246,186.549,930.906,181.741,930.2Z" transform="translate(-163.824 -909.449)" fill="#fff"/>
    </g>
  </g>
</svg>
