<svg xmlns="http://www.w3.org/2000/svg" width="1328" height="1085" viewBox="0 0 1328 1085">
  <g id="Grupo_877549" data-name="Grupo 877549" transform="translate(-136 -7760)">
    <rect id="Rectángulo_293814" data-name="Rectángulo 293814" width="1304" height="1085" transform="translate(160 7760)" fill="#fff"/>
    <g id="Grupo_877536" data-name="Grupo 877536" transform="translate(-194.037 6682.237)" opacity="0.7">
      <path id="Trazado_117878" data-name="Trazado 117878" d="M1650.647,1839.312c-50.226,6.519-122.835,7.431-171.831-5.4s-95.326-40.468-123.8-82.35-36.7-98.772-14.543-144.317c9.879-20.308,25.008-37.488,39.011-55.206,32.228-40.777,63.214-90.62,65.6-143.678a437.838,437.838,0,0,0-2.27-68.335c-2.516-22.482-6.781-44.9-6.157-67.518,1.2-43.391,18.613-88.229,59.557-107.845,47.594-22.8,102.859-29.517,154.436-18.112" transform="translate(7.39 3.913)" fill="#68b0ff" opacity="0.05" style="mix-blend-mode: multiply;isolation: isolate"/>
      <path id="Trazado_117879" data-name="Trazado 117879" d="M1658.037,1124.517c-57.665-6.755-141.032-7.7-197.285,5.593s-109.449,41.925-142.145,85.316-42.132,102.331-16.7,149.516c11.34,21.041,28.711,38.839,44.788,57.2,37,42.247,72.578,93.885,75.322,148.855a409.53,409.53,0,0,1-2.607,70.8c-2.887,23.293-7.785,46.521-7.068,69.95,1.376,44.956,21.37,91.409,68.379,111.731a303.34,303.34,0,0,0,177.313,18.764" fill="#68b0ff" opacity="0.11" style="mix-blend-mode: multiply;isolation: isolate"/>
    </g>
    <g id="Grupo_877537" data-name="Grupo 877537" transform="translate(1633.374 9924.096) rotate(180)" opacity="0.7">
      <path id="Trazado_117878-2" data-name="Trazado 117878" d="M1510.713,1536.675c-28.456,3.694-69.593,4.21-97.351-3.059s-54.007-22.927-70.141-46.656-20.791-55.959-8.24-81.763c5.6-11.506,14.168-21.239,22.1-31.277,18.259-23.1,35.814-51.341,37.167-81.4a248.047,248.047,0,0,0-1.286-38.715c-1.425-12.737-3.842-25.44-3.489-38.252.679-24.583,10.546-49.987,33.742-61.1a136.248,136.248,0,0,1,87.5-10.261" transform="translate(-13.339 -7.063)" fill="#68b0ff" opacity="0.05" style="mix-blend-mode: multiply;isolation: isolate"/>
      <path id="Trazado_117879-2" data-name="Trazado 117879" d="M1497.374,1122.427c-32.67-3.827-79.9-4.362-111.772,3.169s-62.008,23.753-80.533,48.336-23.87,57.976-9.459,84.709c6.425,11.921,16.266,22,25.375,32.4,20.964,23.935,41.119,53.191,42.674,84.334a232.026,232.026,0,0,1-1.477,40.11c-1.636,13.2-4.411,26.357-4,39.63.78,25.47,12.107,51.788,38.74,63.3a171.858,171.858,0,0,0,100.457,10.631" transform="translate(0 0)" fill="#68b0ff" opacity="0.11" style="mix-blend-mode: multiply;isolation: isolate"/>
    </g>
  </g>
</svg>
