<svg xmlns="http://www.w3.org/2000/svg" width="346.163" height="680.056" viewBox="0 0 346.163 680.056">
  <g id="Grupo_877479" data-name="Grupo 877479" transform="translate(1633.537 1799.749) rotate(180)" opacity="0.7">
    <path id="Trazado_117878" data-name="Trazado 117878" d="M1629.308,1793.162c-46.906,6.089-114.716,6.94-160.473-5.043s-89.025-37.793-115.621-76.907-34.271-92.243-13.582-134.777c9.226-18.966,23.354-35.01,36.432-51.557,30.1-38.082,59.035-84.63,61.267-134.181a408.886,408.886,0,0,0-2.12-63.818c-2.349-21-6.333-41.935-5.75-63.055,1.119-40.523,17.383-82.4,55.62-100.716,44.448-21.294,96.06-27.566,144.228-16.915" transform="translate(4.229 2.239)" fill="#68b0ff" opacity="0.05" style="mix-blend-mode: multiply;isolation: isolate"/>
    <path id="Trazado_117879" data-name="Trazado 117879" d="M1633.537,1124.2c-53.853-6.308-131.71-7.191-184.245,5.224s-102.214,39.154-132.75,79.677-39.347,95.567-15.593,139.633c10.591,19.65,26.813,36.272,41.828,53.415,34.557,39.454,67.781,87.68,70.343,139.016a382.446,382.446,0,0,1-2.435,66.117c-2.7,21.753-7.271,43.446-6.6,65.326,1.285,41.985,19.957,85.367,63.859,104.346a283.29,283.29,0,0,0,165.593,17.523" transform="translate(0)" fill="#68b0ff" opacity="0.11" style="mix-blend-mode: multiply;isolation: isolate"/>
  </g>
</svg>
