<svg xmlns="http://www.w3.org/2000/svg" width="160" height="160" viewBox="0 0 160 160">
  <g id="Grupo_877556" data-name="Grupo 877556" transform="translate(-285 -3463)">
    <circle id="Elipse_4996" data-name="Elipse 4996" cx="80" cy="80" r="80" transform="translate(285 3463)" fill="#81ad20"/>
    <g id="Grupo_876985" data-name="Grupo 876985" transform="translate(-206.682 3206.22)">
      <path id="Trazado_616640" data-name="Trazado 616640" d="M606.671,308.661h-5.114v1.108q0,18.762,0,37.524a5.794,5.794,0,0,1-.02.939,1.4,1.4,0,0,1-2.784-.036,6.871,6.871,0,0,1-.017-.939q0-22.712,0-45.424v-1.166h-5.172v1.3q0,32.822,0,65.643a10.184,10.184,0,0,1-.036,1.22,1.338,1.338,0,0,1-1.3,1.255,8.307,8.307,0,0,1-.94.014H543.1V375.2h55.636V374.2q0-9.592.006-19.185a3.059,3.059,0,0,1,.153-1.1,1.126,1.126,0,0,1,1.431-.76,2.755,2.755,0,0,1,1.168,1.044c.166.237.063.669.063,1.013q0,10.345,0,20.69c0,1.835-.362,2.2-2.2,2.2q-23.421,0-46.843,0H551.13v5.16h26.058a5.4,5.4,0,0,1,.939.025,1.4,1.4,0,0,1,0,2.771,4.52,4.52,0,0,1-.844.024h-27c-1.653,0-2.056-.4-2.06-2.044-.005-1.936,0-3.871,0-5.938h-5.054c-2.868,0-2.941-.074-2.941-2.962V370.1c-.853,0-1.687.048-2.513-.01a28.261,28.261,0,0,1-5.3-.506,10.494,10.494,0,0,1-7.652-9.649c-.072-1.282-.067-2.569-.045-3.854.019-1.1.538-1.582,1.652-1.59,1.907-.014,3.815,0,5.861,0v-1.345q0-30.565-.011-61.129a2.457,2.457,0,0,1,.859-2.232h59.638a2.346,2.346,0,0,1,.859,2.139c-.04,1.692.011,3.386-.023,5.078-.013.624.21.811.816.8,1.724-.031,3.449-.014,5.173-.01,1.608,0,2.014.4,2.016,1.983,0,1.967,0,3.934,0,6,2.049,0,4.015,0,5.981,0,1.588,0,2.014.414,2.014,1.995q0,38.136,0,76.271c0,1.649-.409,2.051-2.054,2.051H584.923a4.014,4.014,0,0,1-.751-.022,1.339,1.339,0,0,1-1.222-1.427,1.325,1.325,0,0,1,1.205-1.346,5.254,5.254,0,0,1,.938-.025h21.577m-79.142-25.957c0,.619,0,1.087,0,1.556.043,5.056,3.413,8.411,8.465,8.412q19.28.006,38.559,0c.293,0,.586-.03.648-.034a28.991,28.991,0,0,1-2.491-4.625,30.243,30.243,0,0,1-.817-5.309c-2.544,0-5.173,0-7.8,0-1.1,0-1.735-.525-1.739-1.4s.629-1.412,1.726-1.414q4.561-.01,9.123,0c1.215,0,1.7.488,1.731,1.708s-.021,2.448.059,3.665a7.6,7.6,0,0,0,6.516,7.208,82.835,82.835,0,0,0,8.446.2c.241,0,.483-.038.738-.059V292.663H535.1v61.823h21.368a5.031,5.031,0,0,1,.845.02,1.4,1.4,0,0,1,.032,2.774,4.917,4.917,0,0,1-.938.026H527.529Z" fill="#fff"/>
      <path id="Trazado_616641" data-name="Trazado 616641" d="M580.867,336.805q0-4.135,0-8.271c0-1.665.4-2.07,2.029-2.071q8.414,0,16.827,0c1.595,0,2.024.412,2.025,1.982q.007,8.459,0,16.918c0,1.565-.434,1.978-2.029,1.979q-8.413,0-16.827,0c-1.592,0-2.02-.414-2.024-1.983C580.863,342.507,580.867,339.656,580.867,336.805Zm2.853,7.638h15.147V329.362H583.721Z" transform="translate(-42.053 -27.466)" fill="#fff"/>
      <path id="Trazado_616642" data-name="Trazado 616642" d="M605.147,506.122h21.81a5.322,5.322,0,0,1,.938.024,1.313,1.313,0,0,1,1.2,1.345,1.328,1.328,0,0,1-1.212,1.429,4.608,4.608,0,0,1-.844.022q-22,0-44,0a3.982,3.982,0,0,1-.936-.041,1.4,1.4,0,0,1,.013-2.741,4.284,4.284,0,0,1,.936-.037Q594.1,506.12,605.147,506.122Z" transform="translate(-42.15 -161.981)" fill="#fff"/>
      <path id="Trazado_616643" data-name="Trazado 616643" d="M677.168,475.181c-3.915,0-7.831.013-11.746-.017a2.075,2.075,0,0,1-1.37-.4,1.633,1.633,0,0,1-.375-1.4,1.81,1.81,0,0,1,1.2-.958,16.12,16.12,0,0,1,2.717-.052h21.143c.251,0,.5-.009.752,0a1.4,1.4,0,0,1,1.489,1.364,1.383,1.383,0,0,1-1.5,1.445c-1.848.024-3.7.009-5.544.009Z" transform="translate(-104.023 -136.684)" fill="#fff"/>
      <path id="Trazado_616644" data-name="Trazado 616644" d="M641.451,442.33c-3.382,0-6.764.006-10.147,0-1.073,0-1.7-.579-1.657-1.476.038-.846.641-1.337,1.7-1.339,3.132-.007,6.263,0,9.4,0,3.633,0,7.265-.006,10.9,0,1.112,0,1.751.631,1.649,1.567-.087.8-.667,1.245-1.691,1.248Q646.525,442.338,641.451,442.33Z" transform="translate(-78.577 -112.109)" fill="#fff"/>
      <path id="Trazado_616645" data-name="Trazado 616645" d="M690.9,336.193c3.32,0,6.639-.005,9.959,0,1.043,0,1.651.518,1.673,1.368s-.585,1.439-1.6,1.445c-2.411.015-4.823.005-7.234.005q-6.483,0-12.965,0c-1.042,0-1.649-.519-1.672-1.369-.024-.893.6-1.443,1.688-1.445C684.135,336.188,687.517,336.193,690.9,336.193Z" transform="translate(-115.579 -34.751)" fill="#fff"/>
      <path id="Trazado_616646" data-name="Trazado 616646" d="M690.744,365.22q-4.932,0-9.865,0c-1.18,0-1.824-.507-1.826-1.409s.643-1.409,1.823-1.41q9.912,0,19.824,0c1.181,0,1.826.506,1.826,1.407s-.647,1.41-1.824,1.411Q695.723,365.225,690.744,365.22Z" transform="translate(-115.571 -54.373)" fill="#fff"/>
      <path id="Trazado_616647" data-name="Trazado 616647" d="M690.786,391.418c-3.351,0-6.7.006-10.053,0-1.041,0-1.648-.521-1.67-1.372s.584-1.436,1.6-1.441c2.724-.013,5.449-.005,8.174-.005q6.013,0,12.026,0c1.042,0,1.651.52,1.671,1.37.021.892-.6,1.442-1.692,1.444C697.488,391.423,694.137,391.418,690.786,391.418Z" transform="translate(-115.578 -73.988)" fill="#fff"/>
      <path id="Trazado_616648" data-name="Trazado 616648" d="M589.068,472.451c2.224,0,4.447,0,6.67,0,1.167,0,1.807.532,1.781,1.449-.025.876-.645,1.368-1.769,1.369q-6.717.007-13.435,0c-1.149,0-1.817-.554-1.79-1.45.026-.861.668-1.364,1.778-1.367C584.559,472.447,586.813,472.451,589.068,472.451Z" transform="translate(-41.797 -136.776)" fill="#fff"/>
    </g>
  </g>
</svg>
