<svg xmlns="http://www.w3.org/2000/svg" xmlns:xlink="http://www.w3.org/1999/xlink" width="1328.421" height="1097.687" viewBox="0 0 1328.421 1097.687">
  <defs>
    <clipPath id="clip-path">
      <rect id="Rectángulo_293786" data-name="Rectángulo 293786" width="200" height="556" transform="translate(136 2236)" fill="#fff" stroke="#707070" stroke-width="1"/>
    </clipPath>
  </defs>
  <g id="Grupo_877553" data-name="Grupo 877553" transform="translate(-136 -421.313)">
    <g id="Grupo_108934" data-name="Grupo 108934" transform="translate(-363.374 -698.38)" opacity="0.7">
      <path id="Trazado_117878" data-name="Trazado 117878" d="M1798.5,2159.081c-73.228,9.505-179.092,10.835-250.527-7.872s-138.984-59-180.5-120.065-53.5-144.007-21.2-210.411c14.4-29.609,36.461-54.657,56.877-80.49,46.988-59.453,92.165-132.122,95.648-209.48a638.36,638.36,0,0,0-3.309-99.632c-3.668-32.779-9.886-65.468-8.978-98.44,1.747-63.264,27.138-128.637,86.833-157.236,69.391-33.244,149.967-43.036,225.165-26.407" transform="translate(29.293 15.511)" fill="#68b0ff" opacity="0.05" style="mix-blend-mode: multiply;isolation: isolate"/>
      <path id="Trazado_117879" data-name="Trazado 117879" d="M1827.8,1126.727c-84.075-9.848-205.623-11.226-287.639,8.155s-159.574,61.126-207.246,124.39-61.427,149.2-24.343,217.992c16.534,30.677,41.86,56.627,65.3,83.391,53.95,61.595,105.817,136.884,109.818,217.029a597.075,597.075,0,0,1-3.8,103.22c-4.209,33.96-11.351,67.827-10.306,101.986,2.006,65.546,31.156,133.272,99.7,162.9,79.671,34.441,172.182,44.586,258.52,27.357" fill="#68b0ff" opacity="0.11" style="mix-blend-mode: multiply;isolation: isolate"/>
    </g>
    <g id="Enmascarar_grupo_2" data-name="Enmascarar grupo 2" transform="translate(0 -1273)" clip-path="url(#clip-path)">
      <g id="Grupo_877425" data-name="Grupo 877425" transform="translate(336.394 2745.5) rotate(180)" opacity="0.5">
        <g id="Grupo_877424" data-name="Grupo 877424" opacity="0.5" style="mix-blend-mode: multiply;isolation: isolate">
          <g id="Grupo_877421" data-name="Grupo 877421" transform="translate(27.66 27.973)" opacity="0.15" style="mix-blend-mode: multiply;isolation: isolate">
            <path id="Trazado_616659" data-name="Trazado 616659" d="M293.42,2690.848c-102.872,0-186.563-84.644-186.563-188.68s83.691-188.675,186.563-188.675,186.563,84.646,186.563,188.675S396.293,2690.848,293.42,2690.848Zm0-344.281c-84.843,0-153.861,69.8-153.861,155.6s69.018,155.608,153.861,155.608,153.866-69.8,153.866-155.608S378.263,2346.566,293.42,2346.566Z" transform="translate(-106.857 -2313.493)" fill="#072d1a"/>
          </g>
          <g id="Grupo_877423" data-name="Grupo 877423">
            <g id="Grupo_877422" data-name="Grupo 877422">
              <path id="Trazado_616660" data-name="Trazado 616660" d="M287.825,2685.25c-102.872,0-186.563-84.638-186.563-188.676S184.953,2307.9,287.825,2307.9s186.564,84.644,186.564,188.676S390.7,2685.25,287.825,2685.25Zm0-344.277c-84.843,0-153.866,69.8-153.866,155.6s69.023,155.608,153.866,155.608,153.866-69.8,153.866-155.608S372.668,2340.973,287.825,2340.973Z" transform="translate(-101.262 -2307.898)" fill="#efefef"/>
            </g>
          </g>
        </g>
      </g>
    </g>
  </g>
</svg>
